<?xml version="1.0" standalone="no"?>
<!DOCTYPE svg PUBLIC "-//W3C//DTD SVG 1.1//EN" "http://www.w3.org/Graphics/SVG/1.1/DTD/svg11.dtd" >
<svg>
<metadata>
Created by FontForge 20090622 at Sat Mar 23 11:51:35 2019
 By deploy user
Copyright 2016 Google Inc. &#38; Colophon Foundry. Copyright 2017 Florian Karsten. All rights reserved.
</metadata>
<defs>
<font id="SpaceGrotesk-Medium" horiz-adv-x="620" >
  <font-face 
    font-family="Space Grotesk Medium"
    font-weight="500"
    font-stretch="normal"
    units-per-em="1000"
    panose-1="0 0 6 0 0 0 0 0 0 0"
    ascent="800"
    descent="-200"
    x-height="491"
    cap-height="700"
    bbox="-671 -306 971 1000"
    underline-thickness="50"
    underline-position="-50"
    unicode-range="U+0020-U+E133"
  />
<missing-glyph horiz-adv-x="880" 
d="M93 613q0 96 49 145t139 49h318q90 0 139 -49t49 -145v-536q0 -96 -49 -145t-139 -49h-318q-90 0 -139 49t-49 145v536zM173 603v-516q0 -130 118 -130h299q117 0 117 130v516q0 130 -117 130h-299q-118 0 -118 -130zM272 450q0 67 48.5 106.5t123.5 39.5q71 0 119 -38
t48 -98v-4q0 -51 -28 -81t-75 -50l-15 -7q-22 -8 -22 -39v-29h-73v32q0 33 12.5 54t44.5 35l14 6q37 16 53.5 33t16.5 46q0 34 -26.5 54t-68.5 20q-43 0 -71 -21.5t-28 -61.5v-22h-73v25zM381 159q0 23 15.5 38.5t39.5 15.5t40 -15.5t16 -38.5q0 -24 -16 -39t-40 -15
t-39.5 15t-15.5 39z" />
    <glyph glyph-name="f_f.liga" unicode="ff" horiz-adv-x="725" 
d="M555 491h146v-80h-146v-411h-93v411h-206v-411h-94v411h-143v80h143v122q0 39 23.5 63t61.5 24h129v-78h-92q-28 0 -28 -30v-101h206v122q0 39 23 63t61 24h129v-78h-92q-28 0 -28 -30v-101z" />
    <glyph glyph-name="f_f_i.liga" unicode="ffi" horiz-adv-x="922" 
d="M808 712q32 0 52.5 -20.5t20.5 -51.5t-20.5 -51t-52.5 -20q-31 0 -52 20t-21 51t21 51.5t52 20.5zM555 491h300v-491h-94v411h-206v-411h-93v411h-206v-411h-94v411h-143v80h143v122q0 39 23.5 63t61.5 24h129v-78h-92q-28 0 -28 -30v-101h206v122q0 39 23 63t61 24h119
v-78h-82q-28 0 -28 -30v-101z" />
    <glyph glyph-name="f_f_j.liga" unicode="ffj" horiz-adv-x="922" 
d="M807 712q32 0 52.5 -20.5t20.5 -51.5t-20.5 -51t-52.5 -20q-31 0 -51.5 20t-20.5 51t20.5 51.5t51.5 20.5zM555 491h300v-608q0 -37 -23.5 -60t-60.5 -23h-131v80h93q28 0 28 30v501h-206v-411h-93v411h-206v-411h-94v411h-143v80h143v122q0 39 23.5 63t61.5 24h129v-78
h-92q-28 0 -28 -30v-101h206v122q0 39 23 63t61 24h119v-78h-82q-28 0 -28 -30v-101z" />
    <glyph glyph-name="f_i.liga" unicode="fi" horiz-adv-x="622" 
d="M509 712q31 0 52 -20.5t21 -51.5t-21 -51t-52 -20q-32 0 -52.5 20t-20.5 51t20.5 51.5t52.5 20.5zM256 491h299v-491h-93v411h-206v-411h-94v411h-143v80h143v122q0 39 23.5 63t61.5 24h119v-78h-82q-28 0 -28 -30v-101z" />
    <glyph glyph-name="f_j.liga" unicode="fj" horiz-adv-x="622" 
d="M508 712q32 0 52.5 -20.5t20.5 -51.5t-20.5 -51t-52.5 -20q-31 0 -52 20t-21 51t21 51.5t52 20.5zM256 491h299v-608q0 -37 -23 -60t-60 -23h-131v80h93q28 0 28 30v501h-206v-411h-94v411h-143v80h143v122q0 39 23.5 63t61.5 24h119v-78h-82q-28 0 -28 -30v-101z" />
    <glyph glyph-name="f_l.liga" unicode="fl" horiz-adv-x="622" 
d="M19 491h143v122q0 39 23.5 63t61.5 24h119v-81h-82q-28 0 -28 -30v-98h132v-81h-132v-410h-94v410h-143v81zM462 700h93v-700h-93v700z" />
    <glyph glyph-name="f_lcaron.liga" unicode="f&#x13e;" horiz-adv-x="695" 
d="M19 491h143v122q0 39 23.5 63t61.5 24h119v-81h-82q-28 0 -28 -30v-98h132v-81h-132v-410h-94v410h-143v81zM555 700v-700h-93v700h93zM621 700h99l-52 -179h-57z" />
    <glyph glyph-name=".notdef" horiz-adv-x="880" 
d="M93 613q0 96 49 145t139 49h318q90 0 139 -49t49 -145v-536q0 -96 -49 -145t-139 -49h-318q-90 0 -139 49t-49 145v536zM173 603v-516q0 -130 118 -130h299q117 0 117 130v516q0 130 -117 130h-299q-118 0 -118 -130zM272 450q0 67 48.5 106.5t123.5 39.5q71 0 119 -38
t48 -98v-4q0 -51 -28 -81t-75 -50l-15 -7q-22 -8 -22 -39v-29h-73v32q0 33 12.5 54t44.5 35l14 6q37 16 53.5 33t16.5 46q0 34 -26.5 54t-68.5 20q-43 0 -71 -21.5t-28 -61.5v-22h-73v25zM381 159q0 23 15.5 38.5t39.5 15.5t40 -15.5t16 -38.5q0 -24 -16 -39t-40 -15
t-39.5 15t-15.5 39z" />
    <glyph glyph-name=".null" horiz-adv-x="0" 
 />
    <glyph glyph-name="nonmarkingreturn" horiz-adv-x="333" 
 />
    <glyph glyph-name="space" unicode=" " horiz-adv-x="296" 
 />
    <glyph glyph-name="exclam" unicode="!" horiz-adv-x="257" 
d="M79 700h99v-502h-99v502zM50 64q0 34 22.5 56t55.5 22q34 0 56 -22t22 -56t-22 -56t-56 -22q-33 0 -55.5 22t-22.5 56z" />
    <glyph glyph-name="quotedbl" unicode="&#x22;" horiz-adv-x="437" 
d="M50 637q0 34 22.5 56t55.5 22q34 0 56 -21.5t22 -55.5v-110q0 -35 -22.5 -57t-57.5 -22h-71v54h61q28 0 28 28v34q-6 -2 -18 -2q-32 0 -54 21t-22 53zM231 637q0 34 22 56t56 22q33 0 55.5 -22t22.5 -55v-110q0 -35 -23 -57t-58 -22h-71v54h62q28 0 28 28v34
q-8 -2 -18 -2q-32 0 -54 21t-22 53z" />
    <glyph glyph-name="numbersign" unicode="#" 
d="M37 504h119v196h88v-196h132v196h88v-196h119v-83h-119v-142h119v-83h-119v-196h-88v196h-132v-196h-88v196h-119v83h119v142h-119v83zM244 421v-142h132v142h-132z" />
    <glyph glyph-name="dollar" unicode="$" horiz-adv-x="611" 
d="M359 398q103 -24 154.5 -69t51.5 -127v-9q0 -85 -56.5 -139t-149.5 -65v-105h-90v104q-110 11 -171 77.5t-61 177.5v24h99v-19q0 -144 133 -166v241q-102 24 -152.5 68t-50.5 126v6q0 77 57 128.5t146 60.5v104h90v-106q90 -13 145.5 -68.5t55.5 -142.5v-37h-99v30
q0 101 -102 124v-218zM166 520q0 -42 25.5 -64t77.5 -36v199q-47 -8 -75 -34t-28 -65zM359 82q51 10 78.5 40t27.5 72q0 41 -26.5 65.5t-79.5 40.5v-218z" />
    <glyph glyph-name="percent" unicode="%" horiz-adv-x="773" 
d="M46 554q0 74 43 116.5t120 42.5q74 0 118 -43t44 -116v-19q0 -74 -43 -116t-119 -42q-77 0 -120 42t-43 116v19zM429 460l173 253l77 -58l-200 -233zM126 559v-28q0 -40 21.5 -63.5t61.5 -23.5t61 23.5t21 63.5v28q0 40 -21 63.5t-61 23.5t-61.5 -23.5t-21.5 -63.5z
M402 164q0 74 43 116.5t119 42.5q75 0 119 -43t44 -116v-19q0 -74 -43.5 -116t-119.5 -42t-119 42t-43 116v19zM341 241l-173 -253l-77 58l200 233zM482 169v-28q0 -40 21 -63.5t61 -23.5t61 23.5t21 63.5v28q0 40 -21 63.5t-61 23.5t-61 -23.5t-21 -63.5z" />
    <glyph glyph-name="ampersand" unicode="&#x26;" horiz-adv-x="692" 
d="M43 192q0 110 109 190v14q-52 65 -52 131v6q0 78 56 129.5t147 51.5q93 0 149 -53t56 -140v-25h-100v22q0 50 -28.5 78.5t-78.5 28.5q-47 0 -74 -26t-27 -68v-4q0 -27 16 -55.5t33.5 -48t58.5 -60.5l12 -12l123 -121h16l101 177h106l-142 -243v-14l151 -150h-127l-75 75
h-14q-80 -90 -193 -90q-101 0 -162 60t-61 147zM143 196q0 -49 36 -84.5t93 -35.5q70 0 123 61v15l-169 165h-13q-70 -48 -70 -117v-4z" />
    <glyph glyph-name="quotesingle" unicode="'" horiz-adv-x="257" 
d="M50 637q0 34 22.5 56t55.5 22q34 0 56 -21.5t22 -55.5v-110q0 -35 -22.5 -57t-57.5 -22h-71v54h61q28 0 28 28v34q-6 -2 -18 -2q-32 0 -54 21t-22 53z" />
    <glyph glyph-name="parenleft" unicode="(" horiz-adv-x="408" 
d="M127 29v502q0 142 69.5 209.5t191.5 67.5v-85q-167 -4 -167 -200v-486q0 -196 167 -200v-85q-122 0 -191.5 67.5t-69.5 209.5z" />
    <glyph glyph-name="parenright" unicode=")" horiz-adv-x="408" 
d="M281 29q0 -142 -69.5 -209.5t-191.5 -67.5v85q168 4 168 200v486q0 196 -168 200v85q122 0 191.5 -67.5t69.5 -209.5v-502z" />
    <glyph glyph-name="asterisk" unicode="*" 
d="M62 492h126l54 -19l5 14l-58 29l-82 84l55 55l84 -82l29 -58l14 5l-19 54v126h80v-126l-19 -54l14 -5l29 58l84 82l55 -55l-82 -84l-58 -29l5 -14l54 19h126v-80h-126l-54 19l-5 -14l58 -29l82 -84l-55 -55l-84 82l-29 58l-14 -5l19 -54v-126h-80v126l19 54l-14 5
l-29 -58l-84 -82l-55 55l82 84l58 29l-5 14l-54 -19h-126v80z" />
    <glyph glyph-name="plus" unicode="+" 
d="M101 393h164v166h90v-166h164v-86h-164v-166h-90v166h-164v86z" />
    <glyph glyph-name="comma" unicode="," horiz-adv-x="257" 
d="M50 63q0 35 22.5 57t55.5 22q34 0 56 -21.5t22 -55.5v-110q0 -36 -22 -57.5t-58 -21.5h-71v54h61q28 0 28 27v35q-6 -2 -18 -2q-32 0 -54 20.5t-22 52.5z" />
    <glyph glyph-name="hyphen" unicode="-" horiz-adv-x="460" 
d="M82 213v86h296v-86h-296z" />
    <glyph glyph-name="period" unicode="." horiz-adv-x="257" 
d="M50 64q0 34 22.5 56t55.5 22q34 0 56 -22t22 -56t-22 -56t-56 -22q-33 0 -55.5 22t-22.5 56z" />
    <glyph glyph-name="slash" unicode="/" horiz-adv-x="484" 
d="M340 700h94l-294 -900h-94z" />
    <glyph glyph-name="zero" unicode="0" horiz-adv-x="608" 
d="M44 430q0 136 69.5 210t190.5 74t190 -74t69 -210v-160q0 -137 -69 -210.5t-190 -73.5t-190.5 73.5t-69.5 210.5v160zM143 435v-170q0 -91 40.5 -141t120.5 -50t120.5 50.5t40.5 140.5v170q0 89 -42 140t-119 51t-119 -51t-42 -140z" />
    <glyph glyph-name="one" unicode="1" horiz-adv-x="416" 
d="M195 700h153l-1 -700h-99v594h-12l-124 -201h-108z" />
    <glyph glyph-name="two" unicode="2" horiz-adv-x="576" 
d="M39 470q0 114 73 179t183 65q106 0 176 -62.5t70 -165.5q0 -96 -57 -152t-170 -85q-49 -12 -76 -22t-52.5 -26t-36 -38.5t-10.5 -55.5v-18h402v-89h-501v97q0 97 58 149t169 81q88 22 132 59.5t44 101.5t-40 101t-107 37q-70 0 -114 -41t-44 -118v-21h-99v24z" />
    <glyph glyph-name="three" unicode="3" horiz-adv-x="575" 
d="M47 700h486v-88l-219 -183v-12h25q87 0 145 -54.5t58 -148.5q0 -101 -71 -164.5t-181 -63.5q-120 0 -190 64.5t-70 174.5v31h99v-30q0 -71 43 -111.5t118 -40.5q70 0 111.5 40t41.5 101q0 62 -40.5 95t-104.5 33h-106v91l208 176h-353v90z" />
    <glyph glyph-name="four" unicode="4" horiz-adv-x="600" 
d="M315 700h158v-470h119v-89h-119v-141h-99v141h-362v86zM362 612l-245 -382h257v382h-12z" />
    <glyph glyph-name="five" unicode="5" horiz-adv-x="573" 
d="M57 700h464v-89h-365v-227h12q48 87 163 87q89 0 150 -62.5t61 -166.5q0 -114 -69 -185t-183 -71q-115 0 -185.5 65.5t-70.5 173.5v22h98v-16q0 -74 41.5 -115.5t113.5 -41.5q73 0 114 44t41 121q0 68 -37 108t-98 40q-80 0 -115 -67h-135v380z" />
    <glyph glyph-name="six" unicode="6" horiz-adv-x="580" 
d="M547 229q0 -108 -71 -174.5t-181 -67.5q-108 -2 -179.5 64t-71.5 172v244q0 115 70.5 181t186.5 66q110 0 175 -60.5t65 -158.5h-100q0 60 -36 95.5t-104 35.5q-75 0 -116.5 -40t-41.5 -112v-92h12q50 81 166 81q97 0 161.5 -65.5t64.5 -168.5zM296 385q-68 0 -110.5 -43
t-42.5 -113t42.5 -112t110.5 -42q67 0 109.5 42t42.5 112t-42 113t-110 43z" />
    <glyph glyph-name="seven" unicode="7" horiz-adv-x="537" 
d="M10 700h516v-86l-291 -614h-110l288 610h-403v90z" />
    <glyph glyph-name="eight" unicode="8" horiz-adv-x="575" 
d="M43 525q0 83 67.5 136t176.5 53q110 0 177.5 -53t67.5 -136q0 -113 -119 -157v-12q50 -12 90 -55.5t40 -113.5q0 -90 -71 -145.5t-185 -55.5q-113 0 -184.5 55.5t-71.5 145.5q0 70 40.5 113.5t90.5 55.5v12q-119 44 -119 157zM142 515q0 -51 40.5 -81t104.5 -30
q65 0 105.5 29.5t40.5 81.5t-40.5 81.5t-105.5 29.5t-105 -29.5t-40 -81.5zM130 195q0 -57 42.5 -89t114.5 -32q73 0 115.5 32t42.5 89t-42.5 89t-115.5 32q-72 0 -114.5 -32t-42.5 -89z" />
    <glyph glyph-name="nine" unicode="9" horiz-adv-x="581" 
d="M34 471q0 108 71 175t181 68q108 1 179 -65t71 -171v-244q0 -115 -70 -181t-186 -66q-111 0 -175.5 60t-64.5 158h100q0 -59 36 -94.5t104 -35.5q75 0 116 39.5t41 111.5v92h-12q-48 -81 -166 -81q-96 0 -160.5 66t-64.5 168zM285 315q68 0 110 43t42 113q0 71 -42 113
t-110 42q-67 0 -109.5 -42.5t-42.5 -112.5t42 -113t110 -43z" />
    <glyph glyph-name="colon" unicode=":" horiz-adv-x="257" 
d="M50 432q0 34 22.5 56t55.5 22q34 0 56 -22t22 -56t-22 -56t-56 -22q-33 0 -55.5 22t-22.5 56zM50 64q0 34 22.5 56t55.5 22q34 0 56 -22t22 -56t-22 -56t-56 -22q-33 0 -55.5 22t-22.5 56z" />
    <glyph glyph-name="semicolon" unicode=";" horiz-adv-x="257" 
d="M50 432q0 34 22.5 56t55.5 22q34 0 56 -22t22 -56t-22 -56t-56 -22q-33 0 -55.5 22t-22.5 56zM50 63q0 35 22.5 57t55.5 22q34 0 56 -21.5t22 -55.5v-110q0 -36 -22 -57.5t-58 -21.5h-71v54h61q28 0 28 27v35q-6 -2 -18 -2q-32 0 -54 20.5t-22 52.5z" />
    <glyph glyph-name="less" unicode="&#x3c;" 
d="M100 291v118l420 161v-96l-326 -117v-14l326 -117v-96z" />
    <glyph glyph-name="equal" unicode="=" 
d="M101 384v86h418v-86h-418zM101 230v86h418v-86h-418z" />
    <glyph glyph-name="greater" unicode="&#x3e;" 
d="M520 291l-420 -161v96l326 117v14l-326 117v96l420 -161v-118z" />
    <glyph glyph-name="question" unicode="?" horiz-adv-x="604" 
d="M52 498q0 100 70.5 158t181.5 58q107 0 175.5 -56.5t68.5 -144.5v-5q0 -77 -40 -122t-110 -75l-25 -10q-34 -16 -34 -58v-45h-99v50q0 49 17.5 78t62.5 49l25 10q54 24 79 50.5t25 72.5q0 53 -41 83.5t-104 30.5q-67 0 -110 -33t-43 -95v-32h-99v36zM212 64q0 34 22 56
t56 22q33 0 55.5 -22t22.5 -56t-22.5 -56t-55.5 -22q-34 0 -56 22t-22 56z" />
    <glyph glyph-name="at" unicode="@" horiz-adv-x="1032" 
d="M82 -1v502q0 95 52 147t148 52h480q92 0 140 -47.5t48 -139.5v-423q0 -42 -24 -66t-67 -24h-140q-34 0 -53.5 18.5t-19.5 49.5v12h-14q-34 -94 -141 -94q-90 0 -147.5 71t-57.5 177v17q0 107 56 177.5t143 70.5q100 0 142 -88h14v74h91v-375q0 -27 25 -27h65q35 0 35 37
v396q0 48 -25.5 73.5t-73.5 25.5h-461q-122 0 -122 -122v-486q0 -122 122 -122h638v-85h-653q-96 0 -148 52t-52 147zM379 237q0 -75 35.5 -120t94.5 -45t95 44.5t36 120.5v11q0 76 -36 120.5t-95 44.5t-94.5 -44.5t-35.5 -119.5v-12z" />
    <glyph glyph-name="A" unicode="A" horiz-adv-x="606" 
d="M225 700h156l216 -700h-104l-51 170h-278l-51 -170h-104zM189 260h228l-108 354h-12z" />
    <glyph glyph-name="B" unicode="B" horiz-adv-x="617" 
d="M68 700h301q91 0 149 -49.5t58 -135.5q0 -62 -35 -102.5t-87 -55.5v-12q52 -13 87 -53.5t35 -104.5q0 -86 -58.5 -136.5t-150.5 -50.5h-299v700zM167 611v-215h194q55 0 87 29t32 80q0 49 -32.5 77.5t-87.5 28.5h-193zM167 307v-218h194q55 0 87 29.5t32 79.5
q0 52 -32 80.5t-90 28.5h-191z" />
    <glyph glyph-name="C" unicode="C" horiz-adv-x="629" 
d="M44 424q0 135 76 212.5t206 77.5q127 0 196 -67t69 -185v-20h-99v21q0 76 -43 119.5t-123 43.5q-86 0 -134.5 -54t-48.5 -143v-158q0 -92 48 -144.5t135 -52.5q166 0 166 162v22h99v-21q0 -118 -69 -184.5t-196 -66.5q-130 0 -206 76t-76 214v148z" />
    <glyph glyph-name="D" unicode="D" horiz-adv-x="624" 
d="M68 700h226q285 0 285 -282v-136q0 -282 -285 -282h-226v700zM167 611v-522h127q99 0 142.5 45t43.5 143v146q0 98 -44 143t-142 45h-127z" />
    <glyph glyph-name="E" unicode="E" horiz-adv-x="556" 
d="M68 700h447v-89h-348v-214h320v-90h-320v-218h353v-89h-452v700z" />
    <glyph glyph-name="F" unicode="F" horiz-adv-x="530" 
d="M68 700h435v-89h-336v-215h316v-90h-316v-306h-99v700z" />
    <glyph glyph-name="G" unicode="G" horiz-adv-x="635" 
d="M44 275v149q0 135 76 212.5t206 77.5q127 0 195.5 -67.5t68.5 -188.5v-8h-98v9q0 78 -43 122.5t-123 44.5q-86 0 -134.5 -54t-48.5 -143v-158q0 -92 47.5 -144.5t134.5 -52.5q167 0 167 162v21h-197v87h295v-104q0 -121 -69 -187.5t-196 -66.5q-130 0 -205.5 75.5
t-75.5 213.5z" />
    <glyph glyph-name="H" unicode="H" horiz-adv-x="642" 
d="M68 700h99v-304h308v304h99v-700h-99v306h-308v-306h-99v700z" />
    <glyph glyph-name="I" unicode="I" horiz-adv-x="235" 
d="M68 700h99v-700h-99v700z" />
    <glyph glyph-name="J" unicode="J" horiz-adv-x="537" 
d="M473 700v-490q0 -108 -55.5 -166t-158.5 -58q-105 0 -165.5 58.5t-60.5 165.5v58h99v-58q0 -62 32 -98.5t93 -36.5q59 0 88 36t29 99v490h99z" />
    <glyph glyph-name="K" unicode="K" horiz-adv-x="635" 
d="M641 700l-303 -286l296 -414h-122l-244 348l-101 -96v-252h-99v700h99v-315h12l328 315h134z" />
    <glyph glyph-name="L" unicode="L" horiz-adv-x="532" 
d="M68 700h99v-611h349v-89h-448v700z" />
    <glyph glyph-name="M" unicode="M" horiz-adv-x="873" 
d="M68 700h174l189 -594h12l188 594h174v-700h-97v592h-12l-186 -592h-147l-186 592h-12v-592h-97v700z" />
    <glyph glyph-name="N" unicode="N" horiz-adv-x="652" 
d="M68 700h174l231 -601h12v601h99v-700h-174l-231 602h-12v-602h-99v700z" />
    <glyph glyph-name="O" unicode="O" horiz-adv-x="646" 
d="M44 426q0 136 74.5 212t204.5 76t204.5 -76t74.5 -212v-152q0 -137 -74.5 -212.5t-204.5 -75.5t-204.5 75.5t-74.5 212.5v152zM143 431v-162q0 -91 46.5 -143t133.5 -52q88 0 134 52t46 143v162q0 90 -48 142.5t-132 52.5q-85 0 -132.5 -53t-47.5 -142z" />
    <glyph glyph-name="P" unicode="P" horiz-adv-x="585" 
d="M68 700h274q97 0 159 -58t62 -155t-62.5 -155t-158.5 -58h-175v-274h-99v700zM167 611v-248h165q61 0 96.5 33t35.5 91t-35.5 91t-96.5 33h-165z" />
    <glyph glyph-name="Q" unicode="Q" horiz-adv-x="646" 
d="M323 714q130 0 204.5 -76t74.5 -212v-152q0 -123 -60.5 -197t-168.5 -88v-40q0 -30 28 -30h60v-86h-104q-37 0 -60 23t-23 60v73q-109 14 -169.5 87.5t-60.5 197.5v152q0 136 74.5 212t204.5 76zM503 269v162q0 90 -48 142.5t-132 52.5q-85 0 -132.5 -53t-47.5 -142v-162
q0 -91 46.5 -143t133.5 -52q88 0 134 52t46 143z" />
    <glyph glyph-name="R" unicode="R" horiz-adv-x="615" 
d="M583 489q0 -81 -45 -135t-120 -69l152 -285h-109l-144 279h-150v-279h-99v699h294q98 0 159.5 -57t61.5 -153zM167 610v-242h185q61 0 96.5 32.5t35.5 88.5q0 57 -35 89t-97 32h-185z" />
    <glyph glyph-name="S" unicode="S" horiz-adv-x="608" 
d="M303 714q112 0 183 -57.5t71 -157.5v-37h-97v30q0 67 -43.5 101t-113.5 34q-61 0 -100 -29t-39 -76q0 -52 35.5 -74.5t115.5 -41.5l35 -8q106 -24 159.5 -70t53.5 -131q0 -98 -70 -154.5t-181 -56.5q-129 0 -202 67t-73 190v24h98v-20q0 -84 46.5 -129t132.5 -45
q72 0 111.5 34t39.5 86q0 49 -37 75t-114 43l-35 9q-107 24 -160 69t-53 131t67.5 140t169.5 54z" />
    <glyph glyph-name="T" unicode="T" horiz-adv-x="579" 
d="M14 700h551v-89h-226v-611h-99v611h-226v89z" />
    <glyph glyph-name="U" unicode="U" horiz-adv-x="654" 
d="M64 700h99v-464q0 -78 43 -120t121 -42t121 42t43 120v464h99v-461q0 -121 -70 -187t-193 -66t-193 66t-70 187v461z" />
    <glyph glyph-name="V" unicode="V" horiz-adv-x="603" 
d="M10 700h103l183 -608h12l183 608h103l-216 -700h-152z" />
    <glyph glyph-name="W" unicode="W" horiz-adv-x="886" 
d="M22 700h100l100 -599h12l131 599h156l131 -599h12l100 599h99l-121 -700h-163l-130 599h-12l-130 -599h-164z" />
    <glyph glyph-name="X" unicode="X" horiz-adv-x="622" 
d="M23 700h112l170 -274h13l169 274h112l-209 -340v-14l212 -346h-112l-172 280h-13l-172 -280h-112l211 346v14z" />
    <glyph glyph-name="Y" unicode="Y" horiz-adv-x="615" 
d="M8 700h114l178 -323h15l179 323h113l-250 -446v-254h-99v254z" />
    <glyph glyph-name="Z" unicode="Z" horiz-adv-x="577" 
d="M47 700h490v-84l-378 -528h384v-88h-506v84l377 528h-367v88z" />
    <glyph glyph-name="bracketleft" unicode="[" horiz-adv-x="355" 
d="M127 720q0 38 24 62t61 24h114v-85h-78q-27 0 -27 -30v-822q0 -30 27 -30h78v-85h-114q-37 0 -61 24t-24 62v880z" />
    <glyph glyph-name="backslash" unicode="\" horiz-adv-x="486" 
d="M146 700l294 -900h-94l-294 900h94z" />
    <glyph glyph-name="bracketright" unicode="]" horiz-adv-x="355" 
d="M228 720v-880q0 -38 -24 -62t-62 -24h-113v85h78q27 0 27 30v822q0 30 -27 30h-78v85h113q38 0 62 -24t24 -62z" />
    <glyph glyph-name="asciicircum" unicode="^" 
d="M382 700l165 -276h-109l-121 213h-14l-121 -213h-109l165 276h144z" />
    <glyph glyph-name="underscore" unicode="_" 
d="M73 -134v86h474v-86h-474z" />
    <glyph glyph-name="grave" unicode="`" horiz-adv-x="268" 
d="M158 700l61 -130h-85l-85 130h109z" />
    <glyph glyph-name="a" unicode="a" horiz-adv-x="559" 
d="M46 364q82 141 238 141q98 0 156 -52.5t58 -141.5v-311h-92v77h-14q-54 -91 -175 -91q-83 0 -133.5 40.5t-50.5 107.5q0 66 44 102t120 43l207 21v17q0 49 -33 79.5t-91 30.5q-106 0 -156 -108zM130 135q0 -32 29 -51t77 -19q76 0 122 41.5t46 110.5v7l-184 -19
q-90 -9 -90 -70z" />
    <glyph glyph-name="b" unicode="b" horiz-adv-x="612" 
d="M67 700h94v-289h12q54 94 172 94q98 0 164.5 -73t66.5 -187q0 -113 -66.5 -186t-164.5 -73q-118 0 -172 94h-14v-80h-92v700zM322 421q-71 0 -116 -48t-45 -128t45 -127.5t116 -47.5q70 0 114.5 47t44.5 128t-44.5 128.5t-114.5 47.5z" />
    <glyph glyph-name="c" unicode="c" horiz-adv-x="564" 
d="M36 245q0 113 73.5 186.5t181.5 73.5q95 0 158.5 -52t80.5 -135l-92 -23q-8 56 -46.5 91t-99.5 35q-70 0 -115.5 -49.5t-45.5 -126.5t45 -126t116 -49q123 0 147 126l92 -23q-16 -84 -79.5 -135.5t-160.5 -51.5q-108 0 -181.5 73t-73.5 186z" />
    <glyph glyph-name="d" unicode="d" horiz-adv-x="612" 
d="M545 700v-700h-92v80h-14q-54 -94 -172 -94q-97 0 -164 73.5t-67 186.5t66.5 186t164.5 73q119 0 172 -93h12v288h94zM290 421q-70 0 -114.5 -47t-44.5 -128t44.5 -128.5t114.5 -47.5q71 0 116 48t45 128t-45 127.5t-116 47.5z" />
    <glyph glyph-name="e" unicode="e" horiz-adv-x="551" 
d="M36 249q0 111 69.5 183.5t176.5 72.5q106 0 171.5 -66.5t65.5 -177.5v-45h-385q4 -66 45.5 -107t108.5 -41q101 0 143 90l79 -43q-72 -129 -221 -129q-112 0 -182.5 74.5t-70.5 188.5zM134 292h288q-4 61 -41.5 96t-98.5 35q-63 0 -102 -35.5t-46 -95.5z" />
    <glyph glyph-name="f" unicode="f" horiz-adv-x="426" 
d="M19 491h143v122q0 39 23.5 63t61.5 24h129v-78h-92q-28 0 -28 -30v-101h146v-80h-146v-411h-94v411h-143v80z" />
    <glyph glyph-name="g" unicode="g" horiz-adv-x="612" 
d="M453 491h92v-471q0 -104 -67 -169t-179 -65q-168 0 -254 138l81 48q23 -46 65.5 -75t102.5 -29q71 0 114 40t43 117v67h-12q-53 -93 -172 -93q-98 0 -164.5 71t-66.5 182t66.5 182t164.5 71q118 0 172 -94h14v80zM290 83q71 0 116 46t45 123t-45 123t-116 46t-115 -45
t-44 -124t44 -124t115 -45z" />
    <glyph glyph-name="h" unicode="h" horiz-adv-x="594" 
d="M67 700h94v-294h12q45 94 167 94q83 0 138 -54t55 -150v-296h-94v287q0 64 -34 97t-96 33q-69 0 -108.5 -43.5t-39.5 -123.5v-250h-94v700z" />
    <glyph glyph-name="i" unicode="i" horiz-adv-x="228" 
d="M42 640q0 31 20.5 51.5t51.5 20.5q32 0 52.5 -20.5t20.5 -51.5t-20.5 -51t-52.5 -20q-31 0 -51.5 20t-20.5 51zM161 491v-491h-94v491h94z" />
    <glyph glyph-name="j" unicode="j" horiz-adv-x="234" 
d="M47 640q0 31 20.5 51.5t51.5 20.5q32 0 52.5 -20.5t20.5 -51.5t-20.5 -51t-52.5 -20q-31 0 -51.5 20t-20.5 51zM166 491v-608q0 -37 -23 -60t-60 -23h-131v80h93q28 0 28 30v581h93z" />
    <glyph glyph-name="k" unicode="k" horiz-adv-x="560" 
d="M548 491l-224 -191l218 -300h-110l-175 243l-96 -81v-162h-94v700h94v-417h12l241 208h134z" />
    <glyph glyph-name="l" unicode="l" horiz-adv-x="228" 
d="M161 700v-700h-94v700h94z" />
    <glyph glyph-name="m" unicode="m" horiz-adv-x="834" 
d="M67 491h92v-71h14q38 80 136 80q50 0 86 -24t51 -64h14q42 88 147 88q72 0 119 -46.5t47 -120.5v-333h-94v325q0 42 -27 67t-73 25q-50 0 -81 -30.5t-31 -87.5v-299h-94v325q0 42 -27 67t-73 25q-50 0 -81 -30.5t-31 -87.5v-299h-94v491z" />
    <glyph glyph-name="n" unicode="n" horiz-adv-x="594" 
d="M67 491h92v-85h14q45 94 167 94q83 0 138 -54t55 -150v-296h-94v287q0 64 -34 97t-96 33q-69 0 -108.5 -43.5t-39.5 -123.5v-250h-94v491z" />
    <glyph glyph-name="o" unicode="o" horiz-adv-x="579" 
d="M36 245q0 114 71.5 187t181.5 73q111 0 182.5 -73t71.5 -187t-71.5 -186.5t-182.5 -72.5q-110 0 -181.5 72.5t-71.5 186.5zM130 245q0 -79 43.5 -127t115.5 -48t116 48.5t44 126.5q0 79 -44 127.5t-116 48.5q-71 0 -115 -49t-44 -127z" />
    <glyph glyph-name="p" unicode="p" horiz-adv-x="612" 
d="M67 -200v691h92v-80h14q54 94 172 94q98 0 164.5 -73t66.5 -187q0 -113 -66.5 -186t-164.5 -73q-118 0 -172 94h-12v-280h-94zM322 70q70 0 114.5 47t44.5 128t-44.5 128.5t-114.5 47.5q-71 0 -116 -48t-45 -128t45 -127.5t116 -47.5z" />
    <glyph glyph-name="q" unicode="q" horiz-adv-x="612" 
d="M545 -200h-94v280h-12q-54 -94 -172 -94q-98 0 -164.5 73t-66.5 186q0 114 66.5 187t164.5 73q118 0 172 -94h14v80h92v-691zM290 70q71 0 116 47.5t45 127.5t-45 128t-116 48q-70 0 -114.5 -47.5t-44.5 -128.5t44.5 -128t114.5 -47z" />
    <glyph glyph-name="r" unicode="r" horiz-adv-x="368" 
d="M159 491v-67h14q26 69 123 69h57v-83h-77q-54 0 -84.5 -29t-30.5 -87v-294h-94v491h92z" />
    <glyph glyph-name="s" unicode="s" horiz-adv-x="520" 
d="M52 360q0 66 51 105.5t133 39.5q149 0 245 -115l-65 -55q-73 93 -176 93q-45 0 -71 -17t-26 -47q0 -29 24 -44.5t71 -23.5l59 -10q88 -14 136.5 -47t48.5 -99q0 -70 -56.5 -112t-143.5 -42q-88 0 -156.5 39t-107.5 109l76 44q57 -115 186 -115q51 0 81 19.5t30 51.5
q0 54 -102 70l-59 10q-87 15 -132.5 49.5t-45.5 96.5z" />
    <glyph glyph-name="t" unicode="t" horiz-adv-x="430" 
d="M8 491h143v168h94v-168h152v-80h-152v-301q0 -30 28 -30h96v-80h-134q-37 0 -60.5 23t-23.5 60v328h-143v80z" />
    <glyph glyph-name="u" unicode="u" horiz-adv-x="594" 
d="M527 0h-92v85h-14q-45 -94 -167 -94q-83 0 -138 54t-55 150v296h94v-287q0 -64 34 -97t96 -33q69 0 108.5 43.5t39.5 123.5v250h94v-491z" />
    <glyph glyph-name="v" unicode="v" horiz-adv-x="529" 
d="M15 491h101l142 -406h12l143 406h101l-182 -491h-136z" />
    <glyph glyph-name="w" unicode="w" horiz-adv-x="766" 
d="M28 491h94l81 -405h12l102 405h132l102 -405h12l81 405h94l-110 -491h-137l-102 405h-12l-102 -405h-137z" />
    <glyph glyph-name="x" unicode="x" horiz-adv-x="572" 
d="M32 491h112l136 -184h12l137 184h111l-182 -242l187 -249h-114l-139 189h-12l-139 -189h-113l186 249z" />
    <glyph glyph-name="y" unicode="y" horiz-adv-x="548" 
d="M432 491h101l-285 -691h-101l78 180l-210 511h101l152 -383h12z" />
    <glyph glyph-name="z" unicode="z" horiz-adv-x="529" 
d="M57 491h424v-72l-309 -339h317v-80h-442v72l310 339h-300v80z" />
    <glyph glyph-name="braceleft" unicode="{" horiz-adv-x="389" 
d="M73 335h62q27 0 27 29v356q0 38 24 62t61 24h114v-85h-79q-27 0 -27 -30v-328q0 -34 -19.5 -55.5t-54.5 -21.5h-11v-12h11q35 0 54.5 -21.5t19.5 -55.5v-328q0 -30 27 -30h79v-85h-114q-37 0 -61 24t-24 62v356q0 29 -27 29h-62v110z" />
    <glyph glyph-name="bar" unicode="|" horiz-adv-x="230" 
d="M162 806v-1052h-94v1052h94z" />
    <glyph glyph-name="braceright" unicode="}" horiz-adv-x="389" 
d="M316 335v-110h-61q-27 0 -27 -29v-356q0 -38 -24 -62t-62 -24h-113v85h78q27 0 27 30v328q0 34 20 55.5t54 21.5h11v12h-11q-34 0 -54 21.5t-20 55.5v328q0 30 -27 30h-78v85h113q38 0 62 -24t24 -62v-356q0 -29 27 -29h61z" />
    <glyph glyph-name="asciitilde" unicode="~" 
d="M336 365q12 -20 19 -27.5t20 -7.5q16 0 35 17l85 66l54 -68l-102 -80q-46 -36 -81 -36q-53 0 -82 50q-12 20 -19.5 27.5t-20.5 7.5q-15 0 -34 -17l-85 -66l-54 68l102 80q45 35 80 35q54 0 83 -49z" />
    <glyph glyph-name="exclamdown" unicode="&#xa1;" horiz-adv-x="257" 
d="M50 432q0 34 22.5 56t55.5 22q34 0 56 -22t22 -56t-22 -56t-56 -22q-33 0 -55.5 22t-22.5 56zM79 -200v498h99v-498h-99z" />
    <glyph glyph-name="cent" unicode="&#xa2;" horiz-adv-x="602" 
d="M564 444h-99v14q0 65 -27.5 107t-80.5 55v-541q108 23 108 161v18h99v-21q0 -106 -53.5 -171t-153.5 -77v-105h-90v105q-106 13 -164.5 87t-58.5 201v146q0 123 59 198.5t164 89.5v105h90v-105q100 -13 153.5 -78t53.5 -171v-18zM143 271q0 -79 31.5 -129t92.5 -63v541
q-60 -14 -92 -64.5t-32 -126.5v-158z" />
    <glyph glyph-name="sterling" unicode="&#xa3;" horiz-adv-x="631" 
d="M60 383h70v112q0 106 57 162.5t157 56.5q104 0 163.5 -57.5t59.5 -161.5v-58h-96v60q0 60 -33 94t-91 34q-57 0 -89 -34t-32 -94v-114h117v-84h-117v-210h345v-89h-515v89h74v210h-70v84z" />
    <glyph glyph-name="currency" unicode="&#xa4;" 
d="M47 554l60 60l59 -60q67 46 144 46q78 0 144 -46l60 60l60 -60l-60 -60q46 -66 46 -144q0 -77 -46 -144l60 -59l-60 -60l-60 59q-61 -46 -144 -46q-81 0 -144 46l-59 -59l-60 60l59 59q-46 63 -46 144q0 83 46 144zM144 350q0 -72 48 -119.5t118 -47.5t118 47.5t48 119.5
t-48 120t-118 48t-118 -48t-48 -120z" />
    <glyph glyph-name="yen" unicode="&#xa5;" 
d="M609 700l-197 -351h108v-78h-161v-55h161v-79h-161v-137h-98v137h-161v79h161v55h-161v78h108l-197 351h113l179 -323h14l179 323h113z" />
    <glyph glyph-name="brokenbar" unicode="&#xa6;" horiz-adv-x="230" 
d="M162 366h-94v440h94v-440zM68 194h94v-440h-94v440z" />
    <glyph glyph-name="section" unicode="&#xa7;" horiz-adv-x="490" 
d="M62 562q0 70 50.5 111t128.5 41q87 0 140.5 -43.5t53.5 -119.5v-29h-86v22q0 42 -29 66.5t-77 24.5q-42 0 -68.5 -19t-26.5 -54q0 -40 30 -59t92 -31q88 -18 130 -53.5t42 -97.5q0 -51 -23 -84q22 -34 22 -79v-7q0 -75 -50 -120t-140 -45q-98 0 -155 53.5t-57 144.5v18
h85v-15q0 -57 32.5 -89.5t94.5 -32.5q50 0 77 22t27 62q0 39 -26 58t-89 30q-90 16 -134 53t-44 103q0 49 25 82q-25 32 -25 82v5zM269 314q48 -8 78 -22q7 9 7 25q0 32 -26 50t-87 29q-40 7 -85 26q-7 -10 -7 -29q0 -33 28.5 -51t91.5 -28z" />
    <glyph glyph-name="dieresis" unicode="&#xa8;" horiz-adv-x="431" 
d="M49 640q0 31 20.5 51.5t51.5 20.5q32 0 52.5 -20.5t20.5 -51.5t-20.5 -51t-52.5 -20q-31 0 -51.5 20t-20.5 51zM237 640q0 31 21 51.5t52 20.5q32 0 52.5 -20.5t20.5 -51.5t-20.5 -51t-52.5 -20q-31 0 -52 20t-21 51z" />
    <glyph glyph-name="copyright" unicode="&#xa9;" horiz-adv-x="724" 
d="M68 506q0 96 49 145t140 49h210q91 0 140 -49t49 -145v-312q0 -96 -49 -145t-140 -49h-210q-91 0 -140 49t-49 145v312zM148 496v-292q0 -129 118 -129h192q118 0 118 129v292q0 129 -118 129h-192q-118 0 -118 -129zM221 404q0 76 39 117t105 41q68 0 104 -38.5
t36 -104.5v-18h-77v24q0 65 -62 65q-31 0 -48.5 -18.5t-17.5 -52.5v-139q0 -32 18.5 -50t47.5 -18q62 0 62 67v21h77v-17q0 -66 -35.5 -104.5t-103.5 -38.5q-67 0 -106 40t-39 115v109z" />
    <glyph glyph-name="guillemotleft" unicode="&#xab;" horiz-adv-x="780" 
d="M65 297l314 180h6v-104l-226 -121v-13l226 -121v-104h-6l-314 180v103zM391 297l314 180h6v-104l-225 -121v-13l225 -121v-104h-6l-314 180v103z" />
    <glyph glyph-name="logicalnot" unicode="&#xac;" 
d="M101 307v86h418v-185h-86v99h-332z" />
    <glyph glyph-name="registered" unicode="&#xae;" 
d="M100 506q0 91 59.5 149.5t150.5 58.5t150.5 -58.5t59.5 -149.5t-59.5 -149.5t-150.5 -58.5t-150.5 58.5t-59.5 149.5zM142 506q0 -76 46 -122t122 -46t122 46t46 122t-46 122t-122 46t-122 -46t-46 -122zM238 619h85q35 0 55 -18t20 -44q0 -42 -40 -56v-6q32 -3 32 -34
v-64h-40v61q0 21 -21 21h-51v-82h-40v222zM278 583v-68h46q16 0 25 10t9 24q0 15 -9 24.5t-25 9.5h-46z" />
    <glyph glyph-name="macron" unicode="&#xaf;" horiz-adv-x="383" 
d="M334 647v-77h-285v77h285z" />
    <glyph glyph-name="degree" unicode="&#xb0;" horiz-adv-x="387" 
d="M49 575q0 60 42 100.5t102 40.5q62 0 103.5 -39.5t41.5 -101.5q0 -61 -42.5 -100.5t-102.5 -39.5q-59 0 -101.5 40.5t-42.5 99.5zM128 575q0 -28 18.5 -46.5t46.5 -18.5q29 0 47.5 18.5t18.5 46.5q0 29 -18.5 47t-47.5 18q-28 0 -46.5 -18t-18.5 -47z" />
    <glyph glyph-name="plusminus" unicode="&#xb1;" 
d="M101 307v86h166v166h86v-166h166v-86h-166v-159h-86v159h-166zM101 0v86h418v-86h-418z" />
    <glyph glyph-name="acute" unicode="&#xb4;" horiz-adv-x="268" 
d="M107 700h111l-81 -130h-86z" />
    <glyph glyph-name="uni00B5" unicode="&#xb5;" horiz-adv-x="594" 
d="M67 -200v696h94v-288q0 -138 130 -138q71 0 109.5 43.5t38.5 123.5v259h94v-496h-92v83h-12q-37 -97 -142 -97q-73 0 -114 49h-12v-235h-94z" />
    <glyph glyph-name="paragraph" unicode="&#xb6;" horiz-adv-x="582" 
d="M24 502q0 89 61 142t158 53h271v-697h-85v618h-86v-618h-85v296h-18q-96 0 -156 53.5t-60 141.5v11zM109 500v-6q0 -53 34 -86t94 -33h21v243h-21q-60 0 -94 -32.5t-34 -85.5z" />
    <glyph glyph-name="periodcentered" unicode="&#xb7;" horiz-adv-x="257" 
d="M50 350q0 34 22.5 56t55.5 22q34 0 56 -22t22 -56t-22 -56t-56 -22q-33 0 -55.5 22t-22.5 56z" />
    <glyph glyph-name="cedilla" unicode="&#xb8;" horiz-adv-x="301" 
d="M75 32h58l-18 -92h9q17 21 50 21t55.5 -21.5t22.5 -60.5q0 -42 -28.5 -67t-72.5 -25q-57 0 -87 39l34 48q15 -28 49 -28q17 0 27.5 9.5t10.5 25.5q0 14 -8 22.5t-22 8.5q-17 0 -26 -13h-80v8z" />
    <glyph glyph-name="guillemotright" unicode="&#xbb;" horiz-adv-x="780" 
d="M385 297v-103l-314 -180h-6v104l225 121v13l-225 121v104h6zM711 297v-103l-314 -180h-6v104l226 121v13l-226 121v104h6z" />
    <glyph glyph-name="onequarter" unicode="&#xbc;" horiz-adv-x="703" 
d="M357 459l173 254l78 -58l-200 -233zM96 700h112v-350h-78v260h-10l-38 -66h-72v10zM505 350h123v-209h72v-62h-72v-79h-78v79h-210v56zM541 287l-116 -146h125v146h-9zM270 241l-173 -254l-78 58l200 234z" />
    <glyph glyph-name="onehalf" unicode="&#xbd;" horiz-adv-x="711" 
d="M357 459l173 254l78 -58l-200 -233zM96 700h112v-350h-78v260h-10l-38 -66h-72v10zM539 363q66 0 107.5 -33t41.5 -87q0 -52 -33.5 -79.5t-102.5 -42.5q-47 -11 -69 -23.5t-26 -33.5h229v-64h-308v35q0 109 137 140q52 13 74 27.5t22 40.5q0 25 -20.5 40.5t-52.5 15.5
q-36 0 -58 -19t-23 -55h-76q1 65 44.5 101.5t113.5 36.5zM270 241l-173 -254l-78 58l200 234z" />
    <glyph glyph-name="threequarters" unicode="&#xbe;" horiz-adv-x="790" 
d="M444 459l173 254l78 -58l-200 -233zM25 700h308v-54l-115 -74v-10q51 -2 84 -27.5t33 -74.5q0 -54 -44.5 -88.5t-111.5 -34.5q-71 0 -115 35.5t-46 98.5h77q1 -32 23.5 -50.5t58.5 -18.5t58 17t22 44q0 55 -80 55h-62v51l102 67h-192v64zM591 350h123v-209h72v-62h-72
v-79h-78v79h-210v56zM627 287l-116 -146h125v146h-9zM357 241l-173 -254l-78 58l200 234z" />
    <glyph glyph-name="questiondown" unicode="&#xbf;" horiz-adv-x="604" 
d="M235 432q0 34 22.5 56t55.5 22q34 0 56 -22t22 -56t-22 -56t-56 -22q-33 0 -55.5 22t-22.5 56zM551 0q0 -100 -70 -157.5t-181 -57.5q-107 0 -176 56.5t-69 144.5v5q0 77 40.5 122t109.5 74l25 11q34 15 34 58v42h99v-47q0 -49 -17.5 -78t-62.5 -49l-24 -10
q-56 -25 -80.5 -51t-24.5 -72q0 -53 41 -83.5t105 -30.5q66 0 109 33t43 95v32h99v-37z" />
    <glyph glyph-name="Agrave" unicode="&#xc0;" horiz-adv-x="606" 
d="M307 880l60 -116h-86l-84 116h110zM225 700h156l216 -700h-104l-51 170h-278l-51 -170h-104zM189 260h228l-108 354h-12z" />
    <glyph glyph-name="Aacute" unicode="&#xc1;" horiz-adv-x="606" 
d="M296 880h113l-82 -116h-87zM225 700h156l216 -700h-104l-51 170h-278l-51 -170h-104zM189 260h228l-108 354h-12z" />
    <glyph glyph-name="Acircumflex" unicode="&#xc2;" horiz-adv-x="606" 
d="M361 764l-53 65h-11l-52 -65h-98l97 116h117l98 -116h-98zM225 700h156l216 -700h-104l-51 170h-278l-51 -170h-104zM189 260h228l-108 354h-12z" />
    <glyph glyph-name="Atilde" unicode="&#xc3;" horiz-adv-x="606" 
d="M130 801l42 57q31 42 74 42q41 0 74 -42l12 -14.5t9.5 -7.5t14.5 -4q18 0 34 22l28 38l60 -45l-43 -58q-31 -42 -74 -42q-41 0 -74 42q-1 2 -4 5.5t-4 4.5t-3.5 4t-3.5 4t-3.5 3t-4 2.5t-4 1.5t-4.5 1.5t-5 0.5q-18 0 -34 -23l-28 -38zM225 700h156l216 -700h-104
l-51 170h-278l-51 -170h-104zM189 260h228l-108 354h-12z" />
    <glyph glyph-name="Adieresis" unicode="&#xc4;" horiz-adv-x="606" 
d="M133 819q0 31 20.5 51.5t51.5 20.5q32 0 52.5 -20.5t20.5 -51.5t-20.5 -51t-52.5 -20q-31 0 -51.5 20t-20.5 51zM327 819q0 31 21 51.5t52 20.5q32 0 52.5 -20.5t20.5 -51.5t-20.5 -51t-52.5 -20q-31 0 -52 20t-21 51zM225 700h156l216 -700h-104l-51 170h-278l-51 -170
h-104zM189 260h228l-108 354h-12z" />
    <glyph glyph-name="Aring" unicode="&#xc5;" horiz-adv-x="606" 
d="M200 839q0 43 29 71t73 28t73.5 -28t29.5 -71q0 -44 -30 -72t-73 -28t-72.5 28.5t-29.5 71.5zM263 839q0 -17 11 -28t28 -11q18 0 28.5 11t10.5 28t-10.5 28t-28.5 11q-17 0 -28 -11t-11 -28zM225 700h156l216 -700h-104l-51 170h-278l-51 -170h-104zM189 260h228
l-108 354h-12z" />
    <glyph glyph-name="AE" unicode="&#xc6;" horiz-adv-x="556" 
d="M381 92h138v-92h-237v169h-126l-45 -169h-102l192 700h313v-92h-133v-211h108v-92h-108v-213zM282 260v348h-12l-92 -348h104z" />
    <glyph glyph-name="Ccedilla" unicode="&#xc7;" horiz-adv-x="629" 
d="M591 442h-99v21q0 76 -43 119.5t-123 43.5q-86 0 -134.5 -54t-48.5 -143v-158q0 -92 48 -144.5t135 -52.5q166 0 166 162v22h99v-21q0 -112 -63 -178t-180 -72l-9 -47h9q17 21 50 21t55.5 -21.5t22.5 -60.5q0 -42 -28.5 -67t-72.5 -25q-57 0 -87 39l34 48q15 -28 49 -28
q17 0 27.5 9.5t10.5 25.5q0 14 -8 22.5t-22 8.5q-17 0 -26 -13h-80v8l17 81q-115 10 -180.5 85t-65.5 203v148q0 135 76 212.5t206 77.5q127 0 196 -67t69 -185v-20z" />
    <glyph glyph-name="Egrave" unicode="&#xc8;" horiz-adv-x="556" 
d="M301 880l60 -116h-86l-84 116h110zM68 700h447v-89h-348v-214h320v-90h-320v-218h353v-89h-452v700z" />
    <glyph glyph-name="Eacute" unicode="&#xc9;" horiz-adv-x="556" 
d="M291 880h113l-82 -116h-87zM68 700h447v-89h-348v-214h320v-90h-320v-218h353v-89h-452v700z" />
    <glyph glyph-name="Ecircumflex" unicode="&#xca;" horiz-adv-x="556" 
d="M355 764l-53 65h-11l-52 -65h-98l97 116h117l98 -116h-98zM68 700h447v-89h-348v-214h320v-90h-320v-218h353v-89h-452v700z" />
    <glyph glyph-name="Edieresis" unicode="&#xcb;" horiz-adv-x="556" 
d="M128 819q0 31 20.5 51.5t51.5 20.5q32 0 52.5 -20.5t20.5 -51.5t-20.5 -51t-52.5 -20q-31 0 -51.5 20t-20.5 51zM322 819q0 31 21 51.5t52 20.5q32 0 52.5 -20.5t20.5 -51.5t-20.5 -51t-52.5 -20q-31 0 -52 20t-21 51zM68 700h447v-89h-348v-214h320v-90h-320v-218h353
v-89h-452v700z" />
    <glyph glyph-name="Igrave" unicode="&#xcc;" horiz-adv-x="235" 
d="M121 880l60 -116h-86l-84 116h110zM68 700h99v-700h-99v700z" />
    <glyph glyph-name="Iacute" unicode="&#xcd;" horiz-adv-x="235" 
d="M111 880h113l-82 -116h-87zM68 700h99v-700h-99v700z" />
    <glyph glyph-name="Icircumflex" unicode="&#xce;" horiz-adv-x="235" 
d="M176 764l-53 65h-11l-52 -65h-99l98 116h117l98 -116h-98zM68 700h99v-700h-99v700z" />
    <glyph glyph-name="Idieresis" unicode="&#xcf;" horiz-adv-x="235" 
d="M-53 819q0 31 21 51.5t52 20.5q32 0 52.5 -20.5t20.5 -51.5t-20.5 -51t-52.5 -20q-31 0 -52 20t-21 51zM142 819q0 31 21 51.5t52 20.5q32 0 52.5 -20.5t20.5 -51.5t-20.5 -51t-52.5 -20q-31 0 -52 20t-21 51zM68 700h99v-700h-99v700z" />
    <glyph glyph-name="Eth" unicode="&#xd0;" horiz-adv-x="624" 
d="M294 700q285 0 285 -282v-136q0 -282 -285 -282h-226v311h-82v82h82v307h226zM480 277v146q0 98 -44 143t-142 45h-127v-218h139v-82h-139v-222h127q99 0 142.5 45t43.5 143z" />
    <glyph glyph-name="Ntilde" unicode="&#xd1;" horiz-adv-x="652" 
d="M155 801l42 57q31 42 74 42q41 0 74 -42l12 -14.5t9.5 -7.5t14.5 -4q18 0 34 22l28 38l60 -45l-43 -58q-31 -42 -74 -42q-41 0 -74 42q-1 2 -4 5.5t-4 4.5t-3.5 4t-3.5 4t-3.5 3t-4 2.5t-4 1.5t-4.5 1.5t-5 0.5q-18 0 -34 -23l-28 -38zM68 700h174l231 -601h12v601h99
v-700h-174l-231 602h-12v-602h-99v700z" />
    <glyph glyph-name="Ograve" unicode="&#xd2;" horiz-adv-x="646" 
d="M327 880l60 -116h-86l-84 116h110zM44 426q0 136 74.5 212t204.5 76t204.5 -76t74.5 -212v-152q0 -137 -74.5 -212.5t-204.5 -75.5t-204.5 75.5t-74.5 212.5v152zM143 431v-162q0 -91 46.5 -143t133.5 -52q88 0 134 52t46 143v162q0 90 -48 142.5t-132 52.5
q-85 0 -132.5 -53t-47.5 -142z" />
    <glyph glyph-name="Oacute" unicode="&#xd3;" horiz-adv-x="646" 
d="M317 880h113l-82 -116h-87zM44 426q0 136 74.5 212t204.5 76t204.5 -76t74.5 -212v-152q0 -137 -74.5 -212.5t-204.5 -75.5t-204.5 75.5t-74.5 212.5v152zM143 431v-162q0 -91 46.5 -143t133.5 -52q88 0 134 52t46 143v162q0 90 -48 142.5t-132 52.5q-85 0 -132.5 -53
t-47.5 -142z" />
    <glyph glyph-name="Ocircumflex" unicode="&#xd4;" horiz-adv-x="646" 
d="M381 764l-53 65h-11l-52 -65h-98l97 116h117l98 -116h-98zM44 426q0 136 74.5 212t204.5 76t204.5 -76t74.5 -212v-152q0 -137 -74.5 -212.5t-204.5 -75.5t-204.5 75.5t-74.5 212.5v152zM143 431v-162q0 -91 46.5 -143t133.5 -52q88 0 134 52t46 143v162q0 90 -48 142.5
t-132 52.5q-85 0 -132.5 -53t-47.5 -142z" />
    <glyph glyph-name="Otilde" unicode="&#xd5;" horiz-adv-x="646" 
d="M150 801l42 57q31 42 74 42q41 0 74 -42l12 -14.5t9.5 -7.5t14.5 -4q18 0 34 22l28 38l60 -45l-43 -58q-31 -42 -74 -42q-41 0 -74 42q-1 2 -4 5.5t-4 4.5t-3.5 4t-3.5 4t-3.5 3t-4 2.5t-4 1.5t-4.5 1.5t-5 0.5q-18 0 -34 -23l-28 -38zM44 426q0 136 74.5 212t204.5 76
t204.5 -76t74.5 -212v-152q0 -137 -74.5 -212.5t-204.5 -75.5t-204.5 75.5t-74.5 212.5v152zM143 431v-162q0 -91 46.5 -143t133.5 -52q88 0 134 52t46 143v162q0 90 -48 142.5t-132 52.5q-85 0 -132.5 -53t-47.5 -142z" />
    <glyph glyph-name="Odieresis" unicode="&#xd6;" horiz-adv-x="646" 
d="M153 819q0 31 20.5 51.5t51.5 20.5q32 0 52.5 -20.5t20.5 -51.5t-20.5 -51t-52.5 -20q-31 0 -51.5 20t-20.5 51zM347 819q0 31 21 51.5t52 20.5q32 0 52.5 -20.5t20.5 -51.5t-20.5 -51t-52.5 -20q-31 0 -52 20t-21 51zM44 426q0 136 74.5 212t204.5 76t204.5 -76
t74.5 -212v-152q0 -137 -74.5 -212.5t-204.5 -75.5t-204.5 75.5t-74.5 212.5v152zM143 431v-162q0 -91 46.5 -143t133.5 -52q88 0 134 52t46 143v162q0 90 -48 142.5t-132 52.5q-85 0 -132.5 -53t-47.5 -142z" />
    <glyph glyph-name="multiply" unicode="&#xd7;" 
d="M107 492l61 61l142 -142l142 142l61 -61l-142 -142l142 -142l-61 -61l-142 142l-142 -142l-61 61l142 142z" />
    <glyph glyph-name="Oslash" unicode="&#xd8;" horiz-adv-x="646" 
d="M479 676q123 -73 123 -250v-152q0 -137 -74.5 -212.5t-204.5 -75.5q-37 0 -70 6l-27 -80l-83 26l28 83q-127 71 -127 253v152q0 136 74.5 212t204.5 76q35 0 75 -7l23 69l82 -26zM143 269q0 -103 58 -155l169 507q-25 5 -47 5q-85 0 -132.5 -53t-47.5 -142v-162zM503 269
v162q0 97 -56 150l-166 -503q17 -4 42 -4q88 0 134 52t46 143z" />
    <glyph glyph-name="Ugrave" unicode="&#xd9;" horiz-adv-x="654" 
d="M331 880l60 -116h-86l-84 116h110zM64 700h99v-464q0 -78 43 -120t121 -42t121 42t43 120v464h99v-461q0 -121 -70 -187t-193 -66t-193 66t-70 187v461z" />
    <glyph glyph-name="Uacute" unicode="&#xda;" horiz-adv-x="654" 
d="M321 880h113l-82 -116h-87zM64 700h99v-464q0 -78 43 -120t121 -42t121 42t43 120v464h99v-461q0 -121 -70 -187t-193 -66t-193 66t-70 187v461z" />
    <glyph glyph-name="Ucircumflex" unicode="&#xdb;" horiz-adv-x="654" 
d="M385 764l-53 65h-11l-52 -65h-98l97 116h117l98 -116h-98zM64 700h99v-464q0 -78 43 -120t121 -42t121 42t43 120v464h99v-461q0 -121 -70 -187t-193 -66t-193 66t-70 187v461z" />
    <glyph glyph-name="Udieresis" unicode="&#xdc;" horiz-adv-x="654" 
d="M157 819q0 31 20.5 51.5t51.5 20.5q32 0 52.5 -20.5t20.5 -51.5t-20.5 -51t-52.5 -20q-31 0 -51.5 20t-20.5 51zM351 819q0 31 21 51.5t52 20.5q32 0 52.5 -20.5t20.5 -51.5t-20.5 -51t-52.5 -20q-31 0 -52 20t-21 51zM64 700h99v-464q0 -78 43 -120t121 -42t121 42
t43 120v464h99v-461q0 -121 -70 -187t-193 -66t-193 66t-70 187v461z" />
    <glyph glyph-name="Yacute" unicode="&#xdd;" horiz-adv-x="615" 
d="M301 880h113l-82 -116h-87zM8 700h114l178 -323h15l179 323h113l-250 -446v-254h-99v254z" />
    <glyph glyph-name="Thorn" unicode="&#xde;" horiz-adv-x="585" 
d="M68 700h99v-127h175q97 0 159 -58t62 -155t-62.5 -155t-158.5 -58h-175v-147h-99v700zM167 481v-242h165q62 0 97 32t35 89t-35 89t-97 32h-165z" />
    <glyph glyph-name="germandbls" unicode="&#xdf;" horiz-adv-x="612" 
d="M61 0v438q0 128 70.5 202t184.5 74q88 0 145 -46t57 -114q0 -57 -28.5 -93.5t-79.5 -70.5q-23 -15 -23 -31q0 -17 29 -29l25 -10q70 -29 109.5 -67t39.5 -100q0 -74 -51.5 -120.5t-137.5 -46.5q-127 0 -206 116l67 54q22 -39 58.5 -65.5t80.5 -26.5t70 23.5t26 62.5
q0 33 -23.5 54.5t-67.5 40.5l-39 16q-75 30 -75 91q0 31 15.5 51.5t49.5 44.5q68 49 68 104q0 36 -31 59.5t-78 23.5q-65 0 -113 -48t-48 -145v-442h-94z" />
    <glyph glyph-name="agrave" unicode="&#xe0;" horiz-adv-x="559" 
d="M280 700l61 -130h-85l-85 130h109zM46 364q82 141 238 141q98 0 156 -52.5t58 -141.5v-311h-92v77h-14q-54 -91 -175 -91q-83 0 -133.5 40.5t-50.5 107.5q0 66 44 102t120 43l207 21v17q0 49 -33 79.5t-91 30.5q-106 0 -156 -108zM130 135q0 -32 29 -51t77 -19
q76 0 122 41.5t46 110.5v7l-184 -19q-90 -9 -90 -70z" />
    <glyph glyph-name="aacute" unicode="&#xe1;" horiz-adv-x="559" 
d="M273 700h111l-81 -130h-86zM46 364q82 141 238 141q98 0 156 -52.5t58 -141.5v-311h-92v77h-14q-54 -91 -175 -91q-83 0 -133.5 40.5t-50.5 107.5q0 66 44 102t120 43l207 21v17q0 49 -33 79.5t-91 30.5q-106 0 -156 -108zM130 135q0 -32 29 -51t77 -19q76 0 122 41.5
t46 110.5v7l-184 -19q-90 -9 -90 -70z" />
    <glyph glyph-name="acircumflex" unicode="&#xe2;" horiz-adv-x="559" 
d="M337 570l-54 75h-11l-54 -75h-96l97 130h118l97 -130h-97zM46 364q82 141 238 141q98 0 156 -52.5t58 -141.5v-311h-92v77h-14q-54 -91 -175 -91q-83 0 -133.5 40.5t-50.5 107.5q0 66 44 102t120 43l207 21v17q0 49 -33 79.5t-91 30.5q-106 0 -156 -108zM130 135
q0 -32 29 -51t77 -19q76 0 122 41.5t46 110.5v7l-184 -19q-90 -9 -90 -70z" />
    <glyph glyph-name="atilde" unicode="&#xe3;" horiz-adv-x="559" 
d="M100 615l45 61q32 43 78 43q38 0 72 -44q8 -11 12 -15.5t10 -8.5t14 -4q18 0 34 22l32 42l59 -45l-46 -61q-32 -43 -78 -43q-37 0 -71 44q-8 11 -12 15.5t-10.5 8.5t-14.5 4q-17 0 -34 -22l-31 -42zM46 364q82 141 238 141q98 0 156 -52.5t58 -141.5v-311h-92v77h-14
q-54 -91 -175 -91q-83 0 -133.5 40.5t-50.5 107.5q0 66 44 102t120 43l207 21v17q0 49 -33 79.5t-91 30.5q-106 0 -156 -108zM130 135q0 -32 29 -51t77 -19q76 0 122 41.5t46 110.5v7l-184 -19q-90 -9 -90 -70z" />
    <glyph glyph-name="adieresis" unicode="&#xe4;" horiz-adv-x="559" 
d="M111 640q0 31 20.5 51.5t51.5 20.5q32 0 52.5 -20.5t20.5 -51.5t-20.5 -51t-52.5 -20q-31 0 -51.5 20t-20.5 51zM299 640q0 31 21 51.5t52 20.5q32 0 52.5 -20.5t20.5 -51.5t-20.5 -51t-52.5 -20q-31 0 -52 20t-21 51zM46 364q82 141 238 141q98 0 156 -52.5t58 -141.5
v-311h-92v77h-14q-54 -91 -175 -91q-83 0 -133.5 40.5t-50.5 107.5q0 66 44 102t120 43l207 21v17q0 49 -33 79.5t-91 30.5q-106 0 -156 -108zM130 135q0 -32 29 -51t77 -19q76 0 122 41.5t46 110.5v7l-184 -19q-90 -9 -90 -70z" />
    <glyph glyph-name="aring" unicode="&#xe5;" horiz-adv-x="559" 
d="M176 639q0 43 29 71t73 28t73.5 -28t29.5 -71q0 -44 -29.5 -71.5t-73.5 -27.5q-43 0 -72.5 28.5t-29.5 70.5zM239 639q0 -17 11 -28t28 -11q18 0 28.5 11t10.5 28t-10.5 28t-28.5 11q-17 0 -28 -11t-11 -28zM46 364q82 141 238 141q98 0 156 -52.5t58 -141.5v-311h-92v77
h-14q-54 -91 -175 -91q-83 0 -133.5 40.5t-50.5 107.5q0 66 44 102t120 43l207 21v17q0 49 -33 79.5t-91 30.5q-106 0 -156 -108zM130 135q0 -32 29 -51t77 -19q76 0 122 41.5t46 110.5v7l-184 -19q-90 -9 -90 -70z" />
    <glyph glyph-name="ae" unicode="&#xe6;" horiz-adv-x="922" 
d="M33 139q0 61 45 97t119 41l207 16v24q0 49 -33 79.5t-91 30.5q-106 0 -156 -108l-78 45q82 141 236 141q124 0 175 -96h12q31 44 79.5 70t107.5 26q104 0 169 -66.5t65 -177.5v-45h-386q5 -66 46.5 -107t107.5 -41q103 0 143 90l80 -43q-21 -36 -43 -61t-68.5 -46.5
t-106.5 -21.5q-68 0 -121 30.5t-83 83.5h-12q-66 -114 -216 -114q-88 0 -143 42t-55 111zM505 292h288q-4 61 -41.5 96t-99.5 35t-101 -35.5t-46 -95.5zM130 137q0 -33 29 -52.5t79 -19.5q76 0 121 39t45 107v6l-184 -14q-90 -6 -90 -66z" />
    <glyph glyph-name="ccedilla" unicode="&#xe7;" horiz-adv-x="564" 
d="M531 173q-15 -77 -70 -127.5t-141 -58.5l-9 -47h9q17 21 50 21t55.5 -21.5t22.5 -60.5q0 -42 -28.5 -67t-72.5 -25q-57 0 -87 39l34 48q15 -28 49 -28q17 0 27.5 9.5t10.5 25.5q0 14 -8 22.5t-22 8.5q-17 0 -26 -13h-80v8l17 81q-97 10 -161.5 81.5t-64.5 175.5
q0 113 73.5 186.5t181.5 73.5q95 0 158.5 -52t80.5 -135l-92 -23q-8 56 -46.5 91t-99.5 35q-70 0 -115.5 -49.5t-45.5 -126.5t45 -126t116 -49q123 0 147 126z" />
    <glyph glyph-name="egrave" unicode="&#xe8;" horiz-adv-x="551" 
d="M284 700l61 -130h-85l-85 130h109zM36 249q0 111 69.5 183.5t176.5 72.5q106 0 171.5 -66.5t65.5 -177.5v-45h-385q4 -66 45.5 -107t108.5 -41q101 0 143 90l79 -43q-72 -129 -221 -129q-112 0 -182.5 74.5t-70.5 188.5zM134 292h288q-4 61 -41.5 96t-98.5 35
q-63 0 -102 -35.5t-46 -95.5z" />
    <glyph glyph-name="eacute" unicode="&#xe9;" horiz-adv-x="551" 
d="M277 700h111l-81 -130h-86zM36 249q0 111 69.5 183.5t176.5 72.5q106 0 171.5 -66.5t65.5 -177.5v-45h-385q4 -66 45.5 -107t108.5 -41q101 0 143 90l79 -43q-72 -129 -221 -129q-112 0 -182.5 74.5t-70.5 188.5zM134 292h288q-4 61 -41.5 96t-98.5 35q-63 0 -102 -35.5
t-46 -95.5z" />
    <glyph glyph-name="ecircumflex" unicode="&#xea;" horiz-adv-x="551" 
d="M341 570l-54 75h-11l-54 -75h-96l97 130h118l97 -130h-97zM36 249q0 111 69.5 183.5t176.5 72.5q106 0 171.5 -66.5t65.5 -177.5v-45h-385q4 -66 45.5 -107t108.5 -41q101 0 143 90l79 -43q-72 -129 -221 -129q-112 0 -182.5 74.5t-70.5 188.5zM134 292h288
q-4 61 -41.5 96t-98.5 35q-63 0 -102 -35.5t-46 -95.5z" />
    <glyph glyph-name="edieresis" unicode="&#xeb;" horiz-adv-x="551" 
d="M115 640q0 31 20.5 51.5t51.5 20.5q32 0 52.5 -20.5t20.5 -51.5t-20.5 -51t-52.5 -20q-31 0 -51.5 20t-20.5 51zM303 640q0 31 21 51.5t52 20.5q32 0 52.5 -20.5t20.5 -51.5t-20.5 -51t-52.5 -20q-31 0 -52 20t-21 51zM36 249q0 111 69.5 183.5t176.5 72.5
q106 0 171.5 -66.5t65.5 -177.5v-45h-385q4 -66 45.5 -107t108.5 -41q101 0 143 90l79 -43q-72 -129 -221 -129q-112 0 -182.5 74.5t-70.5 188.5zM134 292h288q-4 61 -41.5 96t-98.5 35q-63 0 -102 -35.5t-46 -95.5z" />
    <glyph glyph-name="igrave" unicode="&#xec;" horiz-adv-x="228" 
d="M116 700l61 -130h-85l-85 130h109zM161 491v-491h-94v491h94z" />
    <glyph glyph-name="iacute" unicode="&#xed;" horiz-adv-x="228" 
d="M109 700h111l-81 -130h-86zM161 491v-491h-94v491h94z" />
    <glyph glyph-name="icircumflex" unicode="&#xee;" horiz-adv-x="228" 
d="M173 570l-54 75h-11l-54 -75h-97l98 130h118l97 -130h-97zM161 491v-491h-94v491h94z" />
    <glyph glyph-name="idieresis" unicode="&#xef;" horiz-adv-x="228" 
d="M-54 640q0 31 21 51.5t52 20.5q32 0 52.5 -20.5t20.5 -51.5t-20.5 -51t-52.5 -20q-31 0 -52 20t-21 51zM135 640q0 31 21 51.5t52 20.5q32 0 52.5 -20.5t20.5 -51.5t-20.5 -51t-52.5 -20q-31 0 -52 20t-21 51zM161 491v-491h-94v491h94z" />
    <glyph glyph-name="eth" unicode="&#xf0;" horiz-adv-x="584" 
d="M320 675q224 -112 224 -412q0 -128 -70 -202.5t-184 -74.5q-113 0 -183.5 72t-70.5 187q0 113 67 185.5t166 72.5q97 0 152 -65h12q-33 108 -139 163l-21 -57l-62 20l22 63q-45 15 -101 24l14 78q64 -11 114 -28l20 57l63 -19zM289 72q72 0 116 48t44 125q0 78 -43.5 126
t-116.5 48q-72 0 -115.5 -48.5t-43.5 -125.5q0 -78 43.5 -125.5t115.5 -47.5z" />
    <glyph glyph-name="ntilde" unicode="&#xf1;" horiz-adv-x="594" 
d="M119 615l45 61q32 43 78 43q38 0 72 -44q8 -11 12 -15.5t10 -8.5t14 -4q18 0 34 22l32 42l59 -45l-46 -61q-32 -43 -78 -43q-37 0 -71 44q-8 11 -12 15.5t-10.5 8.5t-14.5 4q-17 0 -34 -22l-31 -42zM67 491h92v-85h14q45 94 167 94q83 0 138 -54t55 -150v-296h-94v287
q0 64 -34 97t-96 33q-69 0 -108.5 -43.5t-39.5 -123.5v-250h-94v491z" />
    <glyph glyph-name="ograve" unicode="&#xf2;" horiz-adv-x="579" 
d="M292 700l61 -130h-85l-85 130h109zM36 245q0 114 71.5 187t181.5 73q111 0 182.5 -73t71.5 -187t-71.5 -186.5t-182.5 -72.5q-110 0 -181.5 72.5t-71.5 186.5zM130 245q0 -79 43.5 -127t115.5 -48t116 48.5t44 126.5q0 79 -44 127.5t-116 48.5q-71 0 -115 -49t-44 -127z
" />
    <glyph glyph-name="oacute" unicode="&#xf3;" horiz-adv-x="579" 
d="M284 700h111l-81 -130h-86zM36 245q0 114 71.5 187t181.5 73q111 0 182.5 -73t71.5 -187t-71.5 -186.5t-182.5 -72.5q-110 0 -181.5 72.5t-71.5 186.5zM130 245q0 -79 43.5 -127t115.5 -48t116 48.5t44 126.5q0 79 -44 127.5t-116 48.5q-71 0 -115 -49t-44 -127z" />
    <glyph glyph-name="ocircumflex" unicode="&#xf4;" horiz-adv-x="579" 
d="M349 570l-54 75h-11l-54 -75h-96l97 130h118l97 -130h-97zM36 245q0 114 71.5 187t181.5 73q111 0 182.5 -73t71.5 -187t-71.5 -186.5t-182.5 -72.5q-110 0 -181.5 72.5t-71.5 186.5zM130 245q0 -79 43.5 -127t115.5 -48t116 48.5t44 126.5q0 79 -44 127.5t-116 48.5
q-71 0 -115 -49t-44 -127z" />
    <glyph glyph-name="otilde" unicode="&#xf5;" horiz-adv-x="579" 
d="M112 615l45 61q32 43 78 43q38 0 72 -44q8 -11 12 -15.5t10 -8.5t14 -4q18 0 34 22l32 42l59 -45l-46 -61q-32 -43 -78 -43q-37 0 -71 44q-8 11 -12 15.5t-10.5 8.5t-14.5 4q-17 0 -34 -22l-31 -42zM36 245q0 114 71.5 187t181.5 73q111 0 182.5 -73t71.5 -187
t-71.5 -186.5t-182.5 -72.5q-110 0 -181.5 72.5t-71.5 186.5zM130 245q0 -79 43.5 -127t115.5 -48t116 48.5t44 126.5q0 79 -44 127.5t-116 48.5q-71 0 -115 -49t-44 -127z" />
    <glyph glyph-name="odieresis" unicode="&#xf6;" horiz-adv-x="579" 
d="M123 640q0 31 20.5 51.5t51.5 20.5q32 0 52.5 -20.5t20.5 -51.5t-20.5 -51t-52.5 -20q-31 0 -51.5 20t-20.5 51zM311 640q0 31 21 51.5t52 20.5q32 0 52.5 -20.5t20.5 -51.5t-20.5 -51t-52.5 -20q-31 0 -52 20t-21 51zM36 245q0 114 71.5 187t181.5 73q111 0 182.5 -73
t71.5 -187t-71.5 -186.5t-182.5 -72.5q-110 0 -181.5 72.5t-71.5 186.5zM130 245q0 -79 43.5 -127t115.5 -48t116 48.5t44 126.5q0 79 -44 127.5t-116 48.5q-71 0 -115 -49t-44 -127z" />
    <glyph glyph-name="divide" unicode="&#xf7;" 
d="M235 524q0 32 21.5 53.5t53.5 21.5q31 0 53 -22t22 -53t-22 -53t-53 -22t-53 22t-22 53zM101 393h418v-86h-418v86zM235 176q0 32 21.5 53.5t53.5 21.5q31 0 53 -22t22 -53q0 -32 -21.5 -53.5t-53.5 -21.5q-31 0 -53 21.5t-22 53.5z" />
    <glyph glyph-name="oslash" unicode="&#xf8;" horiz-adv-x="579" 
d="M419 472q58 -32 91 -91.5t33 -135.5q0 -114 -71.5 -186.5t-182.5 -72.5q-26 0 -46 4l-26 -72l-82 29l26 71q-58 32 -91.5 91.5t-33.5 135.5q0 114 71.5 187t181.5 73q27 0 48 -4l24 67l82 -29zM130 245q0 -95 61 -143l116 318q-6 1 -18 1q-71 0 -115 -49t-44 -127z
M289 70q72 0 116 48.5t44 126.5q0 96 -61 143l-115 -317q5 -1 16 -1z" />
    <glyph glyph-name="ugrave" unicode="&#xf9;" horiz-adv-x="594" 
d="M298 700l61 -130h-85l-85 130h109zM527 0h-92v85h-14q-45 -94 -167 -94q-83 0 -138 54t-55 150v296h94v-287q0 -64 34 -97t96 -33q69 0 108.5 43.5t39.5 123.5v250h94v-491z" />
    <glyph glyph-name="uacute" unicode="&#xfa;" horiz-adv-x="594" 
d="M290 700h111l-81 -130h-86zM527 0h-92v85h-14q-45 -94 -167 -94q-83 0 -138 54t-55 150v296h94v-287q0 -64 34 -97t96 -33q69 0 108.5 43.5t39.5 123.5v250h94v-491z" />
    <glyph glyph-name="ucircumflex" unicode="&#xfb;" horiz-adv-x="594" 
d="M355 570l-54 75h-11l-54 -75h-96l97 130h118l97 -130h-97zM527 0h-92v85h-14q-45 -94 -167 -94q-83 0 -138 54t-55 150v296h94v-287q0 -64 34 -97t96 -33q69 0 108.5 43.5t39.5 123.5v250h94v-491z" />
    <glyph glyph-name="udieresis" unicode="&#xfc;" horiz-adv-x="594" 
d="M129 640q0 31 20.5 51.5t51.5 20.5q32 0 52.5 -20.5t20.5 -51.5t-20.5 -51t-52.5 -20q-31 0 -51.5 20t-20.5 51zM317 640q0 31 21 51.5t52 20.5q32 0 52.5 -20.5t20.5 -51.5t-20.5 -51t-52.5 -20q-31 0 -52 20t-21 51zM527 0h-92v85h-14q-45 -94 -167 -94q-83 0 -138 54
t-55 150v296h94v-287q0 -64 34 -97t96 -33q69 0 108.5 43.5t39.5 123.5v250h94v-491z" />
    <glyph glyph-name="yacute" unicode="&#xfd;" horiz-adv-x="548" 
d="M380 700l-81 -130h-86l56 130h111zM432 491h101l-285 -691h-101l78 180l-210 511h101l152 -383h12z" />
    <glyph glyph-name="thorn" unicode="&#xfe;" horiz-adv-x="612" 
d="M67 -200v900h94v-289h12q54 94 172 94q98 0 164.5 -73t66.5 -187q0 -113 -66.5 -186t-164.5 -73q-118 0 -172 94h-12v-280h-94zM322 70q70 0 114.5 47t44.5 128t-44.5 128.5t-114.5 47.5q-71 0 -116 -48t-45 -128t45 -127.5t116 -47.5z" />
    <glyph glyph-name="ydieresis" unicode="&#xff;" horiz-adv-x="548" 
d="M179 569q-31 0 -51.5 20t-20.5 51t20.5 51.5t51.5 20.5q32 0 52.5 -20.5t20.5 -51.5t-20.5 -51t-52.5 -20zM368 569q-31 0 -52 20t-21 51t21 51.5t52 20.5q32 0 52.5 -20.5t20.5 -51.5t-20.5 -51t-52.5 -20zM432 491h101l-285 -691h-101l78 180l-210 511h101l152 -383h12
z" />
    <glyph glyph-name="Amacron" unicode="&#x100;" horiz-adv-x="606" 
d="M446 842v-78h-285v78h285zM225 700h156l216 -700h-104l-51 170h-278l-51 -170h-104zM189 260h228l-108 354h-12z" />
    <glyph glyph-name="amacron" unicode="&#x101;" horiz-adv-x="559" 
d="M421 647v-77h-285v77h285zM46 364q82 141 238 141q98 0 156 -52.5t58 -141.5v-311h-92v77h-14q-54 -91 -175 -91q-83 0 -133.5 40.5t-50.5 107.5q0 66 44 102t120 43l207 21v17q0 49 -33 79.5t-91 30.5q-106 0 -156 -108zM130 135q0 -32 29 -51t77 -19q76 0 122 41.5
t46 110.5v7l-184 -19q-90 -9 -90 -70z" />
    <glyph glyph-name="Abreve" unicode="&#x102;" horiz-adv-x="606" 
d="M353 880h72v-10q0 -53 -33.5 -83.5t-88.5 -30.5t-88.5 30.5t-33.5 83.5v10h72v-4q0 -22 13 -35.5t37 -13.5t37 13.5t13 35.5v4zM225 700h156l216 -700h-104l-51 170h-278l-51 -170h-104zM189 260h228l-108 354h-12z" />
    <glyph glyph-name="abreve" unicode="&#x103;" horiz-adv-x="559" 
d="M328 700h72v-23q0 -54 -33.5 -85t-88.5 -31t-88.5 31t-33.5 85v23h72v-17q0 -23 13 -37t37 -14t37 14t13 37v17zM46 364q82 141 238 141q98 0 156 -52.5t58 -141.5v-311h-92v77h-14q-54 -91 -175 -91q-83 0 -133.5 40.5t-50.5 107.5q0 66 44 102t120 43l207 21v17
q0 49 -33 79.5t-91 30.5q-106 0 -156 -108zM130 135q0 -32 29 -51t77 -19q76 0 122 41.5t46 110.5v7l-184 -19q-90 -9 -90 -70z" />
    <glyph glyph-name="Aogonek" unicode="&#x104;" horiz-adv-x="606" 
d="M590 -98h44v-68h-64q-32 0 -53 18.5t-21 51.5q0 14 5 37l13 59h-21l-51 170h-278l-51 -170h-104l216 700h156l216 -700h-14l-13 -62q-2 -14 -2 -16q0 -20 22 -20zM189 260h228l-108 354h-12z" />
    <glyph glyph-name="aogonek" unicode="&#x105;" horiz-adv-x="559" 
d="M493 -98h44v-68h-64q-32 0 -53 18.5t-21 51.5q0 14 5 37l13 59h-11v77h-14q-54 -91 -175 -91q-83 0 -133.5 40.5t-50.5 107.5q0 66 44 102t120 43l207 21v17q0 49 -33 79.5t-91 30.5q-106 0 -156 -108l-78 45q82 141 238 141q98 0 156 -52.5t58 -141.5v-311h-12l-13 -62
q-2 -14 -2 -16q0 -20 22 -20zM404 217v7l-184 -19q-90 -9 -90 -70q0 -32 29 -51t77 -19q76 0 122 41.5t46 110.5z" />
    <glyph glyph-name="Cacute" unicode="&#x106;" horiz-adv-x="629" 
d="M318 880h113l-82 -116h-87zM44 424q0 135 76 212.5t206 77.5q127 0 196 -67t69 -185v-20h-99v21q0 76 -43 119.5t-123 43.5q-86 0 -134.5 -54t-48.5 -143v-158q0 -92 48 -144.5t135 -52.5q166 0 166 162v22h99v-21q0 -118 -69 -184.5t-196 -66.5q-130 0 -206 76t-76 214
v148z" />
    <glyph glyph-name="cacute" unicode="&#x107;" horiz-adv-x="564" 
d="M288 700h111l-81 -130h-86zM36 245q0 113 73.5 186.5t181.5 73.5q95 0 158.5 -52t80.5 -135l-92 -23q-8 56 -46.5 91t-99.5 35q-70 0 -115.5 -49.5t-45.5 -126.5t45 -126t116 -49q123 0 147 126l92 -23q-16 -84 -79.5 -135.5t-160.5 -51.5q-108 0 -181.5 73t-73.5 186z
" />
    <glyph glyph-name="Cdotaccent" unicode="&#x10a;" horiz-adv-x="629" 
d="M252 819q0 31 20.5 51.5t51.5 20.5q32 0 52.5 -20.5t20.5 -51.5t-20.5 -51t-52.5 -20q-31 0 -51.5 20t-20.5 51zM44 424q0 135 76 212.5t206 77.5q127 0 196 -67t69 -185v-20h-99v21q0 76 -43 119.5t-123 43.5q-86 0 -134.5 -54t-48.5 -143v-158q0 -92 48 -144.5
t135 -52.5q166 0 166 162v22h99v-21q0 -118 -69 -184.5t-196 -66.5q-130 0 -206 76t-76 214v148z" />
    <glyph glyph-name="cdotaccent" unicode="&#x10b;" horiz-adv-x="564" 
d="M221 640q0 31 20.5 51.5t51.5 20.5q32 0 52.5 -20.5t20.5 -51.5t-20.5 -51t-52.5 -20q-31 0 -51.5 20t-20.5 51zM36 245q0 113 73.5 186.5t181.5 73.5q95 0 158.5 -52t80.5 -135l-92 -23q-8 56 -46.5 91t-99.5 35q-70 0 -115.5 -49.5t-45.5 -126.5t45 -126t116 -49
q123 0 147 126l92 -23q-16 -84 -79.5 -135.5t-160.5 -51.5q-108 0 -181.5 73t-73.5 186z" />
    <glyph glyph-name="Ccaron" unicode="&#x10c;" horiz-adv-x="629" 
d="M383 882h98l-98 -115h-117l-97 115h98l52 -65h11zM44 424q0 135 76 212.5t206 77.5q127 0 196 -67t69 -185v-20h-99v21q0 76 -43 119.5t-123 43.5q-86 0 -134.5 -54t-48.5 -143v-158q0 -92 48 -144.5t135 -52.5q166 0 166 162v22h99v-21q0 -118 -69 -184.5t-196 -66.5
q-130 0 -206 76t-76 214v148z" />
    <glyph glyph-name="ccaron" unicode="&#x10d;" horiz-adv-x="564" 
d="M352 700h97l-97 -130h-118l-97 130h96l54 -75h11zM36 245q0 113 73.5 186.5t181.5 73.5q95 0 158.5 -52t80.5 -135l-92 -23q-8 56 -46.5 91t-99.5 35q-70 0 -115.5 -49.5t-45.5 -126.5t45 -126t116 -49q123 0 147 126l92 -23q-16 -84 -79.5 -135.5t-160.5 -51.5
q-108 0 -181.5 73t-73.5 186z" />
    <glyph glyph-name="Dcaron" unicode="&#x10e;" horiz-adv-x="624" 
d="M358 882h98l-98 -115h-117l-97 115h98l52 -65h11zM68 700h226q285 0 285 -282v-136q0 -282 -285 -282h-226v700zM167 611v-522h127q99 0 142.5 45t43.5 143v146q0 98 -44 143t-142 45h-127z" />
    <glyph glyph-name="dcaron" unicode="&#x10f;" horiz-adv-x="685" 
d="M545 700v-700h-92v80h-14q-54 -94 -172 -94q-97 0 -164 73.5t-67 186.5t66.5 186t164.5 73q119 0 172 -93h12v288h94zM612 700h98l-52 -179h-57zM290 421q-70 0 -114.5 -47t-44.5 -128t44.5 -128.5t114.5 -47.5q71 0 116 48t45 128t-45 127.5t-116 47.5z" />
    <glyph glyph-name="Dcroat" unicode="&#x110;" horiz-adv-x="624" 
d="M294 700q285 0 285 -282v-136q0 -282 -285 -282h-226v311h-82v82h82v307h226zM480 277v146q0 98 -44 143t-142 45h-127v-218h139v-82h-139v-222h127q99 0 142.5 45t43.5 143z" />
    <glyph glyph-name="dcroat" unicode="&#x111;" horiz-adv-x="612" 
d="M613 630v-66h-68v-564h-92v80h-14q-54 -94 -172 -94q-97 0 -164 73.5t-67 186.5t66.5 186t164.5 73q119 0 172 -93h12v152h-125v66h125v70h94v-70h68zM290 70q71 0 116 48t45 128t-45 127.5t-116 47.5q-70 0 -114.5 -47t-44.5 -128t44.5 -128.5t114.5 -47.5z" />
    <glyph glyph-name="Emacron" unicode="&#x112;" horiz-adv-x="556" 
d="M440 842v-78h-285v78h285zM68 700h447v-89h-348v-214h320v-90h-320v-218h353v-89h-452v700z" />
    <glyph glyph-name="emacron" unicode="&#x113;" horiz-adv-x="551" 
d="M425 647v-77h-285v77h285zM36 249q0 111 69.5 183.5t176.5 72.5q106 0 171.5 -66.5t65.5 -177.5v-45h-385q4 -66 45.5 -107t108.5 -41q101 0 143 90l79 -43q-72 -129 -221 -129q-112 0 -182.5 74.5t-70.5 188.5zM134 292h288q-4 61 -41.5 96t-98.5 35q-63 0 -102 -35.5
t-46 -95.5z" />
    <glyph glyph-name="Edotaccent" unicode="&#x116;" horiz-adv-x="556" 
d="M225 819q0 31 20.5 51.5t51.5 20.5q32 0 52.5 -20.5t20.5 -51.5t-20.5 -51t-52.5 -20q-31 0 -51.5 20t-20.5 51zM68 700h447v-89h-348v-214h320v-90h-320v-218h353v-89h-452v700z" />
    <glyph glyph-name="edotaccent" unicode="&#x117;" horiz-adv-x="551" 
d="M210 640q0 31 20.5 51.5t51.5 20.5q32 0 52.5 -20.5t20.5 -51.5t-20.5 -51t-52.5 -20q-31 0 -51.5 20t-20.5 51zM36 249q0 111 69.5 183.5t176.5 72.5q106 0 171.5 -66.5t65.5 -177.5v-45h-385q4 -66 45.5 -107t108.5 -41q101 0 143 90l79 -43q-72 -129 -221 -129
q-112 0 -182.5 74.5t-70.5 188.5zM134 292h288q-4 61 -41.5 96t-98.5 35q-63 0 -102 -35.5t-46 -95.5z" />
    <glyph glyph-name="Eogonek" unicode="&#x118;" horiz-adv-x="556" 
d="M337 0l-13 -62q-2 -14 -2 -16q0 -20 22 -20h44v-68h-64q-32 0 -53 18.5t-21 51.5q0 14 5 37l13 59h-200v700h447v-89h-348v-214h320v-90h-320v-218h353v-89h-183z" />
    <glyph glyph-name="eogonek" unicode="&#x119;" horiz-adv-x="551" 
d="M519 261v-45h-385q4 -66 45.5 -107t108.5 -41q101 0 143 90l79 -43q-66 -118 -194 -128l-11 -49q-2 -14 -2 -16q0 -20 22 -20h44v-68h-64q-32 0 -53 18.5t-21 51.5q0 14 5 37l10 48q-94 14 -152 86t-58 174q0 111 69.5 183.5t176.5 72.5q106 0 171.5 -66.5t65.5 -177.5z
M134 292h288q-4 61 -41.5 96t-98.5 35q-63 0 -102 -35.5t-46 -95.5z" />
    <glyph glyph-name="Ecaron" unicode="&#x11a;" horiz-adv-x="556" 
d="M355 882h98l-98 -115h-117l-97 115h98l52 -65h11zM68 700h447v-89h-348v-214h320v-90h-320v-218h353v-89h-452v700z" />
    <glyph glyph-name="ecaron" unicode="&#x11b;" horiz-adv-x="551" 
d="M341 700h97l-97 -130h-118l-97 130h96l54 -75h11zM36 249q0 111 69.5 183.5t176.5 72.5q106 0 171.5 -66.5t65.5 -177.5v-45h-385q4 -66 45.5 -107t108.5 -41q101 0 143 90l79 -43q-72 -129 -221 -129q-112 0 -182.5 74.5t-70.5 188.5zM134 292h288q-4 61 -41.5 96
t-98.5 35q-63 0 -102 -35.5t-46 -95.5z" />
    <glyph glyph-name="Gbreve" unicode="&#x11e;" horiz-adv-x="635" 
d="M373 880h72v-10q0 -53 -33.5 -83.5t-88.5 -30.5t-88.5 30.5t-33.5 83.5v10h72v-4q0 -22 13 -35.5t37 -13.5t37 13.5t13 35.5v4zM44 275v149q0 135 76 212.5t206 77.5q127 0 195.5 -67.5t68.5 -188.5v-8h-98v9q0 78 -43 122.5t-123 44.5q-86 0 -134.5 -54t-48.5 -143v-158
q0 -92 47.5 -144.5t134.5 -52.5q167 0 167 162v21h-197v87h295v-104q0 -121 -69 -187.5t-196 -66.5q-130 0 -205.5 75.5t-75.5 213.5z" />
    <glyph glyph-name="gbreve" unicode="&#x11f;" horiz-adv-x="612" 
d="M309 566q-55 0 -88.5 31t-33.5 85v23h72v-17q0 -23 13 -37t37 -14t37 14t13 37v17h72v-23q0 -54 -33.5 -85t-88.5 -31zM453 491h92v-471q0 -104 -67 -169t-179 -65q-168 0 -254 138l81 48q23 -46 65.5 -75t102.5 -29q71 0 114 40t43 117v67h-12q-53 -93 -172 -93
q-98 0 -164.5 71t-66.5 182t66.5 182t164.5 71q118 0 172 -94h14v80zM290 83q71 0 116 46t45 123t-45 123t-116 46t-115 -45t-44 -124t44 -124t115 -45z" />
    <glyph glyph-name="Gdotaccent" unicode="&#x120;" horiz-adv-x="635" 
d="M250 819q0 31 20.5 51.5t51.5 20.5q32 0 52.5 -20.5t20.5 -51.5t-20.5 -51t-52.5 -20q-31 0 -51.5 20t-20.5 51zM44 275v149q0 135 76 212.5t206 77.5q127 0 195.5 -67.5t68.5 -188.5v-8h-98v9q0 78 -43 122.5t-123 44.5q-86 0 -134.5 -54t-48.5 -143v-158
q0 -92 47.5 -144.5t134.5 -52.5q167 0 167 162v21h-197v87h295v-104q0 -121 -69 -187.5t-196 -66.5q-130 0 -205.5 75.5t-75.5 213.5z" />
    <glyph glyph-name="gdotaccent" unicode="&#x121;" horiz-adv-x="612" 
d="M308 574q-31 0 -51.5 20t-20.5 51t20.5 51.5t51.5 20.5q32 0 52.5 -20.5t20.5 -51.5t-20.5 -51t-52.5 -20zM453 491h92v-471q0 -104 -67 -169t-179 -65q-168 0 -254 138l81 48q23 -46 65.5 -75t102.5 -29q71 0 114 40t43 117v67h-12q-53 -93 -172 -93q-98 0 -164.5 71
t-66.5 182t66.5 182t164.5 71q118 0 172 -94h14v80zM290 83q71 0 116 46t45 123t-45 123t-116 46t-115 -45t-44 -124t44 -124t115 -45z" />
    <glyph glyph-name="uni0122" unicode="&#x122;" horiz-adv-x="635" 
d="M44 275v149q0 135 76 212.5t206 77.5q127 0 195.5 -67.5t68.5 -188.5v-8h-98v9q0 78 -43 122.5t-123 44.5q-86 0 -134.5 -54t-48.5 -143v-158q0 -92 47.5 -144.5t134.5 -52.5q167 0 167 162v21h-197v87h295v-104q0 -121 -69 -187.5t-196 -66.5q-130 0 -205.5 75.5
t-75.5 213.5zM246 -129q0 35 22 57t56 22q33 0 55.5 -22t22.5 -55v-100q0 -36 -22.5 -57.5t-58.5 -21.5h-71v54h62q28 0 28 27v24q-8 -2 -18 -2q-32 0 -54 21t-22 53z" />
    <glyph glyph-name="uni0123" unicode="&#x123;" horiz-adv-x="612" 
d="M309 567q-34 0 -56 22t-22 56v99q0 36 22.5 58t57.5 22h71v-55h-61q-29 0 -29 -27v-23q8 2 19 2q32 0 54 -21.5t22 -53.5q0 -34 -22.5 -56.5t-55.5 -22.5zM453 491h92v-471q0 -104 -67 -169t-179 -65q-168 0 -254 138l81 48q23 -46 65.5 -75t102.5 -29q71 0 114 40
t43 117v67h-12q-53 -93 -172 -93q-98 0 -164.5 71t-66.5 182t66.5 182t164.5 71q118 0 172 -94h14v80zM290 83q71 0 116 46t45 123t-45 123t-116 46t-115 -45t-44 -124t44 -124t115 -45z" />
    <glyph glyph-name="Hbar" unicode="&#x126;" horiz-adv-x="642" 
d="M633 589v-82h-59v-507h-99v306h-308v-306h-99v507h-58v82h58v111h99v-111h308v111h99v-111h59zM475 396v111h-308v-111h308z" />
    <glyph glyph-name="hbar" unicode="&#x127;" horiz-adv-x="594" 
d="M340 500q83 0 138 -54t55 -150v-296h-94v287q0 64 -34 97t-96 33q-69 0 -108.5 -43.5t-39.5 -123.5v-250h-94v564h-68v66h68v70h94v-70h126v-66h-126v-158h12q45 94 167 94z" />
    <glyph glyph-name="Imacron" unicode="&#x12a;" horiz-adv-x="235" 
d="M260 842v-78h-286v78h286zM68 700h99v-700h-99v700z" />
    <glyph glyph-name="imacron" unicode="&#x12b;" horiz-adv-x="228" 
d="M257 647v-77h-286v77h286zM161 491v-491h-94v491h94z" />
    <glyph glyph-name="Iogonek" unicode="&#x12e;" horiz-adv-x="235" 
d="M158 -98h44v-68h-64q-32 0 -53 18.5t-21 51.5q0 14 5 37l13 59h-14v700h99v-700h-16l-13 -62q-2 -14 -2 -16q0 -20 22 -20z" />
    <glyph glyph-name="iogonek" unicode="&#x12f;" horiz-adv-x="228" 
d="M114 569q-31 0 -51.5 20t-20.5 51t20.5 51.5t51.5 20.5q32 0 52.5 -20.5t20.5 -51.5t-20.5 -51t-52.5 -20zM155 -98h44v-68h-64q-32 0 -53 18.5t-21 51.5q0 14 5 37l13 59h-12v491h94v-491h-13l-13 -62q-2 -14 -2 -16q0 -20 22 -20z" />
    <glyph glyph-name="Idotaccent" unicode="&#x130;" horiz-adv-x="235" 
d="M45 819q0 31 20.5 51.5t51.5 20.5q32 0 52.5 -20.5t20.5 -51.5t-20.5 -51t-52.5 -20q-31 0 -51.5 20t-20.5 51zM68 700h99v-700h-99v700z" />
    <glyph glyph-name="dotlessi" unicode="&#x131;" horiz-adv-x="228" 
d="M161 491v-491h-94v491h94z" />
    <glyph glyph-name="IJ" unicode="&#x132;" horiz-adv-x="571" 
d="M64 700h99v-344h-99v344zM408 700h98v-490q0 -109 -55.5 -166.5t-159.5 -57.5q-106 0 -166.5 58.5t-60.5 165.5v28h99v-28q0 -61 32.5 -96.5t94.5 -35.5q118 0 118 132v490z" />
    <glyph glyph-name="ij" unicode="&#x133;" horiz-adv-x="462" 
d="M42 640q0 31 20.5 51.5t51.5 20.5q32 0 52.5 -20.5t20.5 -51.5t-20.5 -51t-52.5 -20q-31 0 -51.5 20t-20.5 51zM275 640q0 31 20.5 51.5t52.5 20.5q31 0 51.5 -20.5t20.5 -51.5t-20.5 -51t-51.5 -20q-32 0 -52.5 20t-20.5 51zM161 491v-491h-94v491h94zM394 491v-608
q0 -37 -23 -60t-60 -23h-131v80h93q28 0 28 30v581h93z" />
    <glyph glyph-name="uni0136" unicode="&#x136;" horiz-adv-x="635" 
d="M641 700l-303 -286l296 -414h-122l-244 348l-101 -96v-252h-99v700h99v-315h12l328 315h134zM326 -50q33 0 55.5 -22t22.5 -55v-100q0 -36 -22.5 -57.5t-58.5 -21.5h-71v54h62q28 0 28 27v24q-8 -2 -18 -2q-32 0 -54 21t-22 53q0 35 22 57t56 22z" />
    <glyph glyph-name="uni0137" unicode="&#x137;" horiz-adv-x="560" 
d="M548 491l-224 -191l218 -300h-110l-175 243l-96 -81v-162h-94v700h94v-417h12l241 208h134zM297 -50q33 0 55.5 -22t22.5 -55v-100q0 -36 -22.5 -57.5t-58.5 -21.5h-71v54h62q28 0 28 27v24q-8 -2 -18 -2q-32 0 -54 21t-22 53q0 35 22 57t56 22z" />
    <glyph glyph-name="Lacute" unicode="&#x139;" horiz-adv-x="532" 
d="M111 880h113l-82 -116h-87zM68 700h99v-611h349v-89h-448v700z" />
    <glyph glyph-name="lacute" unicode="&#x13a;" horiz-adv-x="228" 
d="M107 880h113l-82 -116h-87zM161 700v-700h-94v700h94z" />
    <glyph glyph-name="uni013B" unicode="&#x13b;" horiz-adv-x="532" 
d="M68 700h99v-611h349v-89h-448v700zM220 -129q0 35 22 57t56 22q33 0 55.5 -22t22.5 -55v-100q0 -36 -22.5 -57.5t-58.5 -21.5h-71v54h62q28 0 28 27v24q-8 -2 -18 -2q-32 0 -54 21t-22 53z" />
    <glyph glyph-name="uni013C" unicode="&#x13c;" horiz-adv-x="228" 
d="M161 700v-700h-94v700h94zM36 -129q0 35 22 57t56 22q33 0 55.5 -22t22.5 -55v-100q0 -36 -22.5 -57.5t-58.5 -21.5h-71v54h62q28 0 28 27v24q-8 -2 -18 -2q-32 0 -54 21t-22 53z" />
    <glyph glyph-name="Lcaron" unicode="&#x13d;" horiz-adv-x="532" 
d="M68 700h99v-611h349v-89h-448v700zM239 700h99l-52 -179h-58z" />
    <glyph glyph-name="lcaron" unicode="&#x13e;" horiz-adv-x="300" 
d="M161 700v-700h-94v700h94zM226 700h99l-52 -179h-57z" />
    <glyph glyph-name="Ldot" unicode="&#x13f;" horiz-adv-x="532" 
d="M68 700h99v-611h349v-89h-448v700zM307 350q0 34 22 56t56 22t56 -22t22 -56t-22 -56t-56 -22t-56 22t-22 56z" />
    <glyph glyph-name="ldot" unicode="&#x140;" horiz-adv-x="388" 
d="M161 700v-700h-94v700h94zM232 262q0 34 22.5 56t55.5 22q34 0 56 -22t22 -56t-22 -56t-56 -22q-33 0 -55.5 22t-22.5 56z" />
    <glyph glyph-name="Lslash" unicode="&#x141;" 
d="M115 700h99v-287l59 29l40 -80l-99 -50v-218h338v-94h-437v261l-54 -27l-41 81l95 47v338z" />
    <glyph glyph-name="lslash" unicode="&#x142;" horiz-adv-x="324" 
d="M307 360l-98 -45v-315h-94v271l-66 -30l-32 65l98 45v349h94v-305l66 30z" />
    <glyph glyph-name="Nacute" unicode="&#x143;" horiz-adv-x="652" 
d="M321 880h113l-82 -116h-87zM68 700h174l231 -601h12v601h99v-700h-174l-231 602h-12v-602h-99v700z" />
    <glyph glyph-name="nacute" unicode="&#x144;" horiz-adv-x="594" 
d="M291 700h111l-81 -130h-86zM67 491h92v-85h14q45 94 167 94q83 0 138 -54t55 -150v-296h-94v287q0 64 -34 97t-96 33q-69 0 -108.5 -43.5t-39.5 -123.5v-250h-94v491z" />
    <glyph glyph-name="uni0145" unicode="&#x145;" horiz-adv-x="652" 
d="M68 700h174l231 -601h12v601h99v-700h-174l-231 602h-12v-602h-99v700zM251 -129q0 35 22 57t56 22q33 0 55.5 -22t22.5 -55v-100q0 -36 -22.5 -57.5t-58.5 -21.5h-71v54h62q28 0 28 27v24q-8 -2 -18 -2q-32 0 -54 21t-22 53z" />
    <glyph glyph-name="uni0146" unicode="&#x146;" horiz-adv-x="594" 
d="M67 491h92v-85h14q45 94 167 94q83 0 138 -54t55 -150v-296h-94v287q0 64 -34 97t-96 33q-69 0 -108.5 -43.5t-39.5 -123.5v-250h-94v491zM223 -129q0 35 22 57t56 22q33 0 55.5 -22t22.5 -55v-100q0 -36 -22.5 -57.5t-58.5 -21.5h-71v54h62q28 0 28 27v24q-8 -2 -18 -2
q-32 0 -54 21t-22 53z" />
    <glyph glyph-name="Ncaron" unicode="&#x147;" horiz-adv-x="652" 
d="M386 882h98l-98 -115h-117l-97 115h98l52 -65h11zM68 700h174l231 -601h12v601h99v-700h-174l-231 602h-12v-602h-99v700z" />
    <glyph glyph-name="ncaron" unicode="&#x148;" horiz-adv-x="594" 
d="M356 700h97l-97 -130h-118l-97 130h96l54 -75h11zM67 491h92v-85h14q45 94 167 94q83 0 138 -54t55 -150v-296h-94v287q0 64 -34 97t-96 33q-69 0 -108.5 -43.5t-39.5 -123.5v-250h-94v491z" />
    <glyph glyph-name="Eng" unicode="&#x14a;" horiz-adv-x="652" 
d="M485 700h99v-786q0 -114 -112 -114h-167v84h135q45 0 45 47v69h-75l-231 602h-12v-602h-99v700h174l231 -601h12v601z" />
    <glyph glyph-name="eng" unicode="&#x14b;" horiz-adv-x="594" 
d="M340 505q87 0 140 -53t53 -153v-416q0 -37 -23 -60t-61 -23h-131v80h93q28 0 28 30v376q0 135 -130 135q-71 0 -109.5 -44t-38.5 -123v-254h-94v491h92v-83h12q44 97 169 97z" />
    <glyph glyph-name="Omacron" unicode="&#x14c;" horiz-adv-x="646" 
d="M466 842v-78h-285v78h285zM44 426q0 136 74.5 212t204.5 76t204.5 -76t74.5 -212v-152q0 -137 -74.5 -212.5t-204.5 -75.5t-204.5 75.5t-74.5 212.5v152zM143 431v-162q0 -91 46.5 -143t133.5 -52q88 0 134 52t46 143v162q0 90 -48 142.5t-132 52.5q-85 0 -132.5 -53
t-47.5 -142z" />
    <glyph glyph-name="omacron" unicode="&#x14d;" horiz-adv-x="579" 
d="M432 647v-77h-285v77h285zM36 245q0 114 71.5 187t181.5 73q111 0 182.5 -73t71.5 -187t-71.5 -186.5t-182.5 -72.5q-110 0 -181.5 72.5t-71.5 186.5zM130 245q0 -79 43.5 -127t115.5 -48t116 48.5t44 126.5q0 79 -44 127.5t-116 48.5q-71 0 -115 -49t-44 -127z" />
    <glyph glyph-name="Ohungarumlaut" unicode="&#x150;" horiz-adv-x="646" 
d="M252 880h108l-84 -116h-84zM394 880h108l-84 -116h-84zM44 426q0 136 74.5 212t204.5 76t204.5 -76t74.5 -212v-152q0 -137 -74.5 -212.5t-204.5 -75.5t-204.5 75.5t-74.5 212.5v152zM143 431v-162q0 -91 46.5 -143t133.5 -52q88 0 134 52t46 143v162q0 90 -48 142.5
t-132 52.5q-85 0 -132.5 -53t-47.5 -142z" />
    <glyph glyph-name="ohungarumlaut" unicode="&#x151;" horiz-adv-x="579" 
d="M218 700h107l-85 -130h-83zM361 700h107l-85 -130h-84zM36 245q0 114 71.5 187t181.5 73q111 0 182.5 -73t71.5 -187t-71.5 -186.5t-182.5 -72.5q-110 0 -181.5 72.5t-71.5 186.5zM130 245q0 -79 43.5 -127t115.5 -48t116 48.5t44 126.5q0 79 -44 127.5t-116 48.5
q-71 0 -115 -49t-44 -127z" />
    <glyph glyph-name="OE" unicode="&#x152;" horiz-adv-x="561" 
d="M387 89h138v-89h-237q-115 0 -179.5 73.5t-64.5 212.5v128q0 137 64.5 211.5t179.5 74.5h232v-89h-133v-215h108v-90h-108v-217zM288 87v526q-72 0 -108.5 -51t-36.5 -140v-144q0 -191 145 -191z" />
    <glyph glyph-name="oe" unicode="&#x153;" horiz-adv-x="972" 
d="M36 245q0 114 71 187t180 73q145 0 205 -119h12q29 57 81.5 88t120.5 31q104 0 169 -66.5t65 -177.5v-45h-385q4 -66 45.5 -107t108.5 -41q101 0 143 90l80 -43q-74 -129 -220 -129q-67 0 -121 31.5t-86 89.5h-12q-61 -121 -206 -121q-109 0 -180 72.5t-71 186.5z
M556 292h287q-4 61 -41.5 96t-98.5 35q-62 0 -101 -35.5t-46 -95.5zM130 245q0 -79 43.5 -127t115.5 -48t116 48.5t44 126.5q0 79 -44 127.5t-116 48.5q-71 0 -115 -49t-44 -127z" />
    <glyph glyph-name="Racute" unicode="&#x154;" horiz-adv-x="615" 
d="M411 880l-82 -116h-87l56 116h113zM583 489q0 -81 -45 -135t-120 -69l152 -285h-109l-144 279h-150v-279h-99v699h294q98 0 159.5 -57t61.5 -153zM167 610v-242h185q61 0 96.5 32.5t35.5 88.5q0 57 -35 89t-97 32h-185z" />
    <glyph glyph-name="racute" unicode="&#x155;" horiz-adv-x="368" 
d="M201 700h111l-81 -130h-86zM159 491v-67h14q26 69 123 69h57v-83h-77q-54 0 -84.5 -29t-30.5 -87v-294h-94v491h92z" />
    <glyph glyph-name="uni0156" unicode="&#x156;" horiz-adv-x="615" 
d="M583 489q0 -81 -45 -135t-120 -69l152 -285h-109l-144 279h-150v-279h-99v699h294q98 0 159.5 -57t61.5 -153zM167 610v-242h185q61 0 96.5 32.5t35.5 88.5q0 57 -35 89t-97 32h-185zM310 -50q33 0 55.5 -22t22.5 -55v-100q0 -36 -22.5 -57.5t-58.5 -21.5h-71v54h62
q28 0 28 27v24q-8 -2 -18 -2q-32 0 -54 21t-22 53q0 35 22 57t56 22z" />
    <glyph glyph-name="uni0157" unicode="&#x157;" horiz-adv-x="368" 
d="M159 491v-67h14q26 69 123 69h57v-83h-77q-54 0 -84.5 -29t-30.5 -87v-294h-94v491h92zM37 -129q0 35 22 57t56 22q33 0 55.5 -22t22.5 -55v-100q0 -36 -22.5 -57.5t-58.5 -21.5h-71v54h62q28 0 28 27v24q-8 -2 -18 -2q-32 0 -54 21t-22 53z" />
    <glyph glyph-name="Rcaron" unicode="&#x158;" horiz-adv-x="615" 
d="M362 767h-117l-97 115h98l52 -65h11l53 65h98zM583 489q0 -81 -45 -135t-120 -69l152 -285h-109l-144 279h-150v-279h-99v699h294q98 0 159.5 -57t61.5 -153zM167 610v-242h185q61 0 96.5 32.5t35.5 88.5q0 57 -35 89t-97 32h-185z" />
    <glyph glyph-name="rcaron" unicode="&#x159;" horiz-adv-x="368" 
d="M265 700h97l-97 -130h-118l-97 130h96l54 -75h11zM159 491v-67h14q26 69 123 69h57v-83h-77q-54 0 -84.5 -29t-30.5 -87v-294h-94v491h92z" />
    <glyph glyph-name="Sacute" unicode="&#x15a;" horiz-adv-x="608" 
d="M295 880h113l-82 -116h-87zM303 714q112 0 183 -57.5t71 -157.5v-37h-97v30q0 67 -43.5 101t-113.5 34q-61 0 -100 -29t-39 -76q0 -52 35.5 -74.5t115.5 -41.5l35 -8q106 -24 159.5 -70t53.5 -131q0 -98 -70 -154.5t-181 -56.5q-129 0 -202 67t-73 190v24h98v-20
q0 -84 46.5 -129t132.5 -45q72 0 111.5 34t39.5 86q0 49 -37 75t-114 43l-35 9q-107 24 -160 69t-53 131t67.5 140t169.5 54z" />
    <glyph glyph-name="sacute" unicode="&#x15b;" horiz-adv-x="520" 
d="M241 700h111l-81 -130h-86zM52 360q0 66 51 105.5t133 39.5q149 0 245 -115l-65 -55q-73 93 -176 93q-45 0 -71 -17t-26 -47q0 -29 24 -44.5t71 -23.5l59 -10q88 -14 136.5 -47t48.5 -99q0 -70 -56.5 -112t-143.5 -42q-88 0 -156.5 39t-107.5 109l76 44q57 -115 186 -115
q51 0 81 19.5t30 51.5q0 54 -102 70l-59 10q-87 15 -132.5 49.5t-45.5 96.5z" />
    <glyph glyph-name="Scedilla" unicode="&#x15e;" horiz-adv-x="608" 
d="M563 197q0 -91 -61.5 -146.5t-161.5 -63.5l-9 -47h9q17 21 50 21t55.5 -21.5t22.5 -60.5q0 -42 -28.5 -67t-72.5 -25q-57 0 -87 39l34 48q15 -28 49 -28q17 0 27.5 9.5t10.5 25.5q0 14 -8 22.5t-22 8.5q-17 0 -26 -13h-80v8l17 80q-116 8 -180.5 74.5t-64.5 181.5v24h98
v-20q0 -84 46.5 -129t132.5 -45q72 0 111.5 34t39.5 86q0 49 -37 75t-114 43l-35 9q-107 24 -160 69t-53 131t67.5 140t169.5 54q112 0 183 -57.5t71 -157.5v-37h-97v30q0 67 -43.5 101t-113.5 34q-61 0 -100 -29t-39 -76q0 -52 35.5 -74.5t115.5 -41.5l35 -8
q106 -24 159.5 -70t53.5 -131z" />
    <glyph glyph-name="scedilla" unicode="&#x15f;" horiz-adv-x="520" 
d="M482 140q0 -70 -56 -112t-143 -42l-9 -46h9q17 21 50 21t55.5 -21.5t22.5 -60.5q0 -42 -28.5 -67t-72.5 -25q-57 0 -87 39l34 48q15 -28 49 -28q17 0 27.5 9.5t10.5 25.5q0 14 -8 22.5t-22 8.5q-17 0 -26 -13h-80v8l17 83q-140 23 -207 144l76 44q57 -115 186 -115
q51 0 81 19.5t30 51.5q0 54 -102 70l-59 10q-87 15 -132.5 49.5t-45.5 96.5q0 66 51 105.5t133 39.5q149 0 245 -115l-65 -55q-73 93 -176 93q-45 0 -71 -17t-26 -47q0 -29 24 -44.5t71 -23.5l59 -10q88 -14 136.5 -47t48.5 -99z" />
    <glyph glyph-name="Scaron" unicode="&#x160;" horiz-adv-x="608" 
d="M360 882h98l-98 -115h-117l-97 115h98l52 -65h11zM303 714q112 0 183 -57.5t71 -157.5v-37h-97v30q0 67 -43.5 101t-113.5 34q-61 0 -100 -29t-39 -76q0 -52 35.5 -74.5t115.5 -41.5l35 -8q106 -24 159.5 -70t53.5 -131q0 -98 -70 -154.5t-181 -56.5q-129 0 -202 67
t-73 190v24h98v-20q0 -84 46.5 -129t132.5 -45q72 0 111.5 34t39.5 86q0 49 -37 75t-114 43l-35 9q-107 24 -160 69t-53 131t67.5 140t169.5 54z" />
    <glyph glyph-name="scaron" unicode="&#x161;" horiz-adv-x="520" 
d="M305 700h97l-97 -130h-118l-97 130h96l54 -75h11zM52 360q0 66 51 105.5t133 39.5q149 0 245 -115l-65 -55q-73 93 -176 93q-45 0 -71 -17t-26 -47q0 -29 24 -44.5t71 -23.5l59 -10q88 -14 136.5 -47t48.5 -99q0 -70 -56.5 -112t-143.5 -42q-88 0 -156.5 39t-107.5 109
l76 44q57 -115 186 -115q51 0 81 19.5t30 51.5q0 54 -102 70l-59 10q-87 15 -132.5 49.5t-45.5 96.5z" />
    <glyph glyph-name="uni0162" unicode="&#x162;" horiz-adv-x="579" 
d="M339 0h-21l-12 -60h9q17 21 50 21t55.5 -21.5t22.5 -60.5q0 -42 -28.5 -67t-72.5 -25q-57 0 -87 39l34 48q15 -28 49 -28q17 0 27.5 9.5t10.5 25.5q0 14 -8 22.5t-22 8.5q-17 0 -26 -13h-80v8l19 93h-19v611h-226v89h551v-89h-226v-611z" />
    <glyph glyph-name="uni0163" unicode="&#x163;" horiz-adv-x="430" 
d="M397 411h-152v-301q0 -30 28 -30h96v-80h-112l-12 -60h9q17 21 50 21t55.5 -21.5t22.5 -60.5q0 -42 -28.5 -67t-72.5 -25q-57 0 -87 39l34 48q15 -28 49 -28q17 0 27.5 9.5t10.5 25.5q0 14 -8 22.5t-22 8.5q-17 0 -26 -13h-80v8l21 100q-49 18 -49 76v328h-143v80h143
v168h94v-168h152v-80z" />
    <glyph glyph-name="Tcaron" unicode="&#x164;" horiz-adv-x="579" 
d="M348 882h98l-98 -115h-117l-97 115h98l52 -65h11zM14 700h551v-89h-226v-611h-99v611h-226v89z" />
    <glyph glyph-name="tcaron" unicode="&#x165;" horiz-adv-x="430" 
d="M326 746h99l-52 -179h-58zM8 491h143v168h94v-168h152v-80h-152v-301q0 -30 28 -30h96v-80h-134q-37 0 -60.5 23t-23.5 60v328h-143v80z" />
    <glyph glyph-name="Tbar" unicode="&#x166;" horiz-adv-x="579" 
d="M565 611h-226v-218h110v-82h-110v-311h-99v311h-111v82h111v218h-226v89h551v-89z" />
    <glyph glyph-name="tbar" unicode="&#x167;" horiz-adv-x="430" 
d="M397 411h-152v-113h152v-80h-152v-108q0 -30 28 -30h96v-80h-134q-37 0 -60.5 23t-23.5 60v135h-143v80h143v113h-143v80h143v180h94v-180h152v-80z" />
    <glyph glyph-name="Umacron" unicode="&#x16a;" horiz-adv-x="654" 
d="M470 842v-78h-285v78h285zM64 700h99v-464q0 -78 43 -120t121 -42t121 42t43 120v464h99v-461q0 -121 -70 -187t-193 -66t-193 66t-70 187v461z" />
    <glyph glyph-name="umacron" unicode="&#x16b;" horiz-adv-x="594" 
d="M438 647v-77h-285v77h285zM527 0h-92v85h-14q-45 -94 -167 -94q-83 0 -138 54t-55 150v296h94v-287q0 -64 34 -97t96 -33q69 0 108.5 43.5t39.5 123.5v250h94v-491z" />
    <glyph glyph-name="Ubreve" unicode="&#x16c;" horiz-adv-x="654" 
d="M377 880h72v-10q0 -53 -33.5 -83.5t-88.5 -30.5t-88.5 30.5t-33.5 83.5v10h72v-4q0 -22 13 -35.5t37 -13.5t37 13.5t13 35.5v4zM64 700h99v-464q0 -78 43 -120t121 -42t121 42t43 120v464h99v-461q0 -121 -70 -187t-193 -66t-193 66t-70 187v461z" />
    <glyph glyph-name="ubreve" unicode="&#x16d;" horiz-adv-x="594" 
d="M346 700h72v-23q0 -54 -33.5 -85t-88.5 -31t-88.5 31t-33.5 85v23h72v-17q0 -23 13 -37t37 -14t37 14t13 37v17zM527 0h-92v85h-14q-45 -94 -167 -94q-83 0 -138 54t-55 150v296h94v-287q0 -64 34 -97t96 -33q69 0 108.5 43.5t39.5 123.5v250h94v-491z" />
    <glyph glyph-name="Uring" unicode="&#x16e;" horiz-adv-x="654" 
d="M225 839q0 43 29 71t73 28t73.5 -28t29.5 -71q0 -44 -30 -72t-73 -28t-72.5 28.5t-29.5 71.5zM288 839q0 -17 11 -28t28 -11q18 0 28.5 11t10.5 28t-10.5 28t-28.5 11q-17 0 -28 -11t-11 -28zM64 700h99v-464q0 -78 43 -120t121 -42t121 42t43 120v464h99v-461
q0 -121 -70 -187t-193 -66t-193 66t-70 187v461z" />
    <glyph glyph-name="uring" unicode="&#x16f;" horiz-adv-x="594" 
d="M193 639q0 43 29 71t73 28t73.5 -28t29.5 -71q0 -44 -29.5 -71.5t-73.5 -27.5q-43 0 -72.5 28.5t-29.5 70.5zM256 639q0 -17 11 -28t28 -11q18 0 28.5 11t10.5 28t-10.5 28t-28.5 11q-17 0 -28 -11t-11 -28zM527 0h-92v85h-14q-45 -94 -167 -94q-83 0 -138 54t-55 150
v296h94v-287q0 -64 34 -97t96 -33q69 0 108.5 43.5t39.5 123.5v250h94v-491z" />
    <glyph glyph-name="Uhungarumlaut" unicode="&#x170;" horiz-adv-x="654" 
d="M256 880h108l-84 -116h-84zM398 880h108l-84 -116h-84zM64 700h99v-464q0 -78 43 -120t121 -42t121 42t43 120v464h99v-461q0 -121 -70 -187t-193 -66t-193 66t-70 187v461z" />
    <glyph glyph-name="uhungarumlaut" unicode="&#x171;" horiz-adv-x="594" 
d="M224 700h107l-85 -130h-83zM367 700h107l-85 -130h-84zM527 0h-92v85h-14q-45 -94 -167 -94q-83 0 -138 54t-55 150v296h94v-287q0 -64 34 -97t96 -33q69 0 108.5 43.5t39.5 123.5v250h94v-491z" />
    <glyph glyph-name="Uogonek" unicode="&#x172;" horiz-adv-x="654" 
d="M491 700h99v-461q0 -112 -61 -177.5t-169 -74.5l-11 -49q-2 -14 -2 -16q0 -20 22 -20h44v-68h-64q-32 0 -53 18.5t-21 51.5q0 14 5 37l10 47q-107 10 -166.5 75t-59.5 176v461h99v-464q0 -78 43 -120t121 -42t121 42t43 120v464z" />
    <glyph glyph-name="uogonek" unicode="&#x173;" horiz-adv-x="594" 
d="M522 -98h44v-68h-64q-32 0 -53 18.5t-21 51.5q0 14 5 37l13 59h-11v85h-14q-45 -94 -167 -94q-83 0 -138 54t-55 150v296h94v-287q0 -64 34 -97t96 -33q69 0 108.5 43.5t39.5 123.5v250h94v-491h-12l-13 -62q-2 -14 -2 -16q0 -20 22 -20z" />
    <glyph glyph-name="Wcircumflex" unicode="&#x174;" horiz-adv-x="886" 
d="M501 764l-53 65h-11l-52 -65h-98l97 116h117l98 -116h-98zM22 700h100l100 -599h12l131 599h156l131 -599h12l100 599h99l-121 -700h-163l-130 599h-12l-130 -599h-164z" />
    <glyph glyph-name="wcircumflex" unicode="&#x175;" horiz-adv-x="766" 
d="M442 570l-54 75h-11l-54 -75h-96l97 130h118l97 -130h-97zM28 491h94l81 -405h12l102 405h132l102 -405h12l81 405h94l-110 -491h-137l-102 405h-12l-102 -405h-137z" />
    <glyph glyph-name="Ycircumflex" unicode="&#x176;" horiz-adv-x="615" 
d="M366 764l-53 65h-11l-52 -65h-98l97 116h117l98 -116h-98zM8 700h114l178 -323h15l179 323h113l-250 -446v-254h-99v254z" />
    <glyph glyph-name="ycircumflex" unicode="&#x177;" horiz-adv-x="548" 
d="M268 645l-54 -75h-96l97 130h118l97 -130h-97l-54 75h-11zM432 491h101l-285 -691h-101l78 180l-210 511h101l152 -383h12z" />
    <glyph glyph-name="Ydieresis" unicode="&#x178;" horiz-adv-x="615" 
d="M138 819q0 31 20.5 51.5t51.5 20.5q32 0 52.5 -20.5t20.5 -51.5t-20.5 -51t-52.5 -20q-31 0 -51.5 20t-20.5 51zM332 819q0 31 21 51.5t52 20.5q32 0 52.5 -20.5t20.5 -51.5t-20.5 -51t-52.5 -20q-31 0 -52 20t-21 51zM8 700h114l178 -323h15l179 323h113l-250 -446v-254
h-99v254z" />
    <glyph glyph-name="Zacute" unicode="&#x179;" horiz-adv-x="577" 
d="M285 880h113l-82 -116h-87zM47 700h490v-84l-378 -528h384v-88h-506v84l377 528h-367v88z" />
    <glyph glyph-name="zacute" unicode="&#x17a;" horiz-adv-x="529" 
d="M258 700h111l-81 -130h-86zM57 491h424v-72l-309 -339h317v-80h-442v72l310 339h-300v80z" />
    <glyph glyph-name="Zdotaccent" unicode="&#x17b;" horiz-adv-x="577" 
d="M219 819q0 31 20.5 51.5t51.5 20.5q32 0 52.5 -20.5t20.5 -51.5t-20.5 -51t-52.5 -20q-31 0 -51.5 20t-20.5 51zM47 700h490v-84l-378 -528h384v-88h-506v84l377 528h-367v88z" />
    <glyph glyph-name="zdotaccent" unicode="&#x17c;" horiz-adv-x="529" 
d="M191 640q0 31 20.5 51.5t51.5 20.5q32 0 52.5 -20.5t20.5 -51.5t-20.5 -51t-52.5 -20q-31 0 -51.5 20t-20.5 51zM57 491h424v-72l-309 -339h317v-80h-442v72l310 339h-300v80z" />
    <glyph glyph-name="Zcaron" unicode="&#x17d;" horiz-adv-x="577" 
d="M350 882h98l-98 -115h-117l-97 115h98l52 -65h11zM47 700h490v-84l-378 -528h384v-88h-506v84l377 528h-367v88z" />
    <glyph glyph-name="zcaron" unicode="&#x17e;" horiz-adv-x="529" 
d="M322 700h97l-97 -130h-118l-97 130h96l54 -75h11zM57 491h424v-72l-309 -339h317v-80h-442v72l310 339h-300v80z" />
    <glyph glyph-name="florin" unicode="&#x192;" 
d="M124 446h137v168q0 37 24 61.5t61 24.5h192v-88h-156q-27 0 -27 -30v-136h142v-88h-142v-272q0 -37 -24 -61.5t-61 -24.5h-184v88h148q27 0 27 30v240h-137v88z" />
    <glyph glyph-name="Aringacute" unicode="&#x1fa;" horiz-adv-x="606" 
d="M302 739q-43 0 -72.5 28.5t-29.5 71.5t29 71t73 28h2l30 62h112l-66 -94q25 -27 25 -67q0 -44 -30 -72t-73 -28zM302 878q-17 0 -28 -11t-11 -28t11 -28t28 -11q18 0 28.5 11t10.5 28t-10.5 28t-28.5 11zM381 700l216 -700h-104l-51 170h-278l-51 -170h-104l216 700h156z
M189 260h228l-108 354h-12z" />
    <glyph glyph-name="aringacute" unicode="&#x1fb;" horiz-adv-x="559" 
d="M278 540q-43 0 -72.5 28.5t-29.5 70.5t28.5 70t71.5 29l40 92h111l-75 -120q29 -29 29 -71q0 -44 -29.5 -71.5t-73.5 -27.5zM278 678q-17 0 -28 -11t-11 -28t11 -28t28 -11q18 0 28.5 11t10.5 28t-10.5 28t-28.5 11zM284 505q98 0 156 -52.5t58 -141.5v-311h-92v77h-14
q-54 -91 -175 -91q-83 0 -133.5 40.5t-50.5 107.5q0 66 44 102t120 43l207 21v17q0 49 -33 79.5t-91 30.5q-106 0 -156 -108l-78 45q82 141 238 141zM404 217v7l-184 -19q-90 -9 -90 -70q0 -32 29 -51t77 -19q76 0 122 41.5t46 110.5z" />
    <glyph glyph-name="AEacute" unicode="&#x1fc;" horiz-adv-x="556" 
d="M432 880l-82 -116h-87l56 116h113zM381 92h138v-92h-237v169h-126l-45 -169h-102l192 700h313v-92h-133v-211h108v-92h-108v-213zM282 260v348h-12l-92 -348h104z" />
    <glyph glyph-name="aeacute" unicode="&#x1fd;" horiz-adv-x="922" 
d="M458 700h111l-81 -130h-86zM33 139q0 61 45 97t119 41l207 16v24q0 49 -33 79.5t-91 30.5q-106 0 -156 -108l-78 45q82 141 236 141q124 0 175 -96h12q31 44 79.5 70t107.5 26q104 0 169 -66.5t65 -177.5v-45h-386q5 -66 46.5 -107t107.5 -41q103 0 143 90l80 -43
q-21 -36 -43 -61t-68.5 -46.5t-106.5 -21.5q-68 0 -121 30.5t-83 83.5h-12q-66 -114 -216 -114q-88 0 -143 42t-55 111zM505 292h288q-4 61 -41.5 96t-99.5 35t-101 -35.5t-46 -95.5zM130 137q0 -33 29 -52.5t79 -19.5q76 0 121 39t45 107v6l-184 -14q-90 -6 -90 -66z" />
    <glyph glyph-name="Oslashacute" unicode="&#x1fe;" horiz-adv-x="646" 
d="M430 880l-82 -116h-87l56 116h113zM479 676q123 -73 123 -250v-152q0 -137 -74.5 -212.5t-204.5 -75.5q-37 0 -70 6l-27 -80l-83 26l28 83q-127 71 -127 253v152q0 136 74.5 212t204.5 76q35 0 75 -7l23 69l82 -26zM143 269q0 -103 58 -155l169 507q-25 5 -47 5
q-85 0 -132.5 -53t-47.5 -142v-162zM503 269v162q0 97 -56 150l-166 -503q17 -4 42 -4q88 0 134 52t46 143z" />
    <glyph glyph-name="oslashacute" unicode="&#x1ff;" horiz-adv-x="579" 
d="M395 700l-81 -130h-86l56 130h111zM419 472q58 -32 91 -91.5t33 -135.5q0 -114 -71.5 -186.5t-182.5 -72.5q-26 0 -46 4l-26 -72l-82 29l26 71q-58 32 -91.5 91.5t-33.5 135.5q0 114 71.5 187t181.5 73q27 0 48 -4l24 67l82 -29zM130 245q0 -95 61 -143l116 318
q-6 1 -18 1q-71 0 -115 -49t-44 -127zM289 70q72 0 116 48.5t44 126.5q0 96 -61 143l-115 -317q5 -1 16 -1z" />
    <glyph glyph-name="uni0218" unicode="&#x218;" horiz-adv-x="608" 
d="M303 714q112 0 183 -57.5t71 -157.5v-37h-97v30q0 67 -43.5 101t-113.5 34q-61 0 -100 -29t-39 -76q0 -52 35.5 -74.5t115.5 -41.5l35 -8q106 -24 159.5 -70t53.5 -131q0 -98 -70 -154.5t-181 -56.5q-129 0 -202 67t-73 190v24h98v-20q0 -84 46.5 -129t132.5 -45
q72 0 111.5 34t39.5 86q0 49 -37 75t-114 43l-35 9q-107 24 -160 69t-53 131t67.5 140t169.5 54zM237 -129q0 35 22 57t56 22q33 0 55.5 -22t22.5 -55v-100q0 -36 -22.5 -57.5t-58.5 -21.5h-71v54h62q28 0 28 27v24q-8 -2 -18 -2q-32 0 -54 21t-22 53z" />
    <glyph glyph-name="uni0219" unicode="&#x219;" horiz-adv-x="520" 
d="M52 360q0 66 51 105.5t133 39.5q149 0 245 -115l-65 -55q-73 93 -176 93q-45 0 -71 -17t-26 -47q0 -29 24 -44.5t71 -23.5l59 -10q88 -14 136.5 -47t48.5 -99q0 -70 -56.5 -112t-143.5 -42q-88 0 -156.5 39t-107.5 109l76 44q57 -115 186 -115q51 0 81 19.5t30 51.5
q0 54 -102 70l-59 10q-87 15 -132.5 49.5t-45.5 96.5zM180 -129q0 35 22 57t56 22q33 0 55.5 -22t22.5 -55v-100q0 -36 -22.5 -57.5t-58.5 -21.5h-71v54h62q28 0 28 27v24q-8 -2 -18 -2q-32 0 -54 21t-22 53z" />
    <glyph glyph-name="uni021A" unicode="&#x21a;" horiz-adv-x="579" 
d="M14 700h551v-89h-226v-611h-99v611h-226v89zM212 -129q0 35 22 57t56 22q33 0 55.5 -22t22.5 -55v-100q0 -36 -22.5 -57.5t-58.5 -21.5h-71v54h62q28 0 28 27v24q-8 -2 -18 -2q-32 0 -54 21t-22 53z" />
    <glyph glyph-name="uni021B" unicode="&#x21b;" horiz-adv-x="430" 
d="M8 491h143v168h94v-168h152v-80h-152v-301q0 -30 28 -30h96v-80h-134q-37 0 -60.5 23t-23.5 60v328h-143v80zM152 -129q0 35 22 57t56 22q33 0 55.5 -22t22.5 -55v-100q0 -36 -22.5 -57.5t-58.5 -21.5h-71v54h62q28 0 28 27v24q-8 -2 -18 -2q-32 0 -54 21t-22 53z" />
    <glyph glyph-name="uni0237" unicode="&#x237;" horiz-adv-x="234" 
d="M166 491v-608q0 -37 -23 -60t-60 -23h-131v80h93q28 0 28 30v581h93z" />
    <glyph glyph-name="circumflex" unicode="&#x2c6;" horiz-adv-x="410" 
d="M264 570l-54 75h-11l-54 -75h-96l97 130h118l97 -130h-97z" />
    <glyph glyph-name="caron" unicode="&#x2c7;" horiz-adv-x="410" 
d="M264 700h97l-97 -130h-118l-97 130h96l54 -75h11z" />
    <glyph glyph-name="breve" unicode="&#x2d8;" horiz-adv-x="341" 
d="M221 700h72v-23q0 -54 -33.5 -85t-88.5 -31t-88.5 31t-33.5 85v23h72v-17q0 -23 13 -37t37 -14t37 14t13 37v17z" />
    <glyph glyph-name="dotaccent" unicode="&#x2d9;" horiz-adv-x="243" 
d="M49 640q0 31 20.5 51.5t51.5 20.5q32 0 52.5 -20.5t20.5 -51.5t-20.5 -51t-52.5 -20q-31 0 -51.5 20t-20.5 51z" />
    <glyph glyph-name="ring" unicode="&#x2da;" horiz-adv-x="303" 
d="M49 639q0 43 29 71t73 28t73.5 -28t29.5 -71q0 -44 -29.5 -71.5t-73.5 -27.5q-43 0 -72.5 28.5t-29.5 70.5zM112 639q0 -17 11 -28t28 -11q18 0 28.5 11t10.5 28t-10.5 28t-28.5 11q-17 0 -28 -11t-11 -28z" />
    <glyph glyph-name="ogonek" unicode="&#x2db;" horiz-adv-x="236" 
d="M72 24l68 -7l-17 -79q-2 -14 -2 -16q0 -20 22 -20h44v-68h-64q-32 0 -53 18.5t-21 51.5q0 14 5 37z" />
    <glyph glyph-name="tilde" unicode="&#x2dc;" horiz-adv-x="454" 
d="M49 615l45 61q32 43 78 43q38 0 72 -44q8 -11 12 -15.5t10 -8.5t14 -4q18 0 34 22l32 42l59 -45l-46 -61q-32 -43 -78 -43q-37 0 -71 44q-8 11 -12 15.5t-10.5 8.5t-14.5 4q-17 0 -34 -22l-31 -42z" />
    <glyph glyph-name="hungarumlaut" unicode="&#x2dd;" horiz-adv-x="408" 
d="M110 700h107l-85 -130h-83zM253 700h107l-85 -130h-84z" />
    <glyph glyph-name="gravecomb" unicode="&#x300;" horiz-adv-x="0" 
d="M-110 700l61 -130h-85l-85 130h109z" />
    <glyph glyph-name="acutecomb" unicode="&#x301;" horiz-adv-x="0" 
d="M-161 700h111l-81 -130h-86z" />
    <glyph glyph-name="uni0302" unicode="&#x302;" horiz-adv-x="0" 
d="M-146 570l-54 75h-11l-54 -75h-96l97 130h118l97 -130h-97z" />
    <glyph glyph-name="tildecomb" unicode="&#x303;" horiz-adv-x="0" 
d="M-405 615l45 61q32 43 78 43q38 0 72 -44q8 -11 12 -15.5t10 -8.5t14 -4q18 0 34 22l32 42l59 -45l-46 -61q-32 -43 -78 -43q-37 0 -71 44q-8 11 -12 15.5t-10.5 8.5t-14.5 4q-17 0 -34 -22l-31 -42z" />
    <glyph glyph-name="uni0304" unicode="&#x304;" horiz-adv-x="0" 
d="M-49 647v-77h-285v77h285z" />
    <glyph glyph-name="uni0306" unicode="&#x306;" horiz-adv-x="0" 
d="M-120 700h72v-23q0 -54 -33.5 -85t-88.5 -31t-88.5 31t-33.5 85v23h72v-17q0 -23 13 -37t37 -14t37 14t13 37v17z" />
    <glyph glyph-name="uni0307" unicode="&#x307;" horiz-adv-x="0" 
d="M-194 640q0 31 20.5 51.5t51.5 20.5q32 0 52.5 -20.5t20.5 -51.5t-20.5 -51t-52.5 -20q-31 0 -51.5 20t-20.5 51z" />
    <glyph glyph-name="uni0308" unicode="&#x308;" horiz-adv-x="0" 
d="M-382 640q0 31 20.5 51.5t51.5 20.5q32 0 52.5 -20.5t20.5 -51.5t-20.5 -51t-52.5 -20q-31 0 -51.5 20t-20.5 51zM-194 640q0 31 21 51.5t52 20.5q32 0 52.5 -20.5t20.5 -51.5t-20.5 -51t-52.5 -20q-31 0 -52 20t-21 51z" />
    <glyph glyph-name="uni030A" unicode="&#x30a;" horiz-adv-x="0" 
d="M-254 639q0 43 29 71t73 28t73.5 -28t29.5 -71q0 -44 -29.5 -71.5t-73.5 -27.5q-43 0 -72.5 28.5t-29.5 70.5zM-191 639q0 -17 11 -28t28 -11q18 0 28.5 11t10.5 28t-10.5 28t-28.5 11q-17 0 -28 -11t-11 -28z" />
    <glyph glyph-name="uni030B" unicode="&#x30b;" horiz-adv-x="0" 
d="M-298 700h107l-85 -130h-83zM-155 700h107l-85 -130h-84z" />
    <glyph glyph-name="uni030C" unicode="&#x30c;" horiz-adv-x="0" 
d="M-146 700h97l-97 -130h-118l-97 130h96l54 -75h11z" />
    <glyph glyph-name="uni0312" unicode="&#x312;" horiz-adv-x="0" 
d="M-48 641q0 -34 -22.5 -56.5t-55.5 -22.5q-34 0 -56 22t-22 56v99q0 36 22.5 58t57.5 22h71v-55h-61q-29 0 -29 -27v-23q8 2 19 2q32 0 54 -21.5t22 -53.5z" />
    <glyph glyph-name="uni0326" unicode="&#x326;" horiz-adv-x="0" 
d="M-204 -129q0 35 22 57t56 22q33 0 55.5 -22t22.5 -55v-100q0 -36 -22.5 -57.5t-58.5 -21.5h-71v54h62q28 0 28 27v24q-8 -2 -18 -2q-32 0 -54 21t-22 53z" />
    <glyph glyph-name="uni0327" unicode="&#x327;" horiz-adv-x="0" 
d="M-226 32h58l-18 -92h9q17 21 50 21t55.5 -21.5t22.5 -60.5q0 -42 -28.5 -67t-72.5 -25q-57 0 -87 39l34 48q15 -28 49 -28q17 0 27.5 9.5t10.5 25.5q0 14 -8 22.5t-22 8.5q-17 0 -26 -13h-80v8z" />
    <glyph glyph-name="uni0328" unicode="&#x328;" horiz-adv-x="0" 
d="M-164 24l68 -7l-17 -79q-2 -14 -2 -16q0 -20 22 -20h44v-68h-64q-32 0 -53 18.5t-21 51.5q0 14 5 37z" />
    <glyph glyph-name="uni0335" unicode="&#x335;" horiz-adv-x="0" 
d="M-336 630h287v-66h-287v66z" />
    <glyph glyph-name="uni0336" unicode="&#x336;" horiz-adv-x="0" 
d="M-48 584v-82h-623v82h623z" />
    <glyph glyph-name="uni0337" unicode="&#x337;" horiz-adv-x="0" 
d="M-130 568l82 -29l-226 -621l-82 29z" />
    <glyph glyph-name="uni0338" unicode="&#x338;" horiz-adv-x="0" 
d="M-131 776l82 -26l-277 -838l-83 26z" />
    <glyph glyph-name="pi" unicode="&#x3c0;" 
d="M234 0h-94v408h-74v88h490v-88h-74v-290q0 -30 27 -30h47v-88h-85q-36 0 -59.5 23.5t-23.5 60.5v324h-154v-408z" />
    <glyph glyph-name="Wgrave" unicode="&#x1e80;" horiz-adv-x="886" 
d="M447 880l60 -116h-86l-84 116h110zM22 700h100l100 -599h12l131 599h156l131 -599h12l100 599h99l-121 -700h-163l-130 599h-12l-130 -599h-164z" />
    <glyph glyph-name="wgrave" unicode="&#x1e81;" horiz-adv-x="766" 
d="M385 700l61 -130h-85l-85 130h109zM28 491h94l81 -405h12l102 405h132l102 -405h12l81 405h94l-110 -491h-137l-102 405h-12l-102 -405h-137z" />
    <glyph glyph-name="Wacute" unicode="&#x1e82;" horiz-adv-x="886" 
d="M436 880h113l-82 -116h-87zM22 700h100l100 -599h12l131 599h156l131 -599h12l100 599h99l-121 -700h-163l-130 599h-12l-130 -599h-164z" />
    <glyph glyph-name="wacute" unicode="&#x1e83;" horiz-adv-x="766" 
d="M378 700h111l-81 -130h-86zM28 491h94l81 -405h12l102 405h132l102 -405h12l81 405h94l-110 -491h-137l-102 405h-12l-102 -405h-137z" />
    <glyph glyph-name="Wdieresis" unicode="&#x1e84;" horiz-adv-x="886" 
d="M273 819q0 31 20.5 51.5t51.5 20.5q32 0 52.5 -20.5t20.5 -51.5t-20.5 -51t-52.5 -20q-31 0 -51.5 20t-20.5 51zM467 819q0 31 21 51.5t52 20.5q32 0 52.5 -20.5t20.5 -51.5t-20.5 -51t-52.5 -20q-31 0 -52 20t-21 51zM22 700h100l100 -599h12l131 599h156l131 -599h12
l100 599h99l-121 -700h-163l-130 599h-12l-130 -599h-164z" />
    <glyph glyph-name="wdieresis" unicode="&#x1e85;" horiz-adv-x="766" 
d="M216 640q0 31 20.5 51.5t51.5 20.5q32 0 52.5 -20.5t20.5 -51.5t-20.5 -51t-52.5 -20q-31 0 -51.5 20t-20.5 51zM404 640q0 31 21 51.5t52 20.5q32 0 52.5 -20.5t20.5 -51.5t-20.5 -51t-52.5 -20q-31 0 -52 20t-21 51zM28 491h94l81 -405h12l102 405h132l102 -405h12
l81 405h94l-110 -491h-137l-102 405h-12l-102 -405h-137z" />
    <glyph glyph-name="uni1E9E" unicode="&#x1e9e;" horiz-adv-x="622" 
d="M64 0v431q0 129 70 199t187 70h250v-78l-164 -206q-19 -25 -19 -39q0 -22 39 -38l41 -19q61 -27 95 -65.5t34 -100.5q0 -73 -49 -120.5t-136 -47.5q-92 0 -145.5 50.5t-53.5 131.5h100q0 -41 26 -67.5t73 -26.5q40 0 64.5 22.5t24.5 56.5q0 22 -12.5 39.5t-26.5 26
t-37 18.5l-52 23q-82 36 -82 107q0 30 15 56t45 63l103 125h-133q-70 0 -114 -42t-44 -134v-435h-99z" />
    <glyph glyph-name="Ygrave" unicode="&#x1ef2;" horiz-adv-x="615" 
d="M311 880l60 -116h-86l-84 116h110zM8 700h114l178 -323h15l179 323h113l-250 -446v-254h-99v254z" />
    <glyph glyph-name="ygrave" unicode="&#x1ef3;" horiz-adv-x="548" 
d="M337 570h-85l-85 130h109zM432 491h101l-285 -691h-101l78 180l-210 511h101l152 -383h12z" />
    <glyph glyph-name="endash" unicode="&#x2013;" horiz-adv-x="612" 
d="M82 213v86h448v-86h-448z" />
    <glyph glyph-name="emdash" unicode="&#x2014;" horiz-adv-x="916" 
d="M82 213v86h752v-86h-752z" />
    <glyph glyph-name="quoteleft" unicode="&#x2018;" horiz-adv-x="257" 
d="M206 528q0 -35 -22 -57t-56 -22q-33 0 -55.5 22t-22.5 55v110q0 36 22.5 57.5t58.5 21.5h71v-54h-62q-28 0 -28 -27v-35q8 2 18 2q33 0 54.5 -20.5t21.5 -52.5z" />
    <glyph glyph-name="quoteright" unicode="&#x2019;" horiz-adv-x="257" 
d="M50 637q0 34 22.5 56t55.5 22q34 0 56 -21.5t22 -55.5v-110q0 -35 -22.5 -57t-57.5 -22h-71v54h61q28 0 28 28v34q-6 -2 -18 -2q-32 0 -54 21t-22 53z" />
    <glyph glyph-name="quotesinglbase" unicode="&#x201a;" horiz-adv-x="257" 
d="M50 63q0 35 22.5 57t55.5 22q34 0 56 -21.5t22 -55.5v-110q0 -36 -22 -57.5t-58 -21.5h-71v54h61q28 0 28 27v35q-6 -2 -18 -2q-32 0 -54 20.5t-22 52.5z" />
    <glyph glyph-name="quotedblleft" unicode="&#x201c;" horiz-adv-x="437" 
d="M206 528q0 -35 -22 -57t-56 -22q-33 0 -55.5 22t-22.5 55v110q0 36 22.5 57.5t58.5 21.5h71v-54h-62q-28 0 -28 -27v-35q8 2 18 2q33 0 54.5 -20.5t21.5 -52.5zM387 528q0 -35 -22.5 -57t-55.5 -22q-34 0 -56 21.5t-22 55.5v110q0 36 22 57.5t58 21.5h71v-54h-61
q-29 0 -29 -27v-35q8 2 19 2q32 0 54 -20.5t22 -52.5z" />
    <glyph glyph-name="quotedblright" unicode="&#x201d;" horiz-adv-x="437" 
d="M50 637q0 34 22.5 56t55.5 22q34 0 56 -21.5t22 -55.5v-110q0 -35 -22.5 -57t-57.5 -22h-71v54h61q28 0 28 28v34q-6 -2 -18 -2q-32 0 -54 21t-22 53zM231 637q0 34 22 56t56 22q33 0 55.5 -22t22.5 -55v-110q0 -35 -23 -57t-58 -22h-71v54h62q28 0 28 28v34
q-8 -2 -18 -2q-32 0 -54 21t-22 53z" />
    <glyph glyph-name="quotedblbase" unicode="&#x201e;" horiz-adv-x="437" 
d="M50 63q0 35 22.5 57t55.5 22q34 0 56 -21.5t22 -55.5v-110q0 -36 -22 -57.5t-58 -21.5h-71v54h61q28 0 28 27v35q-6 -2 -18 -2q-32 0 -54 20.5t-22 52.5zM231 63q0 35 22 57t56 22q33 0 55.5 -22t22.5 -55v-110q0 -36 -22.5 -57.5t-58.5 -21.5h-71v54h62q28 0 28 27v35
q-8 -2 -18 -2q-33 0 -54.5 20.5t-21.5 52.5z" />
    <glyph glyph-name="dagger" unicode="&#x2020;" 
d="M94 427v91h167v182h98v-182h167v-91h-167v-427h-98v427h-167z" />
    <glyph glyph-name="daggerdbl" unicode="&#x2021;" 
d="M94 182v94h167v151h-167v91h167v182h98v-182h167v-91h-167v-151h167v-94h-167v-182h-98v182h-167z" />
    <glyph glyph-name="bullet" unicode="&#x2022;" horiz-adv-x="310" 
d="M28 350q0 52 37.5 89.5t89.5 37.5t89.5 -37.5t37.5 -89.5t-38 -89.5t-89 -37.5t-89 37.5t-38 89.5z" />
    <glyph glyph-name="ellipsis" unicode="&#x2026;" horiz-adv-x="623" 
d="M50 64q0 34 22.5 56t55.5 22q34 0 56 -22t22 -56t-22 -56t-56 -22q-33 0 -55.5 22t-22.5 56zM233 64q0 34 22.5 56t55.5 22q34 0 56 -22t22 -56t-22 -56t-56 -22q-33 0 -55.5 22t-22.5 56zM416 64q0 34 22.5 56t55.5 22q34 0 56 -22t22 -56t-22 -56t-56 -22
q-33 0 -55.5 22t-22.5 56z" />
    <glyph glyph-name="perthousand" unicode="&#x2030;" horiz-adv-x="1017" 
d="M209 713q74 0 118 -43t44 -116v-19q0 -74 -43 -116t-119 -42q-77 0 -120 42t-43 116v19q0 74 43 116.5t120 42.5zM679 655l-200 -233l-50 38l173 253zM291 531v28q0 40 -21 63.5t-61 23.5t-61.5 -23.5t-21.5 -63.5v-28q0 -40 21.5 -63.5t61.5 -23.5t61 23.5t21 63.5z
M813 323q72 0 115 -43t43 -116v-19q0 -73 -42.5 -115.5t-115.5 -42.5q-87 0 -126 58q-41 -58 -127 -58q-74 0 -116 42.5t-42 115.5v19q0 74 42.5 116.5t115.5 42.5q85 0 126 -60q41 60 127 60zM91 46l200 233l50 -38l-173 -253zM646 141v28q0 40 -21 63.5t-61 23.5
t-61.5 -23.5t-21.5 -63.5v-28q0 -40 21.5 -63.5t61.5 -23.5t61 23.5t21 63.5zM891 141v28q0 40 -21 63.5t-61 23.5t-61 -23.5t-21 -63.5v-28q0 -40 21 -63.5t61 -23.5t61 23.5t21 63.5z" />
    <glyph glyph-name="prime" unicode="&#x2032;" horiz-adv-x="310" 
d="M109 700h107l-53 -263h-64z" />
    <glyph glyph-name="primedbl" unicode="&#x2033;" horiz-adv-x="440" 
d="M100 700h108l-53 -263h-65zM247 700h108l-54 -263h-64z" />
    <glyph glyph-name="guilsinglleft" unicode="&#x2039;" horiz-adv-x="480" 
d="M65 300l340 177h6v-104l-255 -121v-13l255 -121v-104h-6l-340 177v109z" />
    <glyph glyph-name="guilsinglright" unicode="&#x203a;" horiz-adv-x="480" 
d="M415 300v-109l-340 -177h-6v104l255 121v13l-255 121v104h6z" />
    <glyph glyph-name="fraction" unicode="&#x2044;" horiz-adv-x="627" 
d="M357 459l173 254l78 -58l-200 -233zM270 241l-173 -254l-78 58l200 234z" />
    <glyph glyph-name="Euro" unicode="&#x20ac;" horiz-adv-x="665" 
d="M628 444h-99v14q0 78 -40 122.5t-115 44.5q-73 0 -115.5 -44.5t-49.5 -119.5h165v-79h-167v-55h167v-78h-166q5 -82 47.5 -128t118.5 -46q155 0 155 165v18h99v-21q0 -118 -66 -184.5t-188 -66.5q-118 0 -188 68.5t-77 194.5h-71v78h70v55h-70v79h72q10 119 79.5 186
t184.5 67q121 0 187.5 -67.5t66.5 -184.5v-18z" />
    <glyph glyph-name="trademark" unicode="&#x2122;" 
d="M66 700h190v-36h-75v-186h-40v186h-75v36zM286 700h72l53 -186h4l53 186h72v-222h-40v186h-4l-53 -186h-60l-53 186h-4v-186h-40v222z" />
    <glyph glyph-name="oneeighth" unicode="&#x215b;" horiz-adv-x="717" 
d="M357 459l173 254l78 -58l-200 -233zM96 700h112v-350h-78v260h-10l-38 -66h-72v10zM383 265q0 43 43 70.5t111 27.5t111 -27.5t43 -70.5v-3q0 -57 -61 -76v-10q25 -6 46 -27t21 -57v-2q0 -45 -43.5 -74t-116.5 -29t-116.5 29t-43.5 74v2q0 37 21 57.5t47 26.5v10
q-62 19 -62 76v3zM461 256q0 -21 20.5 -33.5t55.5 -12.5t55.5 12.5t20.5 33.5q0 20 -20.5 32t-55.5 12t-55.5 -12t-20.5 -32zM270 241l-173 -254l-78 58l200 234zM455 99q0 -23 22 -36t60 -13t60 13t22 36q0 24 -21.5 37t-60.5 13q-38 0 -60 -13t-22 -37z" />
    <glyph glyph-name="threeeighths" unicode="&#x215c;" horiz-adv-x="804" 
d="M444 459l173 254l78 -58l-200 -233zM25 700h308v-54l-115 -74v-10q51 -2 84 -27.5t33 -74.5q0 -54 -44.5 -88.5t-111.5 -34.5q-71 0 -115 35.5t-46 98.5h77q1 -32 23.5 -50.5t58.5 -18.5t58 17t22 44q0 55 -80 55h-62v51l102 67h-192v64zM469 265q0 43 43 70.5t111 27.5
t111 -27.5t43 -70.5v-3q0 -57 -61 -76v-10q25 -6 46 -27t21 -57v-2q0 -45 -43.5 -74t-116.5 -29t-116.5 29t-43.5 74v2q0 37 21 57.5t47 26.5v10q-62 19 -62 76v3zM547 256q0 -21 20.5 -33.5t55.5 -12.5t55.5 12.5t20.5 33.5q0 20 -20.5 32t-55.5 12t-55.5 -12t-20.5 -32z
M357 241l-173 -254l-78 58l200 234zM541 99q0 -23 22 -36t60 -13t60 13t22 36q0 24 -21.5 37t-60.5 13q-38 0 -60 -13t-22 -37z" />
    <glyph glyph-name="fiveeighths" unicode="&#x215d;" horiz-adv-x="804" 
d="M443 459l173 254l78 -58l-200 -233zM33 700h294v-64h-218v-81h10q42 30 93 30q54 0 90.5 -32t36.5 -84v-5q0 -55 -43 -91t-114 -36q-67 0 -109 34t-52 90h78q6 -26 27.5 -43t55.5 -17q36 0 57.5 18t21.5 46t-19.5 44t-49.5 16q-36 0 -67 -28h-92v203zM469 265
q0 43 43 70.5t111 27.5t111 -27.5t43 -70.5v-3q0 -57 -61 -76v-10q25 -6 46 -27t21 -57v-2q0 -45 -43.5 -74t-116.5 -29t-116.5 29t-43.5 74v2q0 37 21 57.5t47 26.5v10q-62 19 -62 76v3zM547 256q0 -21 20.5 -33.5t55.5 -12.5t55.5 12.5t20.5 33.5q0 20 -20.5 32t-55.5 12
t-55.5 -12t-20.5 -32zM356 241l-173 -254l-78 58l200 234zM541 99q0 -23 22 -36t60 -13t60 13t22 36q0 24 -21.5 37t-60.5 13q-38 0 -60 -13t-22 -37z" />
    <glyph glyph-name="seveneighths" unicode="&#x215e;" horiz-adv-x="733" 
d="M373 459l173 254l78 -58l-200 -233zM5 700h305v-60l-148 -290h-86l148 286h-219v64zM399 265q0 43 43 70.5t111 27.5t111 -27.5t43 -70.5v-3q0 -57 -61 -76v-10q25 -6 46 -27t21 -57v-2q0 -45 -43.5 -74t-116.5 -29t-116.5 29t-43.5 74v2q0 37 21 57.5t47 26.5v10
q-62 19 -62 76v3zM477 256q0 -21 20.5 -33.5t55.5 -12.5t55.5 12.5t20.5 33.5q0 20 -20.5 32t-55.5 12t-55.5 -12t-20.5 -32zM286 241l-173 -254l-78 58l200 234zM471 99q0 -23 22 -36t60 -13t60 13t22 36q0 24 -21.5 37t-60.5 13q-38 0 -60 -13t-22 -37z" />
    <glyph glyph-name="arrowleft" unicode="&#x2190;" horiz-adv-x="800" 
d="M285 526l63 -64l-136 -136l-31 -22l3 -9l38 4h528v-91h-528l-38 3l-3 -9l31 -21l136 -136l-63 -64l-235 234v76z" />
    <glyph glyph-name="arrowup" unicode="&#x2191;" 
d="M39 471l234 235h76l234 -235l-63 -63l-135 134l-21 32l-9 -3l3 -39v-532h-94v532l3 39l-9 3l-21 -32l-135 -134z" />
    <glyph glyph-name="arrowright" unicode="&#x2192;" horiz-adv-x="800" 
d="M515 526l235 -235v-76l-235 -234l-63 64l136 136l31 21l-3 9l-38 -3h-528v91h528l38 -4l3 9l-31 22l-136 136z" />
    <glyph glyph-name="arrowdown" unicode="&#x2193;" 
d="M39 229l63 63l135 -134l21 -32l9 3l-3 39v532h94v-532l-3 -39l9 -3l21 32l135 134l63 -63l-234 -235h-76z" />
    <glyph glyph-name="arrowboth" unicode="&#x2194;" horiz-adv-x="800" 
d="M521 517l229 -228v-76l-229 -229l-63 64l130 130l31 22l-3 9l-38 -4h-356l-38 4l-3 -9l31 -22l130 -130l-63 -64l-229 229v76l229 228l63 -63l-130 -131l-31 -21l3 -9l38 3h356l38 -3l3 9l-31 21l-130 131z" />
    <glyph glyph-name="arrowupdn" unicode="&#x2195;" 
d="M385 158l135 134l63 -63l-234 -235h-76l-234 235l63 63l135 -134l21 -32l9 3l-3 39v364l3 39l-9 3l-21 -32l-135 -134l-63 63l234 235h76l234 -235l-63 -63l-135 134l-21 32l-9 -3l3 -39v-364l-3 -39l9 -3z" />
    <glyph glyph-name="uni2196" unicode="&#x2196;" horiz-adv-x="615" 
d="M458 491l-1 -88h-189l-38 7l-4 -9l30 -24l322 -324l-67 -67l-323 323l-24 30l-9 -4l7 -38v-189l-88 -1v332l52 52h332z" />
    <glyph glyph-name="uni2197" unicode="&#x2197;" horiz-adv-x="615" 
d="M157 491h332l52 -52v-332l-88 1v189l6 38l-8 4l-24 -30l-323 -323l-67 67l322 324l30 24l-4 9l-38 -7h-190v88z" />
    <glyph glyph-name="uni2198" unicode="&#x2198;" horiz-adv-x="615" 
d="M157 0v88h190l38 -7l4 9l-30 24l-322 324l67 67l323 -324l24 -29l8 4l-6 37v190l88 1v-332l-52 -52h-332z" />
    <glyph glyph-name="uni2199" unicode="&#x2199;" horiz-adv-x="615" 
d="M458 0h-332l-52 52v332l88 -1v-190l-7 -37l9 -4l24 29l323 324l67 -67l-322 -324l-30 -24l4 -9l38 7h189z" />
    <glyph glyph-name="partialdiff" unicode="&#x2202;" 
d="M58 254q0 110 65.5 183t165.5 73q94 0 136 -62h14q-23 78 -99 124.5t-180 58.5l18 88q187 -24 285.5 -137t98.5 -302q0 -134 -67 -214t-187 -80q-110 0 -180 72.5t-70 183.5v12zM309 75q71 0 113.5 48.5t42.5 130.5q0 74 -44.5 120.5t-111.5 46.5q-68 0 -112 -47.5
t-44 -120.5v-10q0 -75 43.5 -121.5t112.5 -46.5z" />
    <glyph glyph-name="emptyset" unicode="&#x2205;" horiz-adv-x="640" 
d="M466 472q56 -33 88.5 -90.5t32.5 -129.5v-8q0 -114 -76 -186t-191 -72q-33 0 -63 6l-40 -93l-82 34l39 91q-56 33 -88.5 90.5t-32.5 129.5v8q0 114 76 186t191 72q33 0 63 -6l40 93l82 -34zM147 242q0 -85 64 -133l135 310q-16 2 -26 2q-74 0 -123.5 -47.5t-49.5 -119.5
v-12zM493 242v12q0 85 -64 133l-135 -310q16 -2 26 -2q74 0 123.5 47t49.5 120z" />
    <glyph glyph-name="product" unicode="&#x220f;" 
d="M73 0v700h474v-700h-100v606h-274v-606h-100z" />
    <glyph glyph-name="summation" unicode="&#x2211;" 
d="M72 611v89h476v-92h-331v-13l183 -209v-72l-183 -208v-14h331v-92h-476v89l226 254v14z" />
    <glyph glyph-name="minus" unicode="&#x2212;" 
d="M101 393h418v-86h-418v86z" />
    <glyph glyph-name="radical" unicode="&#x221a;" 
d="M42 309v86h176l77 -309h14l180 770h96l-202 -856h-164l-77 309h-100z" />
    <glyph glyph-name="infinity" unicode="&#x221e;" 
d="M50 350q0 61 44 106t103 45q70 0 104 -52h18q34 52 104 52q61 0 104 -44.5t43 -106.5q0 -63 -44 -107t-103 -44q-70 0 -104 52h-18q-34 -52 -104 -52q-60 0 -103.5 45t-43.5 106zM268 350q0 28 -19.5 47.5t-47.5 19.5t-47.5 -19.5t-19.5 -47.5t19.5 -47.5t47.5 -19.5
t47.5 19.5t19.5 47.5zM352 350q0 -28 19.5 -47.5t47.5 -19.5t47.5 19.5t19.5 47.5t-19.5 47.5t-47.5 19.5t-47.5 -19.5t-19.5 -47.5z" />
    <glyph glyph-name="integral" unicode="&#x222b;" 
d="M357 582v-696q0 -37 -24 -61.5t-61 -24.5h-127v88h91q27 0 27 30v696q0 37 24 61.5t61 24.5h127v-88h-91q-27 0 -27 -30z" />
    <glyph glyph-name="approxequal" unicode="&#x2248;" 
d="M337 476q12 -20 19.5 -27.5t20.5 -7.5q16 0 35 17l75 59l54 -68l-92 -73q-44 -36 -81 -36q-54 0 -83 50q-12 20 -19.5 27.5t-20.5 7.5q-15 0 -35 -17l-75 -59l-54 68l93 73q42 36 81 36q53 0 82 -50zM337 282q12 -20 19.5 -27.5t20.5 -7.5q16 0 35 17l75 60l54 -69
l-92 -73q-45 -35 -81 -35q-54 0 -83 49q-12 20 -19.5 27.5t-20.5 7.5q-15 0 -35 -17l-76 -60l-54 68l94 74q42 36 81 36q53 0 82 -50z" />
    <glyph glyph-name="notequal" unicode="&#x2260;" 
d="M101 384v86h202l34 103l84 -26l-25 -77h123v-86h-151l-23 -68h174v-86h-202l-36 -110l-85 26l28 84h-123v86h151l22 68h-173z" />
    <glyph glyph-name="lessequal" unicode="&#x2264;" 
d="M100 291v118l420 161v-96l-326 -117v-14l326 -117v-96zM100 0v84h420v-84h-420z" />
    <glyph glyph-name="greaterequal" unicode="&#x2265;" 
d="M520 291l-420 -161v96l326 117v14l-326 117v96l420 -161v-118zM520 0h-420v84h420v-84z" />
    <glyph glyph-name="lozenge" unicode="&#x25ca;" 
d="M53 350l182 350h150l182 -350l-182 -350h-150zM160 350l143 -277h14l143 277l-143 278h-14z" />
    <glyph glyph-name="uniE132" unicode="&#xe132;" horiz-adv-x="462" 
d="M109 700h111l-81 -130h-86zM342 700h111l-81 -130h-86zM161 491v-491h-94v491h94zM394 491v-608q0 -37 -23 -60t-60 -23h-131v80h93q28 0 28 30v581h93z" />
    <glyph glyph-name="uniE133" unicode="&#xe133;" horiz-adv-x="575" 
d="M113 880h111l-85 -116h-86zM456 880h111l-85 -116h-86zM67 700h99v-344h-99v344zM411 700h99v-490q0 -109 -55.5 -166.5t-159.5 -57.5q-107 0 -167.5 58.5t-60.5 165.5v28h99v-28q0 -61 32.5 -96.5t94.5 -35.5q118 0 118 132v490z" />
    <glyph glyph-name="A.ss03" horiz-adv-x="606" 
d="M210 700h186l200 -700h-104l-47 169h-284l-47 -169h-104zM184 260h238l-113 404h-12z" />
    <glyph glyph-name="Aacute.ss03" horiz-adv-x="606" 
d="M296 880h113l-82 -116h-87zM210 700h186l200 -700h-104l-47 169h-284l-47 -169h-104zM184 260h238l-113 404h-12z" />
    <glyph glyph-name="Abreve.ss03" horiz-adv-x="606" 
d="M353 880h72v-10q0 -53 -33.5 -83.5t-88.5 -30.5t-88.5 30.5t-33.5 83.5v10h72v-4q0 -22 13 -35.5t37 -13.5t37 13.5t13 35.5v4zM210 700h186l200 -700h-104l-47 169h-284l-47 -169h-104zM184 260h238l-113 404h-12z" />
    <glyph glyph-name="Acircumflex.ss03" horiz-adv-x="606" 
d="M361 764l-53 65h-11l-52 -65h-98l97 116h117l98 -116h-98zM210 700h186l200 -700h-104l-47 169h-284l-47 -169h-104zM184 260h238l-113 404h-12z" />
    <glyph glyph-name="Adieresis.ss03" horiz-adv-x="606" 
d="M133 819q0 31 20.5 51.5t51.5 20.5q32 0 52.5 -20.5t20.5 -51.5t-20.5 -51t-52.5 -20q-31 0 -51.5 20t-20.5 51zM327 819q0 31 21 51.5t52 20.5q32 0 52.5 -20.5t20.5 -51.5t-20.5 -51t-52.5 -20q-31 0 -52 20t-21 51zM210 700h186l200 -700h-104l-47 169h-284l-47 -169
h-104zM184 260h238l-113 404h-12z" />
    <glyph glyph-name="Agrave.ss03" horiz-adv-x="606" 
d="M307 880l60 -116h-86l-84 116h110zM210 700h186l200 -700h-104l-47 169h-284l-47 -169h-104zM184 260h238l-113 404h-12z" />
    <glyph glyph-name="Amacron.ss03" horiz-adv-x="606" 
d="M446 842v-78h-285v78h285zM210 700h186l200 -700h-104l-47 169h-284l-47 -169h-104zM184 260h238l-113 404h-12z" />
    <glyph glyph-name="Aogonek.ss03" horiz-adv-x="606" 
d="M590 -98h44v-68h-64q-32 0 -53 18.5t-21 51.5q0 14 5 37l13 59h-22l-47 169h-284l-47 -169h-104l200 700h186l200 -700h-13l-13 -62q-2 -14 -2 -16q0 -20 22 -20zM184 260h238l-113 404h-12z" />
    <glyph glyph-name="Aring.ss03" horiz-adv-x="606" 
d="M200 839q0 43 29 71t73 28t73.5 -28t29.5 -71q0 -44 -30 -72t-73 -28t-72.5 28.5t-29.5 71.5zM263 839q0 -17 11 -28t28 -11q18 0 28.5 11t10.5 28t-10.5 28t-28.5 11q-17 0 -28 -11t-11 -28zM210 700h186l200 -700h-104l-47 169h-284l-47 -169h-104zM184 260h238
l-113 404h-12z" />
    <glyph glyph-name="Aringacute.ss03" horiz-adv-x="606" 
d="M302 739q-43 0 -72.5 28.5t-29.5 71.5t29 71t73 28h2l30 62h112l-66 -94q25 -27 25 -67q0 -44 -30 -72t-73 -28zM302 878q-17 0 -28 -11t-11 -28t11 -28t28 -11q18 0 28.5 11t10.5 28t-10.5 28t-28.5 11zM396 700l200 -700h-104l-47 169h-284l-47 -169h-104l200 700h186z
M184 260h238l-113 404h-12z" />
    <glyph glyph-name="Atilde.ss03" horiz-adv-x="606" 
d="M130 801l42 57q31 42 74 42q41 0 74 -42l12 -14.5t9.5 -7.5t14.5 -4q18 0 34 22l28 38l60 -45l-43 -58q-31 -42 -74 -42q-41 0 -74 42q-1 2 -4 5.5t-4 4.5t-3.5 4t-3.5 4t-3.5 3t-4 2.5t-4 1.5t-4.5 1.5t-5 0.5q-18 0 -34 -23l-28 -38zM210 700h186l200 -700h-104
l-47 169h-284l-47 -169h-104zM184 260h238l-113 404h-12z" />
    <glyph glyph-name="AE.ss03" horiz-adv-x="556" 
d="M381 89h138v-89h-237v170h-129l-42 -170h-102l176 700h329v-89h-133v-215h108v-90h-108v-217zM282 260v404h-12l-99 -404h111z" />
    <glyph glyph-name="AEacute.ss03" horiz-adv-x="556" 
d="M432 880l-82 -116h-87l56 116h113zM381 89h138v-89h-237v170h-129l-42 -170h-102l176 700h329v-89h-133v-215h108v-90h-108v-217zM282 260v404h-12l-99 -404h111z" />
    <glyph glyph-name="M.ss03" horiz-adv-x="873" 
d="M68 700h193l170 -664h12l170 664h192v-700h-97v664h-12l-169 -664h-181l-169 664h-12v-664h-97v700z" />
    <glyph glyph-name="N.ss03" horiz-adv-x="652" 
d="M68 700h197l208 -664h12v664h99v-700h-197l-208 664h-12v-664h-99v700z" />
    <glyph glyph-name="Nacute.ss03" horiz-adv-x="652" 
d="M321 880h113l-82 -116h-87zM68 700h197l208 -664h12v664h99v-700h-197l-208 664h-12v-664h-99v700z" />
    <glyph glyph-name="Ncaron.ss03" horiz-adv-x="652" 
d="M386 882h98l-98 -115h-117l-97 115h98l52 -65h11zM68 700h197l208 -664h12v664h99v-700h-197l-208 664h-12v-664h-99v700z" />
    <glyph glyph-name="uni0145.ss03" horiz-adv-x="652" 
d="M68 700h197l208 -664h12v664h99v-700h-197l-208 664h-12v-664h-99v700zM251 -129q0 35 22 57t56 22q33 0 55.5 -22t22.5 -55v-100q0 -36 -22.5 -57.5t-58.5 -21.5h-71v54h62q28 0 28 27v24q-8 -2 -18 -2q-32 0 -54 21t-22 53z" />
    <glyph glyph-name="Eng.ss03" horiz-adv-x="652" 
d="M485 700h99v-786q0 -56 -29.5 -85t-84.5 -29h-165v87h133q46 0 46 47v66h-92l-213 649h-12v-649h-99v700h192l213 -648h12v648z" />
    <glyph glyph-name="Ntilde.ss03" horiz-adv-x="652" 
d="M155 801l42 57q31 42 74 42q41 0 74 -42l12 -14.5t9.5 -7.5t14.5 -4q18 0 34 22l28 38l60 -45l-43 -58q-31 -42 -74 -42q-41 0 -74 42q-1 2 -4 5.5t-4 4.5t-3.5 4t-3.5 4t-3.5 3t-4 2.5t-4 1.5t-4.5 1.5t-5 0.5q-18 0 -34 -23l-28 -38zM68 700h197l208 -664h12v664h99
v-700h-197l-208 664h-12v-664h-99v700z" />
    <glyph glyph-name="V.ss03" horiz-adv-x="603" 
d="M11 700h103l182 -664h12l182 664h103l-198 -700h-187z" />
    <glyph glyph-name="W.ss03" horiz-adv-x="886" 
d="M25 700h99l95 -664h12l121 664h182l121 -664h12l94 664h100l-106 -700h-185l-121 664h-12l-121 -664h-185z" />
    <glyph glyph-name="Wacute.ss03" horiz-adv-x="886" 
d="M436 880h113l-82 -116h-87zM25 700h99l95 -664h12l121 664h182l121 -664h12l94 664h100l-106 -700h-185l-121 664h-12l-121 -664h-185z" />
    <glyph glyph-name="Wcircumflex.ss03" horiz-adv-x="886" 
d="M501 764l-53 65h-11l-52 -65h-98l97 116h117l98 -116h-98zM25 700h99l95 -664h12l121 664h182l121 -664h12l94 664h100l-106 -700h-185l-121 664h-12l-121 -664h-185z" />
    <glyph glyph-name="Wdieresis.ss03" horiz-adv-x="886" 
d="M273 819q0 31 20.5 51.5t51.5 20.5q32 0 52.5 -20.5t20.5 -51.5t-20.5 -51t-52.5 -20q-31 0 -51.5 20t-20.5 51zM467 819q0 31 21 51.5t52 20.5q32 0 52.5 -20.5t20.5 -51.5t-20.5 -51t-52.5 -20q-31 0 -52 20t-21 51zM25 700h99l95 -664h12l121 664h182l121 -664h12
l94 664h100l-106 -700h-185l-121 664h-12l-121 -664h-185z" />
    <glyph glyph-name="Wgrave.ss03" horiz-adv-x="886" 
d="M447 880l60 -116h-86l-84 116h110zM25 700h99l95 -664h12l121 664h182l121 -664h12l94 664h100l-106 -700h-185l-121 664h-12l-121 -664h-185z" />
    <glyph glyph-name="I.ss04" horiz-adv-x="412" 
d="M36 700h340v-87h-120v-526h120v-87h-340v87h121v526h-121v87z" />
    <glyph glyph-name="IJ.ss04" horiz-adv-x="687" 
d="M36 700h268v-89h-85v-269h-98v269h-85v89zM390 700h275v-89h-84v-401q0 -109 -58 -166.5t-166 -57.5q-111 0 -173.5 58.5t-62.5 165.5v36h98v-36q0 -61 35.5 -96.5t101.5 -35.5q126 0 126 132v401h-92v89z" />
    <glyph glyph-name="Iacute.ss04" horiz-adv-x="412" 
d="M200 880h113l-82 -116h-87zM36 700h340v-87h-120v-526h120v-87h-340v87h121v526h-121v87z" />
    <glyph glyph-name="Icircumflex.ss04" horiz-adv-x="412" 
d="M264 764l-53 65h-11l-52 -65h-98l97 116h117l98 -116h-98zM36 700h340v-87h-120v-526h120v-87h-340v87h121v526h-121v87z" />
    <glyph glyph-name="Idieresis.ss04" horiz-adv-x="412" 
d="M36 819q0 31 20.5 51.5t51.5 20.5q32 0 52.5 -20.5t20.5 -51.5t-20.5 -51t-52.5 -20q-31 0 -51.5 20t-20.5 51zM230 819q0 31 21 51.5t52 20.5q32 0 52.5 -20.5t20.5 -51.5t-20.5 -51t-52.5 -20q-31 0 -52 20t-21 51zM36 700h340v-87h-120v-526h120v-87h-340v87h121v526
h-121v87z" />
    <glyph glyph-name="Idotaccent.ss04" horiz-adv-x="412" 
d="M134 819q0 31 20.5 51.5t51.5 20.5q32 0 52.5 -20.5t20.5 -51.5t-20.5 -51t-52.5 -20q-31 0 -51.5 20t-20.5 51zM36 700h340v-87h-120v-526h120v-87h-340v87h121v526h-121v87z" />
    <glyph glyph-name="Igrave.ss04" horiz-adv-x="412" 
d="M210 880l60 -116h-86l-84 116h110zM36 700h340v-87h-120v-526h120v-87h-340v87h121v526h-121v87z" />
    <glyph glyph-name="Imacron.ss04" horiz-adv-x="412" 
d="M349 842v-78h-285v78h285zM36 700h340v-87h-120v-526h120v-87h-340v87h121v526h-121v87z" />
    <glyph glyph-name="Iogonek.ss04" horiz-adv-x="412" 
d="M376 613h-120v-526h120v-87h-136l-13 -62q-2 -14 -2 -16q0 -20 22 -20h44v-68h-64q-32 0 -53 18.5t-21 51.5q0 14 5 37l13 59h-135v87h121v526h-121v87h340v-87z" />
    <glyph glyph-name="J.ss04" horiz-adv-x="570" 
d="M248 700h300v-87h-75v-403q0 -108 -55.5 -166t-158.5 -58q-105 0 -165.5 58.5t-60.5 165.5v58h99v-58q0 -61 32 -96.5t93 -35.5q117 0 117 132v403h-126v87z" />
    <glyph glyph-name="R.ss05" horiz-adv-x="619" 
d="M68 700h291q99 0 159 -53.5t60 -143.5q0 -122 -112 -164v-12q39 -2 62.5 -25.5t23.5 -66.5v-235h-98v220q0 60 -62 60h-225v-280h-99v700zM167 611v-241h181q62 0 96.5 32t34.5 88t-34.5 88.5t-96.5 32.5h-181z" />
    <glyph glyph-name="Racute.ss05" horiz-adv-x="619" 
d="M296 880h113l-82 -116h-87zM68 700h291q99 0 159 -53.5t60 -143.5q0 -122 -112 -164v-12q39 -2 62.5 -25.5t23.5 -66.5v-235h-98v220q0 60 -62 60h-225v-280h-99v700zM167 611v-241h181q62 0 96.5 32t34.5 88t-34.5 88.5t-96.5 32.5h-181z" />
    <glyph glyph-name="Rcaron.ss05" horiz-adv-x="619" 
d="M361 882h98l-98 -115h-117l-97 115h98l52 -65h11zM68 700h291q99 0 159 -53.5t60 -143.5q0 -122 -112 -164v-12q39 -2 62.5 -25.5t23.5 -66.5v-235h-98v220q0 60 -62 60h-225v-280h-99v700zM167 611v-241h181q62 0 96.5 32t34.5 88t-34.5 88.5t-96.5 32.5h-181z" />
    <glyph glyph-name="uni0156.ss05" horiz-adv-x="619" 
d="M68 700h291q99 0 159 -53.5t60 -143.5q0 -122 -112 -164v-12q39 -2 62.5 -25.5t23.5 -66.5v-235h-98v220q0 60 -62 60h-225v-280h-99v700zM167 611v-241h181q62 0 96.5 32t34.5 88t-34.5 88.5t-96.5 32.5h-181zM232 -129q0 35 22 57t56 22q33 0 55.5 -22t22.5 -55v-100
q0 -36 -22.5 -57.5t-58.5 -21.5h-71v54h62q28 0 28 27v24q-8 -2 -18 -2q-32 0 -54 21t-22 53z" />
    <glyph glyph-name="i.loclTRK" horiz-adv-x="228" 
d="M42 640q0 31 20.5 51.5t51.5 20.5q32 0 52.5 -20.5t20.5 -51.5t-20.5 -51t-52.5 -20q-31 0 -51.5 20t-20.5 51zM161 491v-491h-94v491h94z" />
    <glyph glyph-name="uni006A0301" horiz-adv-x="234" 
d="M114 700h111l-81 -130h-86zM166 491v-608q0 -37 -23 -60t-60 -23h-131v80h93q28 0 28 30v581h93z" />
    <glyph glyph-name="a.ss01" horiz-adv-x="612" 
d="M545 0h-92v80h-14q-54 -94 -172 -94q-98 0 -164.5 73t-66.5 186q0 114 66.5 187t164.5 73q118 0 172 -94h14v80h92v-491zM290 70q71 0 116 47.5t45 127.5t-45 128t-116 48q-70 0 -114.5 -47.5t-44.5 -128.5t44.5 -128t114.5 -47z" />
    <glyph glyph-name="aacute.ss01" horiz-adv-x="612" 
d="M301 700h111l-81 -130h-86zM545 0h-92v80h-14q-54 -94 -172 -94q-98 0 -164.5 73t-66.5 186q0 114 66.5 187t164.5 73q118 0 172 -94h14v80h92v-491zM290 70q71 0 116 47.5t45 127.5t-45 128t-116 48q-70 0 -114.5 -47.5t-44.5 -128.5t44.5 -128t114.5 -47z" />
    <glyph glyph-name="abreve.ss01" horiz-adv-x="612" 
d="M357 700h72v-23q0 -54 -33.5 -85t-88.5 -31t-88.5 31t-33.5 85v23h72v-17q0 -23 13 -37t37 -14t37 14t13 37v17zM545 0h-92v80h-14q-54 -94 -172 -94q-98 0 -164.5 73t-66.5 186q0 114 66.5 187t164.5 73q118 0 172 -94h14v80h92v-491zM290 70q71 0 116 47.5t45 127.5
t-45 128t-116 48q-70 0 -114.5 -47.5t-44.5 -128.5t44.5 -128t114.5 -47z" />
    <glyph glyph-name="acircumflex.ss01" horiz-adv-x="612" 
d="M365 570l-54 75h-11l-54 -75h-96l97 130h118l97 -130h-97zM545 0h-92v80h-14q-54 -94 -172 -94q-98 0 -164.5 73t-66.5 186q0 114 66.5 187t164.5 73q118 0 172 -94h14v80h92v-491zM290 70q71 0 116 47.5t45 127.5t-45 128t-116 48q-70 0 -114.5 -47.5t-44.5 -128.5
t44.5 -128t114.5 -47z" />
    <glyph glyph-name="adieresis.ss01" horiz-adv-x="612" 
d="M140 640q0 31 20.5 51.5t51.5 20.5q32 0 52.5 -20.5t20.5 -51.5t-20.5 -51t-52.5 -20q-31 0 -51.5 20t-20.5 51zM328 640q0 31 21 51.5t52 20.5q32 0 52.5 -20.5t20.5 -51.5t-20.5 -51t-52.5 -20q-31 0 -52 20t-21 51zM545 0h-92v80h-14q-54 -94 -172 -94
q-98 0 -164.5 73t-66.5 186q0 114 66.5 187t164.5 73q118 0 172 -94h14v80h92v-491zM290 70q71 0 116 47.5t45 127.5t-45 128t-116 48q-70 0 -114.5 -47.5t-44.5 -128.5t44.5 -128t114.5 -47z" />
    <glyph glyph-name="agrave.ss01" horiz-adv-x="612" 
d="M309 700l61 -130h-85l-85 130h109zM545 0h-92v80h-14q-54 -94 -172 -94q-98 0 -164.5 73t-66.5 186q0 114 66.5 187t164.5 73q118 0 172 -94h14v80h92v-491zM290 70q71 0 116 47.5t45 127.5t-45 128t-116 48q-70 0 -114.5 -47.5t-44.5 -128.5t44.5 -128t114.5 -47z" />
    <glyph glyph-name="amacron.ss01" horiz-adv-x="612" 
d="M449 647v-77h-285v77h285zM545 0h-92v80h-14q-54 -94 -172 -94q-98 0 -164.5 73t-66.5 186q0 114 66.5 187t164.5 73q118 0 172 -94h14v80h92v-491zM290 70q71 0 116 47.5t45 127.5t-45 128t-116 48q-70 0 -114.5 -47.5t-44.5 -128.5t44.5 -128t114.5 -47z" />
    <glyph glyph-name="aogonek.ss01" horiz-adv-x="612" 
d="M540 -98h44v-68h-64q-32 0 -53 18.5t-21 51.5q0 14 5 37l13 59h-11v80h-14q-54 -94 -172 -94q-98 0 -164.5 73t-66.5 186q0 114 66.5 187t164.5 73q118 0 172 -94h14v80h92v-491h-12l-13 -62q-2 -14 -2 -16q0 -20 22 -20zM290 70q71 0 116 47.5t45 127.5t-45 128t-116 48
q-70 0 -114.5 -47.5t-44.5 -128.5t44.5 -128t114.5 -47z" />
    <glyph glyph-name="aring.ss01" horiz-adv-x="612" 
d="M204 639q0 43 29 71t73 28t73.5 -28t29.5 -71q0 -44 -29.5 -71.5t-73.5 -27.5q-43 0 -72.5 28.5t-29.5 70.5zM267 639q0 -17 11 -28t28 -11q18 0 28.5 11t10.5 28t-10.5 28t-28.5 11q-17 0 -28 -11t-11 -28zM545 0h-92v80h-14q-54 -94 -172 -94q-98 0 -164.5 73
t-66.5 186q0 114 66.5 187t164.5 73q118 0 172 -94h14v80h92v-491zM290 70q71 0 116 47.5t45 127.5t-45 128t-116 48q-70 0 -114.5 -47.5t-44.5 -128.5t44.5 -128t114.5 -47z" />
    <glyph glyph-name="aringacute.ss01" horiz-adv-x="612" 
d="M306 540q-43 0 -72.5 28.5t-29.5 70.5t28.5 70t71.5 29l40 92h111l-75 -120q29 -29 29 -71q0 -44 -29.5 -71.5t-73.5 -27.5zM306 678q-17 0 -28 -11t-11 -28t11 -28t28 -11q18 0 28.5 11t10.5 28t-10.5 28t-28.5 11zM453 491h92v-491h-92v80h-14q-54 -94 -172 -94
q-98 0 -164.5 73t-66.5 186q0 114 66.5 187t164.5 73q118 0 172 -94h14v80zM290 70q71 0 116 47.5t45 127.5t-45 128t-116 48q-70 0 -114.5 -47.5t-44.5 -128.5t44.5 -128t114.5 -47z" />
    <glyph glyph-name="atilde.ss01" horiz-adv-x="612" 
d="M128 615l45 61q32 43 78 43q38 0 72 -44q8 -11 12 -15.5t10 -8.5t14 -4q18 0 34 22l32 42l59 -45l-46 -61q-32 -43 -78 -43q-37 0 -71 44q-8 11 -12 15.5t-10.5 8.5t-14.5 4q-17 0 -34 -22l-31 -42zM545 0h-92v80h-14q-54 -94 -172 -94q-98 0 -164.5 73t-66.5 186
q0 114 66.5 187t164.5 73q118 0 172 -94h14v80h92v-491zM290 70q71 0 116 47.5t45 127.5t-45 128t-116 48q-70 0 -114.5 -47.5t-44.5 -128.5t44.5 -128t114.5 -47z" />
    <glyph glyph-name="g.ss02" horiz-adv-x="612" 
d="M453 491h92v-608q0 -37 -23 -60t-61 -23h-381v80h343q28 0 28 30v182h-12q-53 -93 -172 -93q-98 0 -164.5 71t-66.5 182t66.5 182t164.5 71q118 0 172 -94h14v80zM290 83q71 0 116 46t45 123t-45 123t-116 46t-115 -45t-44 -124t44 -124t115 -45z" />
    <glyph glyph-name="gbreve.ss02" horiz-adv-x="612" 
d="M309 561q-55 0 -88.5 31t-33.5 85v23h72v-17q0 -23 13 -37t37 -14t37 14t13 37v17h72v-23q0 -54 -33.5 -85t-88.5 -31zM453 491h92v-608q0 -37 -23 -60t-61 -23h-381v80h343q28 0 28 30v182h-12q-53 -93 -172 -93q-98 0 -164.5 71t-66.5 182t66.5 182t164.5 71
q118 0 172 -94h14v80zM290 83q71 0 116 46t45 123t-45 123t-116 46t-115 -45t-44 -124t44 -124t115 -45z" />
    <glyph glyph-name="uni0123.ss02" horiz-adv-x="612" 
d="M309 562q-34 0 -56 22t-22 56v99q0 36 22.5 58t57.5 22h71v-55h-61q-29 0 -29 -27v-23q8 2 19 2q32 0 54 -21.5t22 -53.5q0 -34 -22.5 -56.5t-55.5 -22.5zM453 491h92v-608q0 -37 -23 -60t-61 -23h-381v80h343q28 0 28 30v182h-12q-53 -93 -172 -93q-98 0 -164.5 71
t-66.5 182t66.5 182t164.5 71q118 0 172 -94h14v80zM290 83q71 0 116 46t45 123t-45 123t-116 46t-115 -45t-44 -124t44 -124t115 -45z" />
    <glyph glyph-name="gdotaccent.ss02" horiz-adv-x="612" 
d="M308 569q-31 0 -51.5 20t-20.5 51t20.5 51.5t51.5 20.5q32 0 52.5 -20.5t20.5 -51.5t-20.5 -51t-52.5 -20zM453 491h92v-608q0 -37 -23 -60t-61 -23h-381v80h343q28 0 28 30v182h-12q-53 -93 -172 -93q-98 0 -164.5 71t-66.5 182t66.5 182t164.5 71q118 0 172 -94h14v80z
M290 83q71 0 116 46t45 123t-45 123t-116 46t-115 -45t-44 -124t44 -124t115 -45z" />
    <glyph glyph-name="v.ss03" horiz-adv-x="531" 
d="M17 491h101l141 -455h12l142 455h101l-163 -491h-171z" />
    <glyph glyph-name="w.ss03" horiz-adv-x="771" 
d="M32 491h95l71 -455h12l93 455h165l92 -455h12l72 455h94l-85 -491h-169l-93 455h-12l-92 -455h-169z" />
    <glyph glyph-name="wacute.ss03" horiz-adv-x="771" 
d="M380 700h111l-81 -130h-86zM32 491h95l71 -455h12l93 455h165l92 -455h12l72 455h94l-85 -491h-169l-93 455h-12l-92 -455h-169z" />
    <glyph glyph-name="wcircumflex.ss03" horiz-adv-x="771" 
d="M445 570l-54 75h-11l-54 -75h-96l97 130h118l97 -130h-97zM32 491h95l71 -455h12l93 455h165l92 -455h12l72 455h94l-85 -491h-169l-93 455h-12l-92 -455h-169z" />
    <glyph glyph-name="wdieresis.ss03" horiz-adv-x="771" 
d="M219 640q0 31 20.5 51.5t51.5 20.5q32 0 52.5 -20.5t20.5 -51.5t-20.5 -51t-52.5 -20q-31 0 -51.5 20t-20.5 51zM407 640q0 31 21 51.5t52 20.5q32 0 52.5 -20.5t20.5 -51.5t-20.5 -51t-52.5 -20q-31 0 -52 20t-21 51zM32 491h95l71 -455h12l93 455h165l92 -455h12
l72 455h94l-85 -491h-169l-93 455h-12l-92 -455h-169z" />
    <glyph glyph-name="wgrave.ss03" horiz-adv-x="771" 
d="M388 700l61 -130h-85l-85 130h109zM32 491h95l71 -455h12l93 455h165l92 -455h12l72 455h94l-85 -491h-169l-93 455h-12l-92 -455h-169z" />
    <glyph glyph-name="y.ss03" horiz-adv-x="548" 
d="M430 491h101l-239 -691h-101l75 200h-79l-170 491h101l150 -455h12z" />
    <glyph glyph-name="yacute.ss03" horiz-adv-x="548" 
d="M380 700l-81 -130h-86l56 130h111zM430 491h101l-239 -691h-101l75 200h-79l-170 491h101l150 -455h12z" />
    <glyph glyph-name="ycircumflex.ss03" horiz-adv-x="548" 
d="M268 645l-54 -75h-96l97 130h118l97 -130h-97l-54 75h-11zM430 491h101l-239 -691h-101l75 200h-79l-170 491h101l150 -455h12z" />
    <glyph glyph-name="ydieresis.ss03" horiz-adv-x="548" 
d="M179 569q-31 0 -51.5 20t-20.5 51t20.5 51.5t51.5 20.5q32 0 52.5 -20.5t20.5 -51.5t-20.5 -51t-52.5 -20zM368 569q-31 0 -52 20t-21 51t21 51.5t52 20.5q32 0 52.5 -20.5t20.5 -51.5t-20.5 -51t-52.5 -20zM430 491h101l-239 -691h-101l75 200h-79l-170 491h101
l150 -455h12z" />
    <glyph glyph-name="ygrave.ss03" horiz-adv-x="548" 
d="M337 570h-85l-85 130h109zM430 491h101l-239 -691h-101l75 200h-79l-170 491h101l150 -455h12z" />
    <glyph glyph-name="ae.ss06" horiz-adv-x="575" 
d="M543 220h-218v-148q83 13 122 86l72 -53q-79 -119 -241 -119q-111 0 -178 43t-67 118q0 68 53.5 105t133.5 37h16v130q-39 -2 -75 -27t-53 -64l-68 51q85 126 239 126q118 0 191 -68t73 -181v-36zM446 289q-4 53 -35.5 86t-85.5 43v-129h121zM220 70h16v150h-16
q-43 0 -69.5 -19.5t-26.5 -55.5q0 -34 28.5 -54.5t67.5 -20.5z" />
    <glyph glyph-name="aeacute.ss06" horiz-adv-x="575" 
d="M387 700l-81 -130h-86l56 130h111zM543 220h-218v-148q83 13 122 86l72 -53q-79 -119 -241 -119q-111 0 -178 43t-67 118q0 68 53.5 105t133.5 37h16v130q-39 -2 -75 -27t-53 -64l-68 51q85 126 239 126q118 0 191 -68t73 -181v-36zM446 289q-4 53 -35.5 86t-85.5 43
v-129h121zM220 70h16v150h-16q-43 0 -69.5 -19.5t-26.5 -55.5q0 -34 28.5 -54.5t67.5 -20.5z" />
    <glyph glyph-name="oe.ss06" horiz-adv-x="602" 
d="M570 220h-217v-148q81 12 121 87l73 -52q-81 -121 -236 -121q-124 0 -199.5 72t-75.5 187t75 187.5t197 72.5q119 0 190.5 -67.5t71.5 -181.5v-36zM473 289q-5 53 -35.5 86t-84.5 43v-129h120zM130 245q0 -69 35 -114.5t99 -57.5v345q-64 -13 -99 -59t-35 -114z" />
    <glyph glyph-name="zero.lf" horiz-adv-x="608" 
d="M44 430q0 136 69.5 210t190.5 74t190 -74t69 -210v-160q0 -137 -69 -210.5t-190 -73.5t-190.5 73.5t-69.5 210.5v160zM143 435v-170q0 -91 40.5 -141t120.5 -50t120.5 50.5t40.5 140.5v170q0 89 -42 140t-119 51t-119 -51t-42 -140z" />
    <glyph glyph-name="one.lf" horiz-adv-x="416" 
d="M195 700h153l-1 -700h-99v594h-12l-124 -201h-108z" />
    <glyph glyph-name="two.lf" horiz-adv-x="576" 
d="M39 470q0 114 73 179t183 65q106 0 176 -62.5t70 -165.5q0 -96 -57 -152t-170 -85q-49 -12 -76 -22t-52.5 -26t-36 -38.5t-10.5 -55.5v-18h402v-89h-501v97q0 97 58 149t169 81q88 22 132 59.5t44 101.5t-40 101t-107 37q-70 0 -114 -41t-44 -118v-21h-99v24z" />
    <glyph glyph-name="three.lf" horiz-adv-x="575" 
d="M47 700h486v-88l-219 -183v-12h25q87 0 145 -54.5t58 -148.5q0 -101 -71 -164.5t-181 -63.5q-120 0 -190 64.5t-70 174.5v31h99v-30q0 -71 43 -111.5t118 -40.5q70 0 111.5 40t41.5 101q0 62 -40.5 95t-104.5 33h-106v91l208 176h-353v90z" />
    <glyph glyph-name="four.lf" horiz-adv-x="600" 
d="M315 700h158v-470h119v-89h-119v-141h-99v141h-362v86zM362 612l-245 -382h257v382h-12z" />
    <glyph glyph-name="five.lf" horiz-adv-x="573" 
d="M57 700h464v-89h-365v-227h12q48 87 163 87q89 0 150 -62.5t61 -166.5q0 -114 -69 -185t-183 -71q-115 0 -185.5 65.5t-70.5 173.5v22h98v-16q0 -74 41.5 -115.5t113.5 -41.5q73 0 114 44t41 121q0 68 -37 108t-98 40q-80 0 -115 -67h-135v380z" />
    <glyph glyph-name="six.lf" horiz-adv-x="580" 
d="M547 229q0 -108 -71 -174.5t-181 -67.5q-108 -2 -179.5 64t-71.5 172v244q0 115 70.5 181t186.5 66q110 0 175 -60.5t65 -158.5h-100q0 60 -36 95.5t-104 35.5q-75 0 -116.5 -40t-41.5 -112v-92h12q50 81 166 81q97 0 161.5 -65.5t64.5 -168.5zM296 385q-68 0 -110.5 -43
t-42.5 -113t42.5 -112t110.5 -42q67 0 109.5 42t42.5 112t-42 113t-110 43z" />
    <glyph glyph-name="seven.lf" horiz-adv-x="537" 
d="M10 700h516v-86l-291 -614h-110l288 610h-403v90z" />
    <glyph glyph-name="eight.lf" horiz-adv-x="575" 
d="M43 525q0 83 67.5 136t176.5 53q110 0 177.5 -53t67.5 -136q0 -113 -119 -157v-12q50 -12 90 -55.5t40 -113.5q0 -90 -71 -145.5t-185 -55.5q-113 0 -184.5 55.5t-71.5 145.5q0 70 40.5 113.5t90.5 55.5v12q-119 44 -119 157zM142 515q0 -51 40.5 -81t104.5 -30
q65 0 105.5 29.5t40.5 81.5t-40.5 81.5t-105.5 29.5t-105 -29.5t-40 -81.5zM130 195q0 -57 42.5 -89t114.5 -32q73 0 115.5 32t42.5 89t-42.5 89t-115.5 32q-72 0 -114.5 -32t-42.5 -89z" />
    <glyph glyph-name="nine.lf" horiz-adv-x="581" 
d="M34 471q0 108 71 175t181 68q108 1 179 -65t71 -171v-244q0 -115 -70 -181t-186 -66q-111 0 -175.5 60t-64.5 158h100q0 -59 36 -94.5t104 -35.5q75 0 116 39.5t41 111.5v92h-12q-48 -81 -166 -81q-96 0 -160.5 66t-64.5 168zM285 315q68 0 110 43t42 113q0 71 -42 113
t-110 42q-67 0 -109.5 -42.5t-42.5 -112.5t42 -113t110 -43z" />
    <glyph glyph-name="one.lf.ss03" horiz-adv-x="416" 
d="M159 700h189l-1 -700h-99v653h-12l-124 -260h-108z" />
    <glyph glyph-name="zero.lf.zero" horiz-adv-x="608" 
d="M304 714q121 0 190 -74t69 -210v-160q0 -137 -69 -210.5t-190 -73.5t-190.5 73.5t-69.5 210.5v160q0 136 69.5 210t190.5 74zM304 626q-77 0 -119 -51t-42 -140v-155l315 221q-14 60 -53.5 92.5t-100.5 32.5zM304 74q80 0 120.5 50.5t40.5 140.5v155l-315 -222
q27 -124 154 -124z" />
    <glyph glyph-name="zero.osf" horiz-adv-x="591" 
d="M36 248q0 116 73 189t186 73q114 0 187 -73t73 -189t-73 -189t-187 -73q-113 0 -186 73t-73 189zM135 248q0 -76 44.5 -125t115.5 -49q70 0 115.5 50t45.5 124q0 75 -45 124.5t-116 49.5q-70 0 -115 -50t-45 -124z" />
    <glyph glyph-name="one.osf" horiz-adv-x="405" 
d="M165 491h173v-491h-100v418h-12l-102 -145h-103v8z" />
    <glyph glyph-name="two.osf" horiz-adv-x="572" 
d="M35 361q123 144 291 144q97 0 151.5 -44.5t54.5 -116.5q0 -81 -57 -117.5t-174 -51.5q-91 -11 -125 -28t-38 -58h394v-89h-495v43q0 97 55.5 144.5t178.5 62.5q87 11 124.5 29.5t37.5 59.5q0 37 -31.5 57t-86.5 20q-60 0 -114 -30t-90 -82z" />
    <glyph glyph-name="three.osf" horiz-adv-x="577" 
d="M126 25q2 -69 45 -107.5t117 -38.5q69 0 110.5 39t41.5 98q0 61 -40 94t-104 33h-108v85l205 173h-348v90h486v-85l-212 -176v-12h16q87 0 145.5 -54t58.5 -147q0 -101 -70.5 -163.5t-180.5 -62.5q-115 0 -184.5 59t-76.5 161z" />
    <glyph glyph-name="four.osf" horiz-adv-x="597" 
d="M308 491h163v-402h118v-89h-118v-200h-99v200h-351v84zM360 412l-232 -323h244v323h-12z" />
    <glyph glyph-name="five.osf" horiz-adv-x="580" 
d="M135 23q2 -71 44 -110t112 -39q72 0 113.5 44t41.5 119q0 68 -37.5 108t-98.5 40q-80 0 -115 -68h-135v374h464v-89h-365v-220h12q50 87 163 87q89 0 150 -62.5t61 -165.5q0 -113 -69 -184t-183 -71q-111 0 -181 61.5t-74 164.5z" />
    <glyph glyph-name="six.osf" horiz-adv-x="585" 
d="M444 513l99 12q-10 86 -74 137.5t-166 51.5q-116 0 -187 -66t-71 -181v-244q0 -106 71 -172t179 -64q110 1 181 67.5t71 174.5q0 102 -64.5 168t-160.5 66q-117 0 -167 -81h-12v92q0 72 42.5 112t117.5 40q63 0 99.5 -30.5t41.5 -82.5zM296 385q68 0 110 -43t42 -113
t-42.5 -112t-109.5 -42q-68 0 -110.5 42t-42.5 112t42.5 113t110.5 43z" />
    <glyph glyph-name="seven.osf" horiz-adv-x="551" 
d="M18 491h515v-86l-290 -605h-111l289 601h-403v90z" />
    <glyph glyph-name="eight.osf" horiz-adv-x="585" 
d="M48 525q0 83 67.5 136t177.5 53q109 0 176.5 -53t67.5 -136q0 -113 -119 -157v-12q50 -12 90.5 -55.5t40.5 -113.5q0 -90 -71.5 -145.5t-184.5 -55.5q-114 0 -185 55.5t-71 145.5q0 70 40 113.5t90 55.5v12q-119 44 -119 157zM147 515q0 -52 40.5 -81.5t105.5 -29.5
q64 0 104.5 30t40.5 81q0 52 -40 81.5t-105 29.5t-105.5 -29.5t-40.5 -81.5zM135 195q0 -57 42.5 -89t115.5 -32q72 0 114.5 32t42.5 89t-42.5 89t-114.5 32q-73 0 -115.5 -32t-42.5 -89z" />
    <glyph glyph-name="nine.osf" horiz-adv-x="585" 
d="M146 -19q7 -50 42.5 -78.5t96.5 -28.5q74 0 115.5 40t41.5 112v83h-12q-48 -81 -166 -81q-97 0 -161 65.5t-64 168.5q0 108 71 175t181 68q108 1 179 -65t71 -171v-236q0 -115 -70 -181t-186 -66q-100 0 -163.5 50t-74.5 133zM290 106q68 0 110 43t42 113t-42 112.5
t-110 42.5t-110.5 -42.5t-42.5 -112.5t42.5 -113t110.5 -43z" />
    <glyph glyph-name="one.osf.ss03" horiz-adv-x="405" 
d="M151 491h187v-491h-100v444h-12l-102 -171h-103z" />
    <glyph glyph-name="zero.osf.zero" horiz-adv-x="591" 
d="M295 505q114 0 187 -72.5t73 -187.5q0 -114 -73 -186.5t-187 -72.5q-113 0 -186 72.5t-73 186.5q0 115 73 187.5t186 72.5zM295 417q-70 0 -115 -49.5t-45 -122.5q0 -33 9 -61l266 184q-44 49 -115 49zM295 74q71 0 116 49t45 122q0 35 -10 62l-266 -185q45 -48 115 -48z
" />
    <glyph glyph-name="one.ss03" horiz-adv-x="416" 
d="M159 700h189l-1 -700h-99v653h-12l-124 -260h-108z" />
    <glyph glyph-name="zero.tf" 
d="M61 430q0 136 66 210t183 74t183 -74t66 -210v-160q0 -138 -66 -211t-183 -73t-183 73t-66 211v160zM160 434v-168q0 -91 37.5 -141t112.5 -50q76 0 113 50t37 141v168q0 90 -38.5 140.5t-111.5 50.5t-111.5 -51t-38.5 -140z" />
    <glyph glyph-name="one.tf" 
d="M398 89h180v-89h-513v89h234v505h-12l-97 -201h-105l153 307h161z" />
    <glyph glyph-name="two.tf" 
d="M65 470q0 114 73 179t183 65q106 0 176 -62.5t70 -165.5q0 -96 -57 -152t-170 -85q-49 -12 -76 -22t-52.5 -26t-36 -38.5t-10.5 -55.5v-18h402v-89h-501v97q0 97 58 149t169 81q88 22 132 59.5t44 101.5q0 63 -40 99t-107 36q-71 0 -114.5 -40t-43.5 -116v-21h-99v24z
" />
    <glyph glyph-name="three.tf" 
d="M69 700h485v-90l-219 -181v-12h25q87 0 145 -54.5t58 -148.5q0 -101 -70.5 -164.5t-181.5 -63.5q-120 0 -190 64.5t-70 174.5v31h99v-29q0 -71 42.5 -110.5t118.5 -39.5q70 0 111.5 39t41.5 99q0 62 -40 95t-104 33h-107v91l207 173h-351v93z" />
    <glyph glyph-name="four.tf" 
d="M325 700h158v-470h118v-89h-118v-141h-99v141h-349v86zM372 612l-233 -382h245v382h-12z" />
    <glyph glyph-name="five.tf" 
d="M79 700h464v-92h-365v-224h12q48 87 163 87q89 0 150 -62.5t61 -166.5q0 -114 -69 -185t-183 -71q-115 0 -185.5 65.5t-70.5 173.5v22h98v-16q0 -73 41.5 -113.5t113.5 -40.5q73 0 114 43t41 119q0 68 -37 108t-98 40q-80 0 -115 -67h-135v380z" />
    <glyph glyph-name="six.tf" 
d="M564 229q0 -108 -71 -174.5t-181 -67.5q-108 -2 -179 64.5t-71 171.5v244q0 115 70 181t186 66q110 0 175 -60.5t65 -158.5h-100q0 60 -35.5 95t-104.5 35q-75 0 -116 -40t-41 -111v-92h12q48 81 166 81q96 0 160.5 -66t64.5 -168zM313 383q-68 0 -110 -42t-42 -112
t42 -111t110 -41t110.5 41.5t42.5 110.5t-42 111.5t-111 42.5z" />
    <glyph glyph-name="seven.tf" 
d="M37 700h544v-87l-307 -613h-110l305 609h-432v91z" />
    <glyph glyph-name="eight.tf" 
d="M66 525q0 83 67.5 136t176.5 53t176.5 -53t67.5 -136q0 -62 -34 -100t-84 -57v-12q50 -12 90 -55.5t40 -113.5q0 -90 -71.5 -145.5t-184.5 -55.5t-184.5 55.5t-71.5 145.5q0 70 40 113.5t90 55.5v12q-50 19 -84 57t-34 100zM165 515q0 -51 40 -80t105 -29t105.5 29
t40.5 80t-40.5 79.5t-105.5 28.5t-105 -28.5t-40 -79.5zM153 196q0 -56 42 -87.5t115 -31.5t115 31.5t42 87.5t-42 87.5t-115 31.5t-115 -31.5t-42 -87.5z" />
    <glyph glyph-name="nine.tf" 
d="M59 471q0 108 71 175t181 68q108 1 179 -65t71 -171v-244q0 -115 -70 -181t-186 -66q-110 0 -175 60t-65 158h100q0 -59 36 -94t104 -35q75 0 116.5 39.5t41.5 110.5v92h-12q-50 -81 -167 -81q-96 0 -160.5 66t-64.5 168zM310 318q68 0 110.5 42t42.5 111q0 70 -42.5 111
t-110.5 41q-67 0 -109.5 -41.5t-42.5 -110.5t42 -111t110 -42z" />
    <glyph glyph-name="one.tf.ss03" 
d="M398 89h180v-89h-513v89h234v564h-12l-97 -260h-105l125 307h189z" />
    <glyph glyph-name="zero.tf.zero" 
d="M310 714q117 0 183 -74t66 -210v-160q0 -138 -66 -211t-183 -73t-183 73t-66 211v160q0 136 66 210t183 74zM310 625q-73 0 -111.5 -51t-38.5 -140v-146l295 207q-12 62 -49 96t-96 34zM310 75q76 0 113 50t37 141v146l-295 -207q24 -130 145 -130z" />
    <glyph glyph-name="zero.tosf" 
d="M51 252q0 114 72.5 186t186.5 72t186.5 -72t72.5 -186v-8q0 -114 -72.5 -186t-186.5 -72t-186.5 72t-72.5 186v8zM150 254v-12q0 -74 44.5 -120.5t115.5 -46.5t115.5 47t44.5 120v12q0 74 -44.5 120.5t-115.5 46.5t-115.5 -47.5t-44.5 -119.5z" />
    <glyph glyph-name="one.tosf" 
d="M231 491h175v-402h174v-89h-528v89h254v331h-14l-91 -147h-103v8z" />
    <glyph glyph-name="two.tosf" 
d="M60 361q123 144 291 144q97 0 151.5 -44.5t54.5 -116.5q0 -81 -57 -117.5t-174 -51.5q-91 -11 -125 -28t-38 -58h394v-89h-495v43q0 97 55.5 144.5t178.5 62.5q87 11 124.5 29.5t37.5 59.5q0 37 -31.5 57t-86.5 20q-59 0 -113.5 -30t-90.5 -82z" />
    <glyph glyph-name="three.tosf" 
d="M145 25q2 -69 44.5 -107.5t116.5 -38.5q69 0 111 39t42 98q0 61 -40 94t-104 33h-108v85l204 173h-347v90h485v-85l-212 -176v-12h16q87 0 146 -54t59 -147q0 -101 -70.5 -163.5t-181.5 -62.5q-115 0 -184 59t-76 161z" />
    <glyph glyph-name="four.tosf" 
d="M315 491h163v-402h118v-89h-118v-200h-99v200h-351v84zM367 412l-233 -323h245v323h-12z" />
    <glyph glyph-name="five.tosf" 
d="M157 23q2 -71 44 -110t112 -39q72 0 113.5 44t41.5 119q0 68 -37.5 108t-98.5 40q-80 0 -115 -68h-135v374h464v-89h-365v-220h12q50 87 163 87q89 0 150 -62.5t61 -165.5q0 -113 -69 -184t-183 -71q-111 0 -181 61.5t-74 164.5z" />
    <glyph glyph-name="six.tosf" 
d="M461 513l99 12q-11 86 -75 137.5t-166 51.5q-116 0 -187 -66t-71 -181v-244q0 -105 71 -171.5t179 -64.5q110 1 181.5 68t71.5 174q0 103 -64.5 168.5t-161.5 65.5q-118 0 -166 -81h-12v92q0 72 42 112t117 40q64 0 100.5 -30.5t41.5 -82.5zM312 385q68 0 110.5 -43
t42.5 -113t-42.5 -112t-110.5 -42t-110 42t-42 112t42 113t110 43z" />
    <glyph glyph-name="seven.tosf" 
d="M32 491h545v-86l-308 -605h-110l305 601h-432v90z" />
    <glyph glyph-name="eight.tosf" 
d="M66 525q0 83 67.5 136t176.5 53t176.5 -53t67.5 -136q0 -62 -34 -100t-84 -57v-12q50 -12 90 -55.5t40 -113.5q0 -90 -71.5 -145.5t-184.5 -55.5t-184.5 55.5t-71.5 145.5q0 70 40 113.5t90 55.5v12q-50 19 -84 57t-34 100zM165 515q0 -51 40.5 -81t104.5 -30t105 30
t41 81q0 52 -40.5 81.5t-105.5 29.5t-105 -29.5t-40 -81.5zM153 195q0 -57 42.5 -89t114.5 -32t114.5 32t42.5 89t-42 89t-115 32t-115 -32t-42 -89z" />
    <glyph glyph-name="nine.tosf" 
d="M164 -19q7 -50 42.5 -78.5t96.5 -28.5q75 0 116 40t41 112v83h-12q-48 -81 -166 -81q-96 0 -160.5 66t-64.5 168q0 108 71 175t181 68q108 1 179 -65t71 -171v-236q0 -115 -70 -181t-186 -66q-100 0 -163 50t-75 133zM308 106q68 0 110 43t42 113q0 71 -42 113t-110 42
t-110 -42.5t-42 -112.5t42 -113t110 -43z" />
    <glyph glyph-name="one.tosf.ss03" 
d="M221 491h185v-402h174v-89h-528v89h254v355h-12l-93 -171h-103z" />
    <glyph glyph-name="zero.tosf.zero" 
d="M310 505q114 0 186.5 -72.5t72.5 -187.5q0 -114 -72.5 -186.5t-186.5 -72.5t-186.5 72.5t-72.5 186.5q0 115 72.5 187.5t186.5 72.5zM310 417q-70 0 -115 -49.5t-45 -122.5q0 -33 9 -61l266 185q-45 48 -115 48zM310 74q71 0 115.5 48.5t44.5 122.5q0 34 -9 61l-266 -184
q45 -48 115 -48z" />
    <glyph glyph-name="zero.zero" horiz-adv-x="608" 
d="M304 714q121 0 190 -74t69 -210v-160q0 -137 -69 -210.5t-190 -73.5t-190.5 73.5t-69.5 210.5v160q0 136 69.5 210t190.5 74zM304 626q-77 0 -119 -51t-42 -140v-155l315 221q-14 60 -53.5 92.5t-100.5 32.5zM304 74q80 0 120.5 50.5t40.5 140.5v155l-315 -222
q27 -124 154 -124z" />
    <glyph glyph-name="zero.subs" horiz-adv-x="367" 
d="M23 4q0 74 42.5 116.5t117.5 42.5q74 0 117 -43t43 -116v-59q0 -74 -42.5 -116t-117.5 -42t-117.5 42t-42.5 116v59zM101 10v-70q0 -41 21 -64t61 -23t61.5 23.5t21.5 63.5v70q0 40 -21.5 63.5t-61.5 23.5t-61 -23t-21 -64z" />
    <glyph glyph-name="one.subs" horiz-adv-x="250" 
d="M96 150h112v-350h-78v260h-10l-38 -66h-72v10z" />
    <glyph glyph-name="two.subs" horiz-adv-x="354" 
d="M182 163q66 0 107.5 -33t41.5 -87q0 -52 -33.5 -79.5t-102.5 -42.5q-47 -11 -69 -23.5t-26 -33.5h229v-64h-308v35q0 109 137 140q52 13 74 27.5t22 40.5q0 25 -20.5 40.5t-52.5 15.5q-36 0 -58 -19t-23 -55h-76q1 65 44.5 101.5t113.5 36.5z" />
    <glyph glyph-name="three.subs" horiz-adv-x="357" 
d="M25 150h308v-54l-115 -74v-10q51 -2 84 -27.5t33 -74.5q0 -54 -44.5 -88.5t-111.5 -34.5q-71 0 -115 35.5t-46 98.5h77q1 -32 23.5 -50.5t58.5 -18.5t58 17t22 44q0 55 -80 55h-62v51l102 67h-192v64z" />
    <glyph glyph-name="four.subs" horiz-adv-x="376" 
d="M178 150h123v-209h72v-62h-72v-79h-78v79h-210v56zM214 87l-116 -146h125v146h-9z" />
    <glyph glyph-name="five.subs" horiz-adv-x="356" 
d="M33 150h294v-64h-218v-81h10q42 30 93 30q54 0 90.5 -32t36.5 -84v-5q0 -55 -43 -91t-114 -36q-67 0 -109 34t-52 90h78q6 -27 27.5 -43.5t55.5 -16.5q36 0 57.5 17.5t21.5 46.5q0 28 -19.5 44t-49.5 16q-36 0 -67 -28h-92v203z" />
    <glyph glyph-name="six.subs" horiz-adv-x="361" 
d="M23 28q0 59 46.5 97t115.5 38q65 0 105.5 -31t44.5 -80h-77q-8 47 -73 47q-38 0 -61 -19.5t-23 -50.5v-30h10q40 30 91 30q59 0 99 -30.5t40 -84.5q0 -57 -44.5 -92t-114.5 -35t-114.5 35t-44.5 92v114zM101 -87q0 -28 22 -45.5t59 -17.5q38 0 60 17.5t22 45.5
q0 27 -22 43.5t-60 16.5q-37 0 -59 -16.5t-22 -43.5z" />
    <glyph glyph-name="seven.subs" horiz-adv-x="316" 
d="M5 150h305v-60l-148 -290h-86l148 286h-219v64z" />
    <glyph glyph-name="eight.subs" horiz-adv-x="361" 
d="M26 65q0 43 43 70.5t111 27.5t111 -27.5t43 -70.5v-3q0 -57 -61 -76v-10q25 -6 46 -27t21 -57v-2q0 -45 -43.5 -74t-116.5 -29t-116.5 29t-43.5 74v2q0 37 21 57.5t47 26.5v10q-62 19 -62 76v3zM104 56q0 -21 20.5 -33.5t55.5 -12.5t55.5 12.5t20.5 33.5q0 20 -20.5 32
t-55.5 12t-55.5 -12t-20.5 -32zM98 -101q0 -23 22 -36t60 -13t60 13t22 36q0 24 -21.5 37t-60.5 13q-38 0 -60 -13t-22 -37z" />
    <glyph glyph-name="nine.subs" horiz-adv-x="361" 
d="M337 -78q0 -59 -44.5 -97t-112.5 -38q-62 0 -103 29t-52 77h81q12 -42 74 -42q36 0 58 19.5t22 50.5v30h-10q-40 -30 -92 -30q-59 0 -99 30.5t-40 84.5q0 57 44.5 92t114.5 35t114.5 -35t44.5 -92v-114zM260 37q0 28 -22 45.5t-60 17.5q-37 0 -59 -17.5t-22 -45.5
q0 -27 22 -43.5t59 -16.5q38 0 60 16.5t22 43.5z" />
    <glyph glyph-name="zero.dnom" horiz-adv-x="367" 
d="M23 204q0 74 42.5 116.5t117.5 42.5q74 0 117 -43t43 -116v-59q0 -74 -42.5 -116t-117.5 -42t-117.5 42t-42.5 116v59zM101 210v-70q0 -41 21 -64t61 -23t61.5 23.5t21.5 63.5v70q0 40 -21.5 63.5t-61.5 23.5t-61 -23t-21 -64z" />
    <glyph glyph-name="one.dnom" horiz-adv-x="250" 
d="M96 350h112v-350h-78v260h-10l-38 -66h-72v10z" />
    <glyph glyph-name="two.dnom" horiz-adv-x="354" 
d="M182 363q66 0 107.5 -33t41.5 -87q0 -52 -33.5 -79.5t-102.5 -42.5q-47 -11 -69 -23.5t-26 -33.5h229v-64h-308v35q0 109 137 140q52 13 74 27.5t22 40.5q0 25 -20.5 40.5t-52.5 15.5q-36 0 -58 -19t-23 -55h-76q1 65 44.5 101.5t113.5 36.5z" />
    <glyph glyph-name="three.dnom" horiz-adv-x="357" 
d="M25 350h308v-54l-115 -74v-10q51 -2 84 -27.5t33 -74.5q0 -54 -44.5 -88.5t-111.5 -34.5q-71 0 -115 35.5t-46 98.5h77q1 -32 23.5 -50.5t58.5 -18.5t58 17t22 44q0 55 -80 55h-62v51l102 67h-192v64z" />
    <glyph glyph-name="four.dnom" horiz-adv-x="376" 
d="M178 350h123v-209h72v-62h-72v-79h-78v79h-210v56zM214 287l-116 -146h125v146h-9z" />
    <glyph glyph-name="five.dnom" horiz-adv-x="356" 
d="M33 350h294v-64h-218v-81h10q42 30 93 30q54 0 90.5 -32t36.5 -84v-5q0 -55 -43 -91t-114 -36q-67 0 -109 34t-52 90h78q6 -26 27.5 -43t55.5 -17q36 0 57.5 18t21.5 46t-19.5 44t-49.5 16q-36 0 -67 -28h-92v203z" />
    <glyph glyph-name="six.dnom" horiz-adv-x="361" 
d="M23 228q0 59 46.5 97t115.5 38q65 0 105.5 -31t44.5 -80h-77q-8 47 -73 47q-38 0 -61 -19.5t-23 -50.5v-30h10q40 30 91 30q59 0 99 -30.5t40 -84.5q0 -57 -44.5 -92t-114.5 -35t-114.5 35t-44.5 92v114zM101 113q0 -28 22 -45.5t59 -17.5q38 0 60 17.5t22 45.5
q0 27 -22 43.5t-60 16.5q-37 0 -59 -16.5t-22 -43.5z" />
    <glyph glyph-name="seven.dnom" horiz-adv-x="316" 
d="M5 350h305v-60l-148 -290h-86l148 286h-219v64z" />
    <glyph glyph-name="eight.dnom" horiz-adv-x="361" 
d="M26 265q0 43 43 70.5t111 27.5t111 -27.5t43 -70.5v-3q0 -57 -61 -76v-10q25 -6 46 -27t21 -57v-2q0 -45 -43.5 -74t-116.5 -29t-116.5 29t-43.5 74v2q0 37 21 57.5t47 26.5v10q-62 19 -62 76v3zM104 256q0 -21 20.5 -33.5t55.5 -12.5t55.5 12.5t20.5 33.5q0 20 -20.5 32
t-55.5 12t-55.5 -12t-20.5 -32zM98 99q0 -23 22 -36t60 -13t60 13t22 36q0 24 -21.5 37t-60.5 13q-38 0 -60 -13t-22 -37z" />
    <glyph glyph-name="nine.dnom" horiz-adv-x="361" 
d="M337 122q0 -59 -44.5 -97t-112.5 -38q-62 0 -103 29t-52 77h81q12 -42 74 -42q36 0 58 19.5t22 50.5v30h-10q-40 -30 -92 -30q-59 0 -99 30.5t-40 84.5q0 57 44.5 92t114.5 35t114.5 -35t44.5 -92v-114zM260 237q0 28 -22 45.5t-60 17.5q-37 0 -59 -17.5t-22 -45.5
q0 -27 22 -43.5t59 -16.5q38 0 60 16.5t22 43.5z" />
    <glyph glyph-name="zero.numr" horiz-adv-x="367" 
d="M23 554q0 74 42.5 116.5t117.5 42.5q74 0 117 -43t43 -116v-59q0 -74 -42.5 -116t-117.5 -42t-117.5 42t-42.5 116v59zM101 560v-70q0 -41 21 -64t61 -23t61.5 23.5t21.5 63.5v70q0 40 -21.5 63.5t-61.5 23.5t-61 -23t-21 -64z" />
    <glyph glyph-name="one.numr" horiz-adv-x="250" 
d="M96 700h112v-350h-78v260h-10l-38 -66h-72v10z" />
    <glyph glyph-name="two.numr" horiz-adv-x="354" 
d="M182 713q66 0 107.5 -33t41.5 -87q0 -52 -33.5 -79.5t-102.5 -42.5q-47 -11 -69 -23.5t-26 -33.5h229v-64h-308v35q0 109 137 140q52 13 74 27.5t22 40.5q0 25 -20.5 40.5t-52.5 15.5q-36 0 -58 -19t-23 -55h-76q1 65 44.5 101.5t113.5 36.5z" />
    <glyph glyph-name="three.numr" horiz-adv-x="357" 
d="M25 700h308v-54l-115 -74v-10q51 -2 84 -27.5t33 -74.5q0 -54 -44.5 -88.5t-111.5 -34.5q-71 0 -115 35.5t-46 98.5h77q1 -32 23.5 -50.5t58.5 -18.5t58 17t22 44q0 55 -80 55h-62v51l102 67h-192v64z" />
    <glyph glyph-name="four.numr" horiz-adv-x="376" 
d="M178 700h123v-209h72v-62h-72v-79h-78v79h-210v56zM214 637l-116 -146h125v146h-9z" />
    <glyph glyph-name="five.numr" horiz-adv-x="356" 
d="M33 700h294v-64h-218v-81h10q42 30 93 30q54 0 90.5 -32t36.5 -84v-5q0 -55 -43 -91t-114 -36q-67 0 -109 34t-52 90h78q6 -26 27.5 -43t55.5 -17q36 0 57.5 18t21.5 46t-19.5 44t-49.5 16q-36 0 -67 -28h-92v203z" />
    <glyph glyph-name="six.numr" horiz-adv-x="361" 
d="M23 578q0 59 46.5 97t115.5 38q65 0 105.5 -31t44.5 -80h-77q-8 47 -73 47q-38 0 -61 -19.5t-23 -50.5v-30h10q40 30 91 30q59 0 99 -30.5t40 -84.5q0 -57 -44.5 -92t-114.5 -35t-114.5 35t-44.5 92v114zM101 463q0 -28 22 -45.5t59 -17.5q38 0 60 17.5t22 45.5
q0 27 -22 43.5t-60 16.5q-37 0 -59 -16.5t-22 -43.5z" />
    <glyph glyph-name="seven.numr" horiz-adv-x="316" 
d="M5 700h305v-60l-148 -290h-86l148 286h-219v64z" />
    <glyph glyph-name="eight.numr" horiz-adv-x="361" 
d="M26 615q0 43 43 70.5t111 27.5t111 -27.5t43 -70.5v-3q0 -57 -61 -76v-10q25 -6 46 -27t21 -57v-2q0 -45 -43.5 -74t-116.5 -29t-116.5 29t-43.5 74v2q0 37 21 57.5t47 26.5v10q-62 19 -62 76v3zM104 606q0 -21 20.5 -33.5t55.5 -12.5t55.5 12.5t20.5 33.5q0 20 -20.5 32
t-55.5 12t-55.5 -12t-20.5 -32zM98 449q0 -23 22 -36t60 -13t60 13t22 36q0 24 -21.5 37t-60.5 13q-38 0 -60 -13t-22 -37z" />
    <glyph glyph-name="nine.numr" horiz-adv-x="380" 
d="M349 472q0 -59 -45 -97t-113 -38q-62 0 -103 29t-52 77h81q12 -42 74 -42q36 0 58 19.5t22 50.5v30h-10q-40 -30 -91 -30q-59 0 -99 30.5t-40 84.5q0 57 44.5 92t114.5 35t114.5 -35t44.5 -92v-114zM271 587q0 28 -22 45.5t-59 17.5q-38 0 -60 -17.5t-22 -45.5
q0 -27 22 -43.5t60 -16.5q37 0 59 16.5t22 43.5z" />
    <glyph glyph-name="zero.sups" horiz-adv-x="367" 
d="M23 554q0 74 42.5 116.5t117.5 42.5q74 0 117 -43t43 -116v-59q0 -74 -42.5 -116t-117.5 -42t-117.5 42t-42.5 116v59zM101 560v-70q0 -41 21 -64t61 -23t61.5 23.5t21.5 63.5v70q0 40 -21.5 63.5t-61.5 23.5t-61 -23t-21 -64z" />
    <glyph glyph-name="one.sups" horiz-adv-x="250" 
d="M96 700h112v-350h-78v260h-10l-38 -66h-72v10z" />
    <glyph glyph-name="two.sups" horiz-adv-x="354" 
d="M182 713q66 0 107.5 -33t41.5 -87q0 -52 -33.5 -79.5t-102.5 -42.5q-47 -11 -69 -23.5t-26 -33.5h229v-64h-308v35q0 109 137 140q52 13 74 27.5t22 40.5q0 25 -20.5 40.5t-52.5 15.5q-36 0 -58 -19t-23 -55h-76q1 65 44.5 101.5t113.5 36.5z" />
    <glyph glyph-name="three.sups" horiz-adv-x="357" 
d="M25 700h308v-54l-115 -74v-10q51 -2 84 -27.5t33 -74.5q0 -54 -44.5 -88.5t-111.5 -34.5q-71 0 -115 35.5t-46 98.5h77q1 -32 23.5 -50.5t58.5 -18.5t58 17t22 44q0 55 -80 55h-62v51l102 67h-192v64z" />
    <glyph glyph-name="four.sups" horiz-adv-x="376" 
d="M178 700h123v-209h72v-62h-72v-79h-78v79h-210v56zM214 637l-116 -146h125v146h-9z" />
    <glyph glyph-name="five.sups" horiz-adv-x="356" 
d="M33 700h294v-64h-218v-81h10q42 30 93 30q54 0 90.5 -32t36.5 -84v-5q0 -55 -43 -91t-114 -36q-67 0 -109 34t-52 90h78q6 -26 27.5 -43t55.5 -17q36 0 57.5 18t21.5 46t-19.5 44t-49.5 16q-36 0 -67 -28h-92v203z" />
    <glyph glyph-name="six.sups" horiz-adv-x="361" 
d="M23 578q0 59 46.5 97t115.5 38q65 0 105.5 -31t44.5 -80h-77q-8 47 -73 47q-38 0 -61 -19.5t-23 -50.5v-30h10q40 30 91 30q59 0 99 -30.5t40 -84.5q0 -57 -44.5 -92t-114.5 -35t-114.5 35t-44.5 92v114zM101 463q0 -28 22 -45.5t59 -17.5q38 0 60 17.5t22 45.5
q0 27 -22 43.5t-60 16.5q-37 0 -59 -16.5t-22 -43.5z" />
    <glyph glyph-name="seven.sups" horiz-adv-x="316" 
d="M5 700h305v-60l-148 -290h-86l148 286h-219v64z" />
    <glyph glyph-name="eight.sups" horiz-adv-x="361" 
d="M26 615q0 43 43 70.5t111 27.5t111 -27.5t43 -70.5v-3q0 -57 -61 -76v-10q25 -6 46 -27t21 -57v-2q0 -45 -43.5 -74t-116.5 -29t-116.5 29t-43.5 74v2q0 37 21 57.5t47 26.5v10q-62 19 -62 76v3zM104 606q0 -21 20.5 -33.5t55.5 -12.5t55.5 12.5t20.5 33.5q0 20 -20.5 32
t-55.5 12t-55.5 -12t-20.5 -32zM98 449q0 -23 22 -36t60 -13t60 13t22 36q0 24 -21.5 37t-60.5 13q-38 0 -60 -13t-22 -37z" />
    <glyph glyph-name="nine.sups" horiz-adv-x="380" 
d="M349 472q0 -59 -45 -97t-113 -38q-62 0 -103 29t-52 77h81q12 -42 74 -42q36 0 58 19.5t22 50.5v30h-10q-40 -30 -91 -30q-59 0 -99 30.5t-40 84.5q0 57 44.5 92t114.5 35t114.5 -35t44.5 -92v-114zM271 587q0 28 -22 45.5t-59 17.5q-38 0 -60 -17.5t-22 -45.5
q0 -27 22 -43.5t60 -16.5q37 0 59 16.5t22 43.5z" />
    <glyph glyph-name="zero.subs.zero" horiz-adv-x="367" 
d="M183 163q74 0 117 -43t43 -116v-59q0 -74 -42.5 -116t-117.5 -42t-117.5 42t-42.5 116v59q0 74 42.5 116.5t117.5 42.5zM183 97q-40 0 -61 -23t-21 -64v-57l157 101q-21 43 -75 43zM183 -147q40 0 61.5 23.5t21.5 63.5v62l-158 -103q17 -46 75 -46z" />
    <glyph glyph-name="zero.dnom.zero" horiz-adv-x="367" 
d="M183 363q74 0 117 -43t43 -116v-59q0 -74 -42.5 -116t-117.5 -42t-117.5 42t-42.5 116v59q0 74 42.5 116.5t117.5 42.5zM183 297q-40 0 -61 -23t-21 -64v-57l157 101q-21 43 -75 43zM183 53q40 0 61.5 23.5t21.5 63.5v62l-158 -103q17 -46 75 -46z" />
    <glyph glyph-name="zero.numr.zero" horiz-adv-x="367" 
d="M183 713q74 0 117 -43t43 -116v-59q0 -74 -42.5 -116t-117.5 -42t-117.5 42t-42.5 116v59q0 74 42.5 116.5t117.5 42.5zM183 647q-40 0 -61 -23t-21 -64v-57l157 101q-21 43 -75 43zM183 403q40 0 61.5 23.5t21.5 63.5v62l-158 -103q17 -46 75 -46z" />
    <glyph glyph-name="zero.sups.zero" horiz-adv-x="367" 
d="M183 713q74 0 117 -43t43 -116v-59q0 -74 -42.5 -116t-117.5 -42t-117.5 42t-42.5 116v59q0 74 42.5 116.5t117.5 42.5zM183 647q-40 0 -61 -23t-21 -64v-57l157 101q-21 43 -75 43zM183 403q40 0 61.5 23.5t21.5 63.5v62l-158 -103q17 -46 75 -46z" />
    <glyph glyph-name="exclamdown.case" horiz-adv-x="257" 
d="M50 622q0 34 22.5 56t55.5 22q34 0 56 -22t22 -56t-22 -56t-56 -22q-33 0 -55.5 22t-22.5 56zM79 -14v502h99v-502h-99z" />
    <glyph glyph-name="questiondown.case" horiz-adv-x="604" 
d="M395 636q0 -34 -22.5 -56t-55.5 -22q-34 0 -56 22t-22 56t22 56t56 22q33 0 55.5 -22t22.5 -56zM555 202q0 -100 -70.5 -158t-181.5 -58q-107 0 -175.5 56.5t-68.5 144.5v5q0 77 40.5 122.5t108.5 74.5l25 10q19 9 26.5 21.5t7.5 36.5v45h99v-50q0 -49 -17 -78t-62 -49
l-25 -10q-54 -24 -79 -50.5t-25 -72.5q0 -53 40.5 -83.5t104.5 -30.5q67 0 110 33t43 95v32h99v-36z" />
    <glyph glyph-name="slash.case" horiz-adv-x="452" 
d="M306 737h100l-260 -778h-100z" />
    <glyph glyph-name="backslash.case" horiz-adv-x="452" 
d="M146 737l260 -778h-100l-260 778h100z" />
    <glyph glyph-name="parenleft.case" horiz-adv-x="408" 
d="M127 117v458q0 142 69.5 209.5t191.5 67.5v-89q-163 -4 -163 -196v-441q0 -98 40 -146t123 -50v-89q-122 0 -191.5 67.5t-69.5 208.5z" />
    <glyph glyph-name="parenright.case" horiz-adv-x="408" 
d="M281 117q0 -141 -69.5 -208.5t-191.5 -67.5v89q84 2 124 49.5t40 146.5v441q0 98 -40.5 146t-123.5 50v89q122 0 191.5 -67.5t69.5 -209.5v-458z" />
    <glyph glyph-name="braceleft.case" horiz-adv-x="389" 
d="M73 401h62q27 0 27 29v334q0 38 24 62t61 24h114v-89h-75q-27 0 -27 -30v-302q0 -34 -19.5 -55.5t-54.5 -21.5h-11v-12h11q35 0 54.5 -21.5t19.5 -55.5v-301q0 -30 27 -30h75v-89h-114q-37 0 -61 24t-24 61v334q0 29 -27 29h-62v110z" />
    <glyph glyph-name="braceright.case" horiz-adv-x="389" 
d="M316 401v-110h-61q-27 0 -27 -29v-334q0 -37 -24.5 -61t-61.5 -24h-113v89h74q27 0 27 30v301q0 34 20 55.5t54 21.5h11v12h-11q-34 0 -54 21.5t-20 55.5v302q0 30 -27 30h-74v89h113q38 0 62 -24t24 -62v-334q0 -29 27 -29h61z" />
    <glyph glyph-name="bracketleft.case" horiz-adv-x="355" 
d="M127 764q0 38 24 62t61 24h114v-89h-74q-27 0 -27 -30v-769q0 -30 27 -30h74v-89h-114q-37 0 -61 24t-24 61v836z" />
    <glyph glyph-name="bracketright.case" horiz-adv-x="355" 
d="M228 764v-836q0 -37 -24.5 -61t-61.5 -24h-113v89h74q27 0 27 30v769q0 30 -27 30h-74v89h113q38 0 62 -24t24 -62z" />
    <glyph glyph-name="hyphen.case" horiz-adv-x="460" 
d="M82 309v86h296v-86h-296z" />
    <glyph glyph-name="endash.case" horiz-adv-x="612" 
d="M82 309v86h448v-86h-448z" />
    <glyph glyph-name="emdash.case" horiz-adv-x="916" 
d="M82 309v86h752v-86h-752z" />
    <glyph glyph-name="guillemotleft.case" horiz-adv-x="780" 
d="M65 389l314 180h6v-103l-226 -121v-14l226 -121v-103h-6l-314 180v102zM391 389l314 180h6v-103l-225 -121v-14l225 -121v-103h-6l-314 180v102z" />
    <glyph glyph-name="guillemotright.case" horiz-adv-x="780" 
d="M385 389v-102l-314 -180h-6v103l225 121v14l-225 121v103h6zM711 389v-102l-314 -180h-6v103l226 121v14l-226 121v103h6z" />
    <glyph glyph-name="guilsinglleft.case" horiz-adv-x="480" 
d="M65 393l340 176h6v-103l-255 -121v-14l255 -121v-103h-6l-340 176v110z" />
    <glyph glyph-name="guilsinglright.case" horiz-adv-x="480" 
d="M415 393v-110l-340 -176h-6v103l255 121v14l-255 121v103h6z" />
    <glyph glyph-name="uni2197.case" horiz-adv-x="609" 
d="M162 700h332l52 -52v-332l-88 1v190l7 37l-9 4l-24 -29l-328 -329l-67 67l327 329l30 24l-4 9l-38 -7h-189z" />
    <glyph glyph-name="arrowright.case" horiz-adv-x="800" 
d="M515 624l235 -235v-75l-235 -235l-63 64l136 136l31 21l-3 9l-38 -3h-528v91h528l38 -3l3 9l-31 21l-136 136z" />
    <glyph glyph-name="arrowleft.case" horiz-adv-x="800" 
d="M285 624l63 -64l-136 -136l-31 -21l3 -9l38 3h528v-91h-528l-38 3l-3 -9l31 -21l136 -136l-63 -64l-235 235v75z" />
    <glyph glyph-name="uni2196.case" horiz-adv-x="612" 
d="M458 700l-1 -88h-189l-38 7l-4 -9l30 -24l327 -329l-66 -67l-329 329l-24 29l-9 -4l7 -37v-190l-88 -1v332l52 52h332z" />
    <glyph glyph-name="arrowboth.case" horiz-adv-x="800" 
d="M521 618l229 -229v-75l-229 -229l-63 64l130 130l31 21l-3 9l-38 -3h-356l-38 3l-3 -9l31 -21l130 -130l-63 -64l-229 229v75l229 229l63 -63l-130 -131l-31 -21l3 -9l38 3h356l38 -3l3 9l-31 21l-130 131z" />
    <glyph glyph-name="at.case" horiz-adv-x="1012" 
d="M85 126v448q0 95 52 147t147 52h457q92 0 140 -47.5t48 -138.5v-384q0 -42 -24 -66t-67 -24h-130q-34 0 -53.5 18.5t-19.5 49.5v12h-15q-34 -94 -140 -94q-90 0 -148 69.5t-58 172.5v17q0 103 56.5 173t143.5 70q100 0 141 -88h15v74h90v-364q0 -27 26 -27h55q35 0 35 37
v356q0 99 -99 99h-438q-122 0 -122 -122v-432q0 -122 122 -122h615v-85h-630q-95 0 -147 52t-52 147zM498 514q-59 0 -94.5 -43.5t-35.5 -114.5v-12q0 -72 35.5 -115.5t94.5 -43.5t95 43.5t36 115.5v11q0 73 -36 116t-95 43z" />
    <glyph glyph-name="bar.case" horiz-adv-x="230" 
d="M162 856v-1012h-94v1012h94z" />
    <glyph glyph-name="brokenbar.case" horiz-adv-x="230" 
d="M162 436h-94v420h94v-420zM68 264h94v-420h-94v420z" />
    <glyph glyph-name="uni0308.case" horiz-adv-x="0" 
d="M-388 819q0 31 20.5 51.5t51.5 20.5q32 0 52.5 -20.5t20.5 -51.5t-20.5 -51t-52.5 -20q-31 0 -51.5 20t-20.5 51zM-194 819q0 31 21 51.5t52 20.5q32 0 52.5 -20.5t20.5 -51.5t-20.5 -51t-52.5 -20q-31 0 -52 20t-21 51z" />
    <glyph glyph-name="uni0307.case" horiz-adv-x="0" 
d="M-194 819q0 31 20.5 51.5t51.5 20.5q32 0 52.5 -20.5t20.5 -51.5t-20.5 -51t-52.5 -20q-31 0 -51.5 20t-20.5 51z" />
    <glyph glyph-name="gravecomb.case" horiz-adv-x="0" 
d="M-109 880l60 -116h-86l-84 116h110z" />
    <glyph glyph-name="acutecomb.case" horiz-adv-x="0" 
d="M-162 880h113l-82 -116h-87z" />
    <glyph glyph-name="uni030B.case" horiz-adv-x="0" 
d="M-299 880h108l-84 -116h-84zM-157 880h108l-84 -116h-84z" />
    <glyph glyph-name="uni0302.case" horiz-adv-x="0" 
d="M-147 764l-53 65h-11l-52 -65h-98l97 116h117l98 -116h-98z" />
    <glyph glyph-name="uni030C.case" horiz-adv-x="0" 
d="M-147 882h98l-98 -115h-117l-97 115h98l52 -65h11z" />
    <glyph glyph-name="uni0306.case" horiz-adv-x="0" 
d="M-120 880h72v-10q0 -53 -33.5 -83.5t-88.5 -30.5t-88.5 30.5t-33.5 83.5v10h72v-4q0 -22 13 -35.5t37 -13.5t37 13.5t13 35.5v4z" />
    <glyph glyph-name="uni030A.case" horiz-adv-x="0" 
d="M-254 839q0 43 29 71t73 28t73.5 -28t29.5 -71q0 -44 -30 -72t-73 -28t-72.5 28.5t-29.5 71.5zM-191 839q0 -17 11 -28t28 -11q18 0 28.5 11t10.5 28t-10.5 28t-28.5 11q-17 0 -28 -11t-11 -28z" />
    <glyph glyph-name="tildecomb.case" horiz-adv-x="0" 
d="M-396 801l42 57q31 42 74 42q41 0 74 -42l12 -14.5t9.5 -7.5t14.5 -4q18 0 34 22l28 38l60 -45l-43 -58q-31 -42 -74 -42q-41 0 -74 42q-1 2 -4 5.5t-4 4.5t-3.5 4t-3.5 4t-3.5 3t-4 2.5t-4 1.5t-4.5 1.5t-5 0.5q-18 0 -34 -23l-28 -38z" />
    <glyph glyph-name="uni0304.case" horiz-adv-x="0" 
d="M-49 842v-78h-285v78h285z" />
    <glyph glyph-name="ringacutecomb" horiz-adv-x="303" 
d="M225 710q29 -29 29 -71q0 -44 -29.5 -71.5t-73.5 -27.5q-43 0 -72.5 28.5t-29.5 70.5t28.5 70t71.5 29l40 92h111zM151 600q18 0 28.5 11t10.5 28t-10.5 28t-28.5 11q-17 0 -28 -11t-11 -28t11 -28t28 -11z" />
    <glyph glyph-name="Omega" 
d="M60 434q0 127 67 203.5t183 76.5q117 0 183.5 -76.5t66.5 -203.5v-136q0 -144 -88 -190v-14h100v-94h-222v102q64 21 87 69t23 137v118q0 92 -38.5 143t-111.5 51t-111.5 -52t-38.5 -142v-118q0 -89 23 -137t87 -69v-102h-222v94h100v14q-88 44 -88 190v136z" />
    <glyph glyph-name="Delta" 
d="M18 0l205 700h174l205 -700h-584zM149 94h322l-154 534h-14z" />
    </font>
</defs>
</svg>
